<svg width="24" height="24" viewBox="0 0 24 24" fill="none" xmlns="http://www.w3.org/2000/svg">
<ellipse cx="12.0001" cy="11.4999" rx="9.71927" ry="6.62677" transform="rotate(-15 12.0001 11.4999)" fill="#FF4C34"/>
<path d="M20.1725 9.31013C20.5393 10.6789 20.0304 12.1952 18.8073 13.5547C17.587 14.9111 15.6865 16.0697 13.3895 16.6852C11.0924 17.3007 8.86724 17.2476 7.1323 16.683C5.39333 16.1172 4.19444 15.0585 3.82768 13.6897C3.46091 12.3209 3.96981 10.8046 5.19289 9.44509C6.41314 8.08874 8.31364 6.93013 10.6107 6.31463C12.9077 5.69914 15.1329 5.75228 16.8679 6.31679C18.6068 6.88262 19.8057 7.94135 20.1725 9.31013Z" stroke="white" stroke-width="0.75"/>
<path d="M9.49569 8.0546L9.74573 7.9876L9.93695 8.38122L10.1152 9.04633L10.5352 8.93377L10.9731 8.90757L11.0401 9.15761C11.1071 9.40764 11.0221 9.75735 10.7852 10.2067L10.808 10.2918L11.9469 10.8817L11.9683 10.9617L11.7183 11.0287C11.5081 10.9242 11.1436 10.7842 10.6249 10.6088C10.5549 10.6275 10.4193 10.9015 10.2181 11.4307L10.053 11.4749L9.98605 11.2248C10.5368 10.1732 10.7765 9.51409 10.705 9.24738L10.6822 9.16237L10.6022 9.18381C9.6406 9.50222 9.06477 9.68689 8.87474 9.7378L8.74551 9.59556C8.73181 9.47774 8.77163 9.40633 8.86498 9.38131L9.78512 9.13476L9.49569 8.0546ZM12.3165 7.92049C12.4065 7.89637 12.6522 8.36652 13.0536 9.33094C13.3003 9.26484 13.6679 9.1967 14.1565 9.12653L14.2235 9.37657L13.1433 9.666C13.3338 9.93656 13.4928 10.3102 13.6206 10.787L13.5356 10.8097C13.4555 10.8312 13.3499 10.7702 13.2185 10.6267L13.1743 10.4617C13.0644 10.0516 12.7311 9.24762 12.1743 8.04972L12.3165 7.92049ZM13.9294 11.5993L14.0094 11.5779C14.0451 11.7112 14.1851 12.1204 14.4294 12.8053C14.4513 13.1138 14.4676 13.2881 14.4784 13.3281C14.5636 13.4196 14.6143 13.4954 14.6304 13.5554L14.3181 13.7302C14.2647 13.7445 14.2305 13.7233 14.2153 13.6666C13.8847 13.8731 13.2327 14.1068 12.2592 14.3676C11.8781 13.6122 11.6313 13.0244 11.5188 12.6043C11.7684 12.4159 12.2533 12.2253 12.9734 12.0323L13.3035 11.9439C13.6674 11.7285 13.876 11.6136 13.9294 11.5993ZM11.88 12.9524C12.1982 13.6997 12.4406 14.051 12.6073 14.0064L12.6923 13.9836C12.769 13.963 13.1976 13.7892 13.9783 13.4621L14.2283 13.3951L13.8705 12.0599L13.0632 12.3674C13.0199 12.379 12.8456 12.3953 12.5403 12.4164C12.1902 12.6031 11.9701 12.7818 11.88 12.9524Z" fill="white"/>
</svg>
