<svg width="258" height="214" viewBox="0 0 258 214" fill="none" xmlns="http://www.w3.org/2000/svg">
<g clip-path="url(#clip0_178_9984)">
<path d="M104.492 169.455C92.3116 168.642 80.0967 168.191 67.879 168.139C64.2248 168.125 60.5477 168.145 56.954 168.721C54.9861 169.036 53.0241 169.525 51.3177 170.436C49.166 171.584 47.54 173.329 45.7388 174.868C44.2019 176.181 42.4323 177.477 41.9095 179.294C41.1999 181.752 43.1505 184.321 45.7072 185.536C48.2639 186.751 51.2832 186.919 54.1904 187.043C74.041 187.882 93.9433 187.726 113.774 186.578C116.141 186.442 118.545 186.282 120.76 185.542C122.975 184.801 125.009 183.387 125.782 181.434C126.684 179.155 125.678 176.545 123.817 174.761C121.955 172.976 119.364 171.9 116.747 171.116C112.596 169.875 108.195 169.267 103.808 169.331" fill="black"/>
<path d="M104.371 64.1014C96.6809 53.7569 82.8573 50.5459 70.1454 48.7727C64.8423 48.0321 59.4675 47.416 54.1414 47.9801C48.8154 48.5442 43.4836 50.3811 39.5278 54.0143C34.5551 58.5791 32.2828 65.4291 31.2601 72.1287C29.0165 86.795 31.8519 101.86 36.8533 115.818C43.5898 134.621 54.6729 152.382 70.9526 163.82C77.2985 168.281 84.3051 171.7 91.4094 174.798C95.5289 176.595 99.8581 178.322 104.342 178.116C108.853 177.911 113.032 175.773 116.959 173.531C121.013 171.214 124.974 168.735 128.832 166.097C130.806 164.749 132.794 163.314 134.127 161.321C135.802 158.816 136.259 155.686 136.339 152.666C136.534 145.252 134.724 137.95 132.926 130.756C130.289 120.203 127.646 109.633 124.075 99.364C119.605 86.5086 113.541 73.9454 104.19 64.0985" fill="#FFDC00"/>
<path d="M104.745 63.8815C98.3271 55.3132 87.8675 51.5989 77.7727 49.5971C75.1154 49.0706 72.4409 48.6512 69.7578 48.2838C66.3479 47.8152 62.9236 47.4044 59.482 47.335C53.4493 47.2164 47.181 48.223 42.0187 51.5526C37.2413 54.6334 34.2163 59.5366 32.4869 64.8882C30.5967 70.7373 30.0078 77.0551 30.0537 83.179C30.1543 96.101 33.4838 108.887 38.2899 120.802C42.5271 131.303 48.1318 141.303 55.3999 149.987C59.0224 154.315 63.0586 158.298 67.4912 161.781C72.4179 165.651 77.8244 168.825 83.4291 171.59C86.3392 173.025 89.2953 174.367 92.2772 175.64C95.1757 176.875 98.1576 178.003 101.295 178.408C107.747 179.241 113.487 176.077 118.873 172.918C121.772 171.22 124.618 169.435 127.414 167.569C129.858 165.938 132.478 164.309 134.242 161.894C136.006 159.478 136.569 156.467 136.727 153.551C136.905 150.23 136.624 146.892 136.132 143.609C135.118 136.825 133.234 130.163 131.542 123.527C129.85 116.891 128.04 110.148 125.923 103.567C122.171 91.9065 117.368 80.3817 110.071 70.4856C108.344 68.1454 106.483 65.9064 104.486 63.7947C104.104 63.3897 103.495 64.003 103.877 64.408C112.021 73.0139 117.664 83.6592 121.898 94.6777C126.632 107.007 129.786 119.891 132.958 132.694C134.555 139.148 136.043 145.723 135.908 152.417C135.848 155.411 135.449 158.564 133.751 161.101C132.053 163.638 129.338 165.252 126.879 166.889C124.185 168.683 121.441 170.404 118.652 172.044C115.931 173.644 113.176 175.258 110.217 176.375C107.235 177.5 104.113 177.98 100.947 177.488C97.7813 176.997 94.7678 175.788 91.8405 174.515C86.1151 172.027 80.4559 169.334 75.1298 166.051C70.2375 163.033 65.7044 159.478 61.5992 155.443C53.7279 147.702 47.4797 138.405 42.6392 128.485C37.3419 117.635 33.4062 105.873 31.717 93.8822C30.8208 87.5182 30.6254 81.0326 31.3522 74.6425C31.99 69.0306 33.3085 63.2856 36.3709 58.4778C39.4332 53.6701 44.5697 50.4244 50.2261 49.0822C56.6438 47.5606 63.3229 48.2635 69.775 49.1574C79.8037 50.5488 90.5736 52.6142 98.7695 59.013C100.732 60.5433 102.501 62.3252 103.995 64.3212C104.325 64.7609 105.072 64.3299 104.739 63.8844L104.745 63.8815Z" fill="black"/>
<path d="M79.5078 50.6587C82.3202 50.6587 83.4923 52.082 85.6123 53.942C100.039 66.5891 108.973 84.3275 116.569 102.008C121.45 113.371 125.94 124.953 128.778 136.999C130.844 145.764 132.087 155.151 131.481 164.136C131.881 159.947 130.993 155.399 130.177 151.274C129.094 145.813 128.014 140.351 126.931 134.893C126.621 133.325 126.307 131.745 125.698 130.27C124.897 128.32 123.61 126.619 122.518 124.817C119.809 120.354 118.287 115.286 116.405 110.408C111.846 98.5858 105.112 87.7612 98.4219 77.0146C95.8852 72.9387 93.3486 68.8657 90.8091 64.7898C88.8327 61.6165 86.8505 58.4344 84.5667 55.4781C82.8057 53.1986 80.7258 50.9654 77.9795 50.1351L79.5078 50.6616V50.6587Z" fill="#F3E253"/>
<path d="M79.5078 51.0927C81.2975 51.11 82.6305 51.8708 83.9462 53.0308C85.3768 54.292 86.8046 55.562 88.172 56.8926C91.0016 59.6407 93.6216 62.6058 96.0461 65.7213C100.947 72.0188 105.046 78.9209 108.68 86.0255C112.455 93.402 115.776 101.019 118.91 108.687C122.297 116.969 125.36 125.405 127.609 134.077C129.873 142.793 131.361 151.798 131.191 160.829C131.171 161.931 131.122 163.033 131.05 164.136C131.013 164.697 131.863 164.685 131.912 164.136C132.294 159.915 131.487 155.689 130.671 151.567C129.798 147.149 128.922 142.735 128.046 138.318C127.623 136.189 127.281 134.019 126.707 131.928C126.164 129.946 125.199 128.208 124.093 126.492C122.987 124.777 121.929 123.015 121.053 121.146C120.177 119.278 119.41 117.293 118.683 115.329C117.256 111.464 115.822 107.62 114.104 103.874C112.386 100.128 110.39 96.3006 108.324 92.6239C104.11 85.1288 99.4704 77.8795 94.9258 70.584C92.6132 66.8697 90.3553 63.1149 87.9364 59.4701C86.7959 57.7518 85.6095 56.0595 84.3082 54.4598C83.1878 53.08 81.9353 51.7725 80.4357 50.8092C79.706 50.3405 78.9189 49.9732 78.0916 49.7128C77.5601 49.545 77.3418 50.3695 77.8617 50.5488C78.3817 50.7282 78.8787 50.8988 79.39 51.0753C79.9014 51.2518 80.1427 50.4186 79.6199 50.2393C79.097 50.0599 78.6029 49.8893 78.0916 49.7128L77.8617 50.5488C81.4814 51.6886 83.8916 55.1483 85.9772 58.1249C88.4478 61.6512 90.6569 65.3626 92.9321 69.0161C97.4279 76.2335 102.016 83.4047 106.27 90.7696C110.525 98.1346 114.104 105.338 116.963 113.131C118.344 116.903 119.683 120.727 121.674 124.233C122.665 125.98 123.886 127.591 124.808 129.379C125.73 131.167 126.173 133.293 126.578 135.335C127.439 139.689 128.304 144.043 129.166 148.396C129.996 152.585 130.999 156.808 131.134 161.095C131.165 162.108 131.139 163.123 131.048 164.133H131.909C132.51 155.018 131.295 145.845 129.215 136.984C127.126 128.086 124.13 119.434 120.749 110.958C117.603 103.072 114.233 95.2505 110.459 87.6483C106.684 80.0462 102.817 73.3466 97.9824 66.8553C95.6009 63.6588 93.0355 60.6011 90.2547 57.7518C88.8385 56.2996 87.3647 54.914 85.8451 53.5717C84.6443 52.513 83.4866 51.2923 81.9812 50.6761C81.1912 50.3521 80.3524 50.2335 79.5049 50.2248C78.9505 50.2191 78.9505 51.0869 79.5049 51.0927H79.5078Z" fill="black"/>
<path d="M60.7571 47.9135C72.6445 56.1318 81.8487 66.5515 89.9671 78.5506C98.0854 90.5498 104.549 103.602 110.501 116.828C118.074 133.652 124.98 150.687 123.753 169.117C121.251 145.081 110.783 123.617 100.384 101.837C97.6516 96.1183 94.9024 90.3762 91.3632 85.1259C88.3038 80.5871 84.687 76.4621 81.0817 72.3515C73.8051 64.0551 66.5457 56.1202 59.269 47.8238L60.76 47.9135H60.7571Z" fill="#F3E253"/>
<path d="M60.539 48.2896C67.5456 53.1465 73.8427 58.958 79.4273 65.4118C85.2503 72.1374 90.3408 79.4937 94.9027 87.1334C99.7547 95.2621 104.003 103.738 107.976 112.329C111.949 120.921 115.819 129.532 118.772 138.503C121.725 147.473 123.575 156.4 123.458 165.669C123.443 166.82 123.394 167.971 123.32 169.123H124.182C123.257 160.329 121.26 151.691 118.54 143.29C115.81 134.855 112.395 126.663 108.738 118.598C106.891 114.525 104.98 110.481 103.056 106.443C101.131 102.404 99.1888 98.23 97.1204 94.1946C95.0521 90.1593 92.7395 86.1701 90.0277 82.4877C87.2986 78.7792 84.2592 75.3194 81.2256 71.8626C74.8567 64.6047 68.3586 57.4625 61.961 50.2306C61.1624 49.3281 60.3667 48.4226 59.5709 47.5172L59.2664 48.2578L60.7574 48.3474C61.3118 48.3821 61.3089 47.5143 60.7574 47.4796L59.2664 47.3899C58.87 47.3668 58.7321 47.8672 58.9619 48.1305C65.279 55.3276 71.7197 62.4149 78.0685 69.586C81.1365 73.0544 84.2333 76.5084 87.1291 80.1243C89.9961 83.7084 92.5241 87.5066 94.7361 91.5333C96.9481 95.56 98.8326 99.5896 100.78 103.666C102.696 107.675 104.61 111.681 106.474 115.714C110.183 123.73 113.705 131.847 116.6 140.201C119.473 148.483 121.717 157.005 122.912 165.703C123.067 166.84 123.202 167.98 123.323 169.12C123.38 169.669 124.147 169.687 124.184 169.12C124.791 159.773 123.291 150.459 120.628 141.52C117.936 132.492 114.153 123.837 110.272 115.274C106.316 106.547 102.128 97.9147 97.356 89.6067C92.8458 81.7529 87.807 74.1768 82.0558 67.185C76.6235 60.5809 70.5017 54.5553 63.6473 49.4554C62.7683 48.8016 61.8777 48.1623 60.9757 47.5404C60.5189 47.2222 60.0851 47.9743 60.5419 48.2896H60.539Z" fill="black"/>
<path d="M43.6562 51.4166C54.5582 60.928 64.472 72.6986 72.1192 85.013C76.7788 92.5168 80.7518 100.426 84.6328 108.366C90.1858 119.729 95.5952 131.265 98.7179 143.533C100.177 149.267 101.352 155.538 105.658 159.571C106.917 160.748 108.396 161.677 109.603 162.909C112.734 166.103 113.619 170.829 114.357 175.258C113.797 171.272 109.674 169.039 106.767 166.276C103.992 163.638 102.148 160.178 100.352 156.785C97.8015 151.96 95.2419 147.123 93.1965 142.058C91.5446 137.971 90.2318 133.756 88.7552 129.602C81.2258 108.447 69.3097 88.8864 53.9894 72.5453C52.7311 71.2031 51.4298 69.8521 50.6312 68.1917C49.5395 65.9238 49.4936 63.3058 48.8903 60.8586C48.287 58.4113 44.4634 52.7155 42.0015 52.2526L43.659 51.4166H43.6562Z" fill="#F3E253"/>
<path d="M43.3514 51.7233C50.5103 57.9803 57.0314 64.9721 62.8688 72.4874C68.9101 80.266 74.0523 88.6463 78.6257 97.3738C80.9612 101.829 83.179 106.347 85.3738 110.874C87.5455 115.355 89.6714 119.862 91.6277 124.444C93.5927 129.052 95.3795 133.739 96.859 138.529C98.1603 142.749 98.9733 147.115 100.358 151.309C100.993 153.227 101.774 155.119 102.857 156.828C103.94 158.538 105.437 160.028 107.089 161.327C108.873 162.73 110.39 164.199 111.435 166.247C112.398 168.13 112.949 170.202 113.374 172.267C113.587 173.297 113.765 174.335 113.937 175.371C114.029 175.924 114.854 175.686 114.768 175.14C114.13 171.015 110.119 168.778 107.319 166.201C103.57 162.75 101.386 157.864 99.0595 153.412C96.4798 148.48 94.0868 143.478 92.1965 138.234C90.4068 133.27 88.8067 128.245 86.836 123.345C83.1589 114.204 78.6717 105.401 73.4318 97.07C68.2322 88.8026 62.3 80.995 55.7185 73.7892C54.0581 71.9696 52.0701 70.2311 50.9929 67.9719C49.9156 65.7126 49.9328 63.0715 49.2721 60.6532C48.8642 59.1663 48.0052 57.7662 47.152 56.5021C46.1954 55.0875 45.098 53.6875 43.7335 52.6547C43.248 52.2874 42.7079 51.9634 42.1075 51.8361L42.2109 52.6287C42.7625 52.351 43.3169 52.0733 43.8685 51.7927C44.3655 51.5439 43.9288 50.7947 43.4347 51.0435C42.8831 51.3212 42.3287 51.5989 41.7771 51.8795C41.4525 52.0444 41.5243 52.5969 41.8806 52.6721C43.3083 52.9729 44.4718 54.4164 45.3451 55.4925C46.4166 56.8174 47.3761 58.2927 48.0684 59.8548C48.9188 61.764 48.9389 63.9596 49.4157 65.9759C49.9903 68.3971 51.2888 70.2774 52.9521 72.0767C59.591 79.2594 65.7271 86.8123 71.0934 95.0162C76.4597 103.22 81.0302 111.78 84.8394 120.747C86.8503 125.48 88.551 130.314 90.2172 135.176C91.9897 140.351 94.0236 145.37 96.474 150.262C97.6892 152.686 98.956 155.081 100.226 157.476C101.375 159.646 102.553 161.813 104.018 163.786C105.354 165.585 106.934 167.063 108.654 168.478C110.191 169.739 111.835 171.015 112.923 172.71C113.446 173.525 113.791 174.411 113.937 175.371L114.768 175.14C114.09 171.075 113.308 166.765 110.671 163.467C109.258 161.7 107.281 160.575 105.687 159.001C104.199 157.531 103.09 155.732 102.237 153.826C100.487 149.918 99.7575 145.628 98.6286 141.517C97.31 136.724 95.6524 132.029 93.7909 127.424C90.0276 118.1 85.5576 109.043 80.9986 100.093C76.4396 91.1428 71.5358 82.6786 65.6266 74.7062C59.9443 67.0433 53.5726 59.8837 46.5545 53.4358C45.6984 52.649 44.8337 51.8737 43.9575 51.11C43.541 50.7455 42.9291 51.3559 43.3485 51.7233H43.3514Z" fill="black"/>
<path d="M105.805 177.7C96.1753 169.612 86.4799 161.46 78.5569 151.674C72.3202 143.973 67.2699 135.37 61.194 127.539C55.6152 120.351 49.0481 113.591 46.0863 104.97C44.7821 101.178 44.1961 97.0613 42.053 93.6768C40.6109 91.3973 38.5425 89.5865 36.9683 87.3967C34.5408 84.0208 33.8111 79.8119 30.812 76.9394C31.8577 85.123 34.3225 93.0115 38.9074 99.85C40.0881 101.612 41.3779 103.31 42.3345 105.204C43.6589 107.834 44.2966 110.75 45.2705 113.53C46.8993 118.17 49.4733 122.413 52.2369 126.472C56.3564 132.521 60.9355 138.234 65.5089 143.941C69.1601 148.5 72.8315 153.077 77.0946 157.06C80.3466 160.097 83.9605 162.811 86.6091 166.395C87.8789 168.113 88.9648 170.069 90.766 171.208C92.8545 172.533 95.5548 172.527 97.6979 173.763C99.0107 174.518 100.033 175.692 101.254 176.589C102.475 177.486 104.159 178.307 105.561 177.734L105.805 177.7Z" fill="#F3E253"/>
<path d="M106.11 177.393C99.5166 171.856 92.9122 166.305 86.8335 160.19C83.82 157.158 80.9386 153.988 78.2756 150.635C75.6126 147.282 73.0013 143.542 70.502 139.897C68.0171 136.27 65.5551 132.625 62.9237 129.104C60.525 125.893 57.9366 122.836 55.4431 119.703C52.9496 116.57 50.5968 113.388 48.718 109.879C47.77 108.112 46.9628 106.272 46.3365 104.363C45.7103 102.453 45.2478 100.481 44.6474 98.5569C44.047 96.6332 43.3316 94.805 42.2343 93.159C41.1369 91.513 39.6632 90.0204 38.3589 88.467C37.0547 86.9136 36.1355 85.3081 35.2995 83.5262C34.5296 81.8889 33.8229 80.2082 32.8203 78.6953C32.3233 77.9489 31.7603 77.2518 31.1168 76.6241C30.8755 76.3897 30.3297 76.5373 30.3814 76.9307C31.4644 85.3197 34.0556 93.5004 38.8416 100.512C40.0711 102.315 41.3696 104.082 42.2802 106.078C43.1909 108.074 43.7855 110.348 44.475 112.5C45.8223 116.689 47.8878 120.565 50.2549 124.253C55.2075 131.962 61.0421 139.084 66.7789 146.2C69.6057 149.707 72.4928 153.175 75.7131 156.325C78.7094 159.261 82.1021 161.79 84.8858 164.943C86.2244 166.456 87.2414 168.203 88.5341 169.75C89.1518 170.488 89.8585 171.162 90.6829 171.657C91.5074 172.151 92.4037 172.458 93.3115 172.715C94.2193 172.973 95.196 173.193 96.1153 173.517C97.0949 173.861 97.9567 174.376 98.7553 175.038C100.243 176.276 101.663 177.781 103.613 178.235C104.056 178.339 104.512 178.379 104.966 178.324C105.294 178.284 105.592 178.16 105.92 178.113C106.466 178.038 106.233 177.202 105.69 177.277C105.34 177.326 105.021 177.468 104.662 177.483C104.17 177.506 103.682 177.379 103.222 177.205C102.26 176.838 101.413 176.201 100.637 175.533C99.9073 174.905 99.2063 174.237 98.4077 173.693C97.6091 173.149 96.7703 172.805 95.8826 172.527C94.0239 171.946 91.9872 171.689 90.4215 170.427C88.9392 169.235 87.9998 167.526 86.8737 166.025C84.406 162.738 81.1799 160.184 78.1607 157.445C74.9116 154.497 72.0015 151.211 69.2121 147.829C66.4227 144.447 63.55 140.834 60.7749 137.297C57.9998 133.759 55.1501 129.984 52.5531 126.168C50.1257 122.599 47.8303 118.881 46.2245 114.852C45.4173 112.83 44.8542 110.727 44.1734 108.658C43.4925 106.59 42.6393 104.672 41.4701 102.856C40.3009 101.039 39.0455 99.3698 37.9596 97.5386C36.8737 95.7075 35.9774 93.9111 35.1731 92.0077C33.5529 88.1777 32.4354 84.1365 31.7114 80.0433C31.5276 79.0106 31.3696 77.9721 31.2374 76.9307L30.502 77.2373C33.1909 79.8524 34.0814 83.6303 36.0177 86.7458C37.0892 88.4728 38.5112 89.9307 39.8298 91.4639C41.1484 92.997 42.3061 94.7327 43.0788 96.6824C43.8516 98.6321 44.3113 100.507 44.8571 102.442C45.4029 104.377 46.0148 106.197 46.8249 107.993C48.448 111.597 50.6629 114.889 53.0444 118.022C55.446 121.178 58.0228 124.192 60.4704 127.311C63.165 130.745 65.6499 134.337 68.1176 137.939C70.5853 141.54 73.0673 145.205 75.7102 148.717C78.3014 152.162 81.088 155.446 84.0527 158.567C89.9676 164.798 96.483 170.41 103.041 175.935C103.86 176.624 104.676 177.312 105.495 177.998C105.917 178.353 106.532 177.743 106.104 177.384L106.11 177.393Z" fill="black"/>
<path d="M101.929 77.139C100.775 75.2818 98.7063 74.1942 96.6236 73.552C94.3943 72.8635 91.9496 72.5916 89.7491 73.3668C87.5486 74.1421 85.6756 76.1468 85.5607 78.4928C85.5492 78.7416 85.5492 79.0106 85.4027 79.2102C85.3021 79.349 85.1441 79.43 84.9919 79.5081C84.5954 79.7106 84.176 79.9189 83.9117 80.2805C83.6474 80.6421 83.5928 81.2033 83.9175 81.5099C84.2708 81.8397 84.831 81.7124 85.2906 81.5736C92.0961 79.5313 99.3412 79.754 106.44 79.9941C106.67 79.4734 106.038 79.0048 105.515 78.7849C104.383 78.3076 103.251 77.8303 102.119 77.353L101.927 77.1419L101.929 77.139Z" fill="#FFDC00"/>
<path d="M102.3 76.9191C100.651 74.3214 97.4307 73.0573 94.5178 72.6147C91.4497 72.149 88.1805 72.8288 86.2414 75.4496C85.8421 75.9906 85.529 76.6067 85.3394 77.2518C85.2388 77.5873 85.1785 77.9345 85.1469 78.2816C85.1325 78.4494 85.1526 78.6403 85.1096 78.8052C85.0607 78.9903 84.9372 79.0482 84.7763 79.1321C84.1501 79.4619 83.4635 79.8466 83.2997 80.6045C83.1475 81.3074 83.5209 81.9959 84.2477 82.1232C84.9745 82.2505 85.8076 81.8628 86.5086 81.6777C87.3532 81.455 88.2064 81.264 89.0624 81.102C90.8292 80.7694 92.616 80.5611 94.4115 80.4367C98.4161 80.159 102.432 80.2892 106.44 80.4251C106.638 80.4309 106.793 80.2834 106.856 80.1069C107.232 79.0337 105.925 78.4899 105.173 78.1717C104.584 77.9229 103.998 77.677 103.409 77.4282C103.104 77.301 102.803 77.1563 102.495 77.0435C102.188 76.9307 102.475 77.0811 102.375 76.9914C102.323 76.9452 102.277 76.8873 102.231 76.8352C101.855 76.4245 101.246 77.0377 101.622 77.4485C101.869 77.7175 102.122 77.8217 102.464 77.9634C102.964 78.1746 103.463 78.3858 103.966 78.5969C104.44 78.7965 104.923 78.9788 105.388 79.1986C105.627 79.3114 106.141 79.5515 106.026 79.8784L106.442 79.5602C99.9128 79.3404 93.2652 79.1263 86.8677 80.6942C86.477 80.7896 86.0863 80.8938 85.6956 81.0037C85.3623 81.0991 85.0148 81.238 84.67 81.2756C84.3942 81.3074 84.1156 81.2438 84.1242 80.9169C84.1328 80.59 84.4086 80.347 84.6672 80.1821C84.9257 80.0173 85.2245 79.9073 85.4744 79.728C85.7846 79.5052 85.9283 79.1928 85.9685 78.8168C86.0374 78.1861 86.0863 77.6018 86.3333 77.0088C87.4652 74.3099 90.4442 73.2135 93.1704 73.3466C94.8395 73.4276 96.5488 73.8673 98.0713 74.5586C99.4474 75.1806 100.726 76.0658 101.55 77.3617C101.849 77.8303 102.593 77.3964 102.294 76.9249L102.3 76.9191Z" fill="black"/>
<path d="M103.863 80.0028C104.995 80.0954 105.02 81.993 105.095 83.1328C105.13 83.6361 105.104 84.1481 104.949 84.6283C104.73 85.3081 104.259 85.8867 103.705 86.3321C102.429 87.3562 100.734 87.7178 99.1055 87.683C97.4767 87.6483 95.8766 87.2578 94.2822 86.9223C92.5729 86.5636 90.8206 86.2569 89.2635 85.4585C87.7065 84.6601 86.3362 83.2687 86.0547 81.5302C86.0547 81.5302 92.3977 79.0511 103.863 80.0028Z" fill="white"/>
<path d="M103.863 80.4367C104.357 80.4946 104.475 81.2988 104.538 81.6719C104.647 82.3257 104.702 83.0402 104.673 83.6997C104.596 85.5598 102.826 86.6561 101.197 87.0409C99.3068 87.4892 97.3562 87.1305 95.489 86.7342C93.6217 86.3379 91.6855 86.0689 89.9388 85.2994C88.2956 84.5762 86.7932 83.2629 86.4657 81.4116L86.1641 81.9467C87.0604 81.5967 88.017 81.3769 88.9535 81.1715C91.6079 80.5929 94.3255 80.321 97.0345 80.24C99.3097 80.1706 101.588 80.2458 103.857 80.4338C104.409 80.4801 104.406 79.6123 103.857 79.566C100.183 79.2652 96.4772 79.2536 92.8116 79.673C90.8035 79.9016 88.7897 80.24 86.8449 80.8128C86.5404 80.9025 86.2301 80.995 85.9342 81.1107C85.7016 81.2004 85.5895 81.3913 85.6326 81.6459C85.9544 83.4799 87.3534 84.9407 88.9449 85.7825C90.8868 86.8123 93.1333 87.1219 95.2591 87.5731C97.3706 88.0215 99.5826 88.4034 101.706 87.8046C103.581 87.2781 105.377 85.9127 105.523 83.8241C105.584 82.9621 105.498 81.9815 105.305 81.1397C105.124 80.3528 104.708 79.6673 103.857 79.566C103.309 79.4995 103.311 80.3673 103.857 80.4338L103.863 80.4367Z" fill="black"/>
<path d="M103.107 88.6637C101.674 89.9741 99.6141 90.2952 97.6779 90.3502C95.0896 90.4254 92.3461 90.0754 90.2979 88.4843" fill="#FFB500"/>
<path d="M102.803 88.3571C101.168 89.815 98.7668 89.9597 96.6898 89.9249C94.5094 89.8873 92.2887 89.465 90.5191 88.1112C90.0767 87.7727 89.6487 88.5277 90.0854 88.8604C91.9986 90.3241 94.4548 90.7667 96.8104 90.7957C99.1661 90.8246 101.625 90.5729 103.418 88.9732C103.834 88.603 103.222 87.9897 102.809 88.36L102.803 88.3571Z" fill="black"/>
<path d="M101.481 91.3597C100.111 92.0135 98.6545 92.5342 97.1435 92.6297C95.6324 92.7251 94.0495 92.3577 92.8774 91.3887" fill="#FFB500"/>
<path d="M101.266 90.9837C98.7954 92.1524 95.5406 92.9768 93.185 91.082C92.7569 90.7378 92.1422 91.3482 92.5759 91.6953C95.2763 93.8678 98.8299 93.0925 101.703 91.7329C102.205 91.4957 101.766 90.7465 101.269 90.9837H101.266Z" fill="black"/>
<path d="M103.676 86.0457C103.512 85.5308 103.087 85.1432 102.665 84.799C102.309 84.5068 101.938 84.2262 101.545 83.9832C100.887 83.5782 100.169 83.2832 99.4504 82.9881C98.939 82.7798 98.4277 82.5687 97.8905 82.4356C97.2355 82.2736 96.5576 82.2302 95.8825 82.2157C94.9689 82.1984 94.0353 82.236 93.1821 82.5542C91.8003 83.072 90.7518 84.3622 90.5449 85.797C90.5449 85.797 94.8598 87.4285 98.4823 87.5153C102.105 87.5991 103.676 86.0457 103.676 86.0457Z" fill="black"/>
<path d="M104.09 85.9301C103.719 84.8973 102.656 84.1597 101.76 83.6072C100.763 82.991 99.6024 82.5253 98.4936 82.1579C97.3847 81.7905 96.046 81.7211 94.8366 81.7963C93.7248 81.8657 92.6677 82.1608 91.7886 82.8666C90.9095 83.5725 90.3063 84.5791 90.131 85.6813C90.0908 85.9301 90.1942 86.1239 90.4327 86.2164C92.073 86.8355 93.7966 87.2983 95.5174 87.6136C97.919 88.0562 100.51 88.2009 102.777 87.1306C103.199 86.931 103.644 86.6822 103.983 86.3495C104.38 85.959 103.771 85.3457 103.374 85.7362C103.357 85.7507 103.343 85.7681 103.326 85.7825C103.305 85.7999 103.285 85.8143 103.268 85.8317C103.176 85.9098 103.294 85.8143 103.236 85.8548C103.024 86.0111 102.797 86.1499 102.564 86.2714C101.72 86.7111 100.763 86.9454 99.8208 87.0351C97.3387 87.2723 94.7964 86.6735 92.4321 85.9648C91.8374 85.7854 91.2457 85.5974 90.6654 85.3804L90.967 85.9156C91.1365 84.8482 91.7455 83.8907 92.659 83.3063C93.7708 82.5947 95.1612 82.6005 96.4309 82.6699C97.8099 82.7451 99.0652 83.2456 100.309 83.8183C100.892 84.0845 101.444 84.3998 101.958 84.7845C102.441 85.1461 103.055 85.5685 103.268 86.1615C103.455 86.6822 104.288 86.4565 104.098 85.9301H104.09Z" fill="black"/>
<path d="M94.6223 84.1044C94.7028 83.6775 94.2108 83.2249 93.5234 83.0935C92.836 82.962 92.2135 83.2016 92.1331 83.6285C92.0526 84.0555 92.5445 84.5081 93.2319 84.6395C93.9193 84.7709 94.5418 84.5314 94.6223 84.1044Z" fill="white" stroke="black" stroke-width="0.285395" stroke-miterlimit="10"/>
<path d="M100.781 85.6263C101.477 85.3393 101.942 84.8633 101.82 84.5632C101.698 84.2631 101.035 84.2524 100.339 84.5394C99.6433 84.8264 99.178 85.3024 99.3001 85.6025C99.4222 85.9026 100.085 85.9133 100.781 85.6263Z" fill="white" stroke="black" stroke-width="0.285395" stroke-miterlimit="10"/>
<path d="M100.433 86.8044C100.881 86.7792 101.234 86.5725 101.221 86.3428C101.208 86.1131 100.835 85.9474 100.386 85.9726C99.9381 85.9979 99.585 86.2045 99.5978 86.4342C99.6106 86.6639 99.9843 86.8297 100.433 86.8044Z" fill="white" stroke="black" stroke-width="0.285395" stroke-miterlimit="10"/>
<path d="M96.7932 77.1882C94.6358 76.7398 92.3893 76.8931 90.3209 77.6568C89.8038 77.8477 90.0279 78.6866 90.5508 78.4928C92.4755 77.7812 94.5553 77.6076 96.5634 78.0242C97.1035 78.137 97.3361 77.301 96.7932 77.1882Z" fill="black"/>
<path d="M76.6009 78.8862C75.446 77.0291 73.3777 75.9414 71.2949 75.2992C69.0657 74.6107 66.621 74.3388 64.4205 75.114C62.22 75.8893 60.347 77.894 60.232 80.24C60.2206 80.4888 60.2206 80.7578 60.074 80.9574C59.9735 81.0963 59.8155 81.1773 59.6632 81.2554C59.2668 81.4578 58.8474 81.6661 58.5831 82.0277C58.3188 82.3893 58.2642 82.9505 58.5888 83.2571C58.9422 83.5869 59.5024 83.4596 59.962 83.3208C66.7675 81.2785 74.0125 81.5012 81.1111 81.7413C81.3409 81.2206 80.7089 80.752 80.1861 80.5322C79.0542 80.0549 77.9223 79.5776 76.7905 79.1003L76.598 78.8891L76.6009 78.8862Z" fill="#FFDC00"/>
<path d="M76.9743 78.6663C75.3254 76.0687 72.105 74.8045 69.1921 74.3619C66.124 73.8962 62.8548 74.576 60.9157 77.1968C60.5164 77.7378 60.2033 78.3539 60.0137 78.999C59.9131 79.3346 59.8528 79.6817 59.8212 80.0288C59.8068 80.1966 59.827 80.3875 59.7839 80.5524C59.735 80.7376 59.6115 80.7954 59.4506 80.8793C58.8244 81.2091 58.1378 81.5938 57.974 82.3517C57.8218 83.0546 58.1952 83.7431 58.922 83.8704C59.6488 83.9977 60.4819 83.6101 61.1829 83.4249C62.0275 83.2022 62.8807 83.0113 63.7367 82.8493C65.5035 82.5166 67.2903 82.3083 69.0858 82.1839C73.0904 81.9062 77.1065 82.0364 81.1139 82.1724C81.3121 82.1781 81.4673 82.0306 81.5305 81.8542C81.9068 80.7809 80.5997 80.2371 79.847 79.9189C79.2581 79.6701 78.6721 79.4242 78.0832 79.1755C77.7787 79.0482 77.477 78.9036 77.1697 78.7907C76.8623 78.6779 77.1495 78.8283 77.049 78.7387C76.9973 78.6924 76.9513 78.6345 76.9054 78.5825C76.529 78.1717 75.92 78.7849 76.2963 79.1957C76.5434 79.4647 76.7962 79.5689 77.1381 79.7106C77.6379 79.9218 78.1378 80.133 78.6405 80.3441C79.1145 80.5437 79.5971 80.726 80.0625 80.9458C80.3009 81.0587 80.8152 81.2988 80.7002 81.6256L81.1168 81.3074C74.5871 81.0876 67.9396 80.8735 61.542 82.4414C61.1513 82.5368 60.7606 82.641 60.3699 82.7509C60.0367 82.8464 59.6891 82.9852 59.3443 83.0228C59.0686 83.0546 58.7899 82.991 58.7985 82.6641C58.8071 82.3372 59.0829 82.0943 59.3415 81.9294C59.6 81.7645 59.8988 81.6546 60.1487 81.4752C60.459 81.2525 60.6026 80.94 60.6428 80.564C60.7118 79.9334 60.7606 79.349 61.0077 78.756C62.1395 76.0571 65.1185 74.9607 67.8448 75.0938C69.5138 75.1748 71.2231 75.6145 72.7456 76.3059C74.1217 76.9278 75.4 77.813 76.2245 79.1089C76.5233 79.5776 77.2673 79.1436 76.9686 78.6721L76.9743 78.6663Z" fill="black"/>
<path d="M78.5341 81.75C79.666 81.8426 79.6919 83.7402 79.7666 84.88C79.801 85.3833 79.7752 85.8953 79.62 86.3755C79.4017 87.0553 78.9306 87.6339 78.3762 88.0794C77.1007 89.1034 75.4057 89.465 73.7769 89.4303C72.1481 89.3956 70.548 89.005 68.9536 88.6695C67.2443 88.3108 65.4919 88.0041 63.9349 87.2057C62.3779 86.4074 61.0076 85.0159 60.7261 83.2774C60.7261 83.2774 67.0691 80.7983 78.5341 81.75Z" fill="white"/>
<path d="M78.5339 82.1839C79.028 82.2418 79.1458 83.046 79.209 83.4191C79.3181 84.0729 79.3727 84.7874 79.344 85.447C79.2664 87.307 77.4968 88.4033 75.868 88.7881C73.9777 89.2365 72.0271 88.8778 70.1599 88.4814C68.2926 88.0851 66.3564 87.8161 64.6097 87.0466C62.9665 86.3235 61.4641 85.0101 61.1366 83.1588L60.835 83.6939C61.7313 83.3439 62.6879 83.1241 63.6244 82.9187C66.2788 82.3401 68.9964 82.0682 71.7054 81.9872C73.9806 81.9178 76.2587 81.993 78.5281 82.181C79.0797 82.2273 79.0768 81.3595 78.5281 81.3132C74.8539 81.0124 71.1481 81.0008 67.4825 81.4202C65.4744 81.6488 63.4606 81.9872 61.5158 82.56C61.2113 82.6497 60.901 82.7422 60.6051 82.8579C60.3725 82.9476 60.2604 83.1385 60.3035 83.3931C60.6253 85.2271 62.0243 86.6879 63.6158 87.5297C65.5577 88.5595 67.8042 88.8691 69.93 89.3203C72.0559 89.7716 74.2535 90.1506 76.3765 89.5518C78.2523 89.0253 80.0478 87.6599 80.1943 85.5713C80.2546 84.7093 80.1685 83.7287 79.976 82.8869C79.795 82.1 79.3785 81.4145 78.5281 81.3132C77.9794 81.2467 77.9823 82.1145 78.5281 82.181L78.5339 82.1839Z" fill="black"/>
<path d="M77.7812 90.4138C76.3477 91.7242 74.288 92.0453 72.3517 92.1003C69.7634 92.1755 67.0199 91.8254 64.9717 90.2344" fill="#FFB500"/>
<path d="M77.4768 90.1043C75.8422 91.5622 73.4406 91.7069 71.3636 91.6722C69.2866 91.6374 66.9626 91.2122 65.193 89.8584C64.7506 89.5199 64.3225 90.2749 64.7592 90.6076C66.6724 92.0713 69.1286 92.5139 71.4843 92.5429C73.8399 92.5718 76.299 92.3201 78.0915 90.7204C78.5081 90.3502 77.8962 89.7369 77.4825 90.1072L77.4768 90.1043Z" fill="black"/>
<path d="M76.1556 93.107C74.7853 93.7607 73.3288 94.2814 71.8178 94.3769C70.3067 94.4723 68.7238 94.105 67.5518 93.1359" fill="#FFB500"/>
<path d="M75.9369 92.7309C73.4663 93.8996 70.2115 94.724 67.8559 92.8293C67.4278 92.485 66.8131 93.0954 67.2468 93.4425C69.9472 95.615 73.5008 94.8397 76.3735 93.4801C76.8763 93.2429 76.4367 92.4937 75.9397 92.7309H75.9369Z" fill="black"/>
<path d="M78.3471 87.793C78.1833 87.2781 77.7582 86.8904 77.3359 86.5462C76.9797 86.254 76.6091 85.9734 76.2155 85.7305C75.5577 85.3255 74.8395 85.0304 74.1213 84.7353C73.61 84.5271 73.0986 84.3159 72.5614 84.1828C71.9064 84.0208 71.2285 83.9774 70.5534 83.963C69.6398 83.9456 68.7062 83.9832 67.853 84.3014C66.4712 84.8192 65.4227 86.1094 65.2158 87.5442C65.2158 87.5442 69.5307 89.1757 73.1532 89.2625C76.7757 89.3464 78.3471 87.793 78.3471 87.793Z" fill="black"/>
<path d="M78.7635 87.6773C78.3929 86.6446 77.33 85.9069 76.4337 85.3544C75.4368 84.7382 74.2763 84.2725 73.1674 83.9051C72.0585 83.5377 70.7198 83.4683 69.5104 83.5435C68.3986 83.613 67.3415 83.908 66.4624 84.6138C65.5834 85.3197 64.9801 86.3264 64.8049 87.4285C64.7646 87.6773 64.8681 87.8711 65.1065 87.9636C66.7468 88.5827 68.4705 89.0455 70.1912 89.3608C72.5928 89.8034 75.184 89.9481 77.4506 88.8778C77.8729 88.6782 78.3182 88.4294 78.6572 88.0967C79.0536 87.7062 78.4446 87.0929 78.0482 87.4835C78.0309 87.4979 78.0166 87.5153 77.9993 87.5297C77.9792 87.5471 77.9591 87.5616 77.9419 87.5789C77.8499 87.657 77.9677 87.5616 77.9103 87.6021C77.6977 87.7583 77.4707 87.8971 77.238 88.0186C76.3935 88.4583 75.4368 88.6926 74.4946 88.7823C72.0125 89.0195 69.4702 88.4207 67.1059 87.712C66.5113 87.5326 65.9195 87.3446 65.3392 87.1276L65.6408 87.6628C65.8103 86.5954 66.4193 85.6379 67.3329 85.0535C68.4446 84.3419 69.835 84.3477 71.1048 84.4171C72.4837 84.4923 73.7391 84.9928 74.983 85.5656C75.5661 85.8317 76.1177 86.147 76.6319 86.5317C77.1145 86.8933 77.7293 87.3157 77.9419 87.9087C78.1286 88.4294 78.9617 88.2037 78.7721 87.6773H78.7635Z" fill="black"/>
<path d="M69.2957 85.8543C69.3762 85.4274 68.8842 84.9748 68.1968 84.8434C67.5094 84.7119 66.8869 84.9515 66.8064 85.3784C66.7259 85.8053 67.2179 86.258 67.9053 86.3894C68.5927 86.5208 69.2152 86.2812 69.2957 85.8543Z" fill="white" stroke="black" stroke-width="0.285395" stroke-miterlimit="10"/>
<path d="M75.4516 87.3745C76.1476 87.0875 76.6128 86.6115 76.4907 86.3114C76.3687 86.0113 75.7056 86.0006 75.0096 86.2876C74.3137 86.5746 73.8485 87.0506 73.9705 87.3507C74.0926 87.6508 74.7557 87.6615 75.4516 87.3745Z" fill="white" stroke="black" stroke-width="0.285395" stroke-miterlimit="10"/>
<path d="M75.102 88.5494C75.5503 88.5242 75.9034 88.3175 75.8907 88.0878C75.8779 87.8581 75.5042 87.6924 75.0559 87.7176C74.6076 87.7428 74.2545 87.9495 74.2672 88.1792C74.28 88.4089 74.6537 88.5747 75.102 88.5494Z" fill="white" stroke="black" stroke-width="0.285395" stroke-miterlimit="10"/>
<path d="M71.4641 78.9354C69.3067 78.487 67.0602 78.6403 64.9918 79.404C64.4747 79.5949 64.6988 80.4338 65.2216 80.24C67.1464 79.5284 69.2262 79.3548 71.2343 79.7714C71.7744 79.8842 72.007 79.0482 71.4641 78.9354Z" fill="black"/>
<path d="M72.2515 104.247L99.146 103.289C101.079 103.22 103.062 103.142 104.854 102.497C105.73 102.182 106.638 101.612 106.719 100.799C106.825 99.7285 105.4 98.9821 104.159 99.0371C102.918 99.0949 101.786 99.659 100.594 99.9686C99.3184 100.298 97.9739 100.339 96.6467 100.35C88.4163 100.426 80.0538 99.5751 72.0389 101.262C70.9616 101.487 69.8728 101.771 68.9823 102.346C68.0917 102.922 67.4368 103.848 67.5431 104.797C67.6321 105.572 68.2095 106.249 68.9248 106.717C70.6312 107.843 72.9524 107.915 75.1098 107.918C79.9332 107.924 84.7565 107.814 89.5741 107.585C92.2055 107.461 94.8628 107.299 97.3965 106.648C98.2612 106.425 99.1719 106.104 99.6459 105.439C100.12 104.773 99.4764 103.486 98.5944 103.33" fill="#EF7800"/>
<path d="M72.251 104.681C80.7859 104.377 89.3208 104.073 97.8586 103.77C99.812 103.7 101.8 103.703 103.719 103.275C105.032 102.983 107.416 102.231 107.129 100.437C106.882 98.8867 104.865 98.4788 103.595 98.6639C102.645 98.8028 101.76 99.1759 100.843 99.4508C99.8781 99.74 98.8841 99.8528 97.8787 99.8933C93.7821 100.061 89.6655 99.8066 85.569 99.7747C81.4725 99.7429 77.4162 99.8702 73.4001 100.562C71.6132 100.868 69.5248 101.166 68.1401 102.456C67.5713 102.986 67.1433 103.703 67.1002 104.496C67.0542 105.346 67.5397 106.133 68.1545 106.677C69.4558 107.825 71.2484 108.172 72.9232 108.294C74.9313 108.441 76.9651 108.36 78.9732 108.337C83.1846 108.288 87.4104 108.193 91.6132 107.915C93.6098 107.782 95.6178 107.568 97.5598 107.059C98.8611 106.717 100.749 105.884 100.091 104.201C99.8522 103.593 99.3552 103.058 98.7031 102.919C98.1631 102.803 97.9304 103.639 98.4733 103.755C98.9732 103.862 99.4156 104.426 99.3667 104.953C99.3093 105.569 98.3555 105.904 97.8729 106.064C96.1292 106.633 94.2504 106.839 92.432 106.986C88.5796 107.296 84.6986 107.374 80.8376 107.443C78.887 107.478 76.9393 107.495 74.9887 107.49C73.3685 107.484 71.6822 107.461 70.151 106.871C69.43 106.593 68.6716 106.147 68.2464 105.476C67.8212 104.805 67.916 104.131 68.3498 103.521C69.3495 102.115 71.3949 101.82 72.9577 101.525C80.4009 100.119 88.0194 100.796 95.5403 100.796C97.4133 100.796 99.3265 100.822 101.136 100.272C102.578 99.8326 104.288 98.9706 105.727 99.876C106.198 100.174 106.48 100.68 106.118 101.189C105.675 101.811 104.816 102.086 104.121 102.283C102.366 102.783 100.527 102.812 98.7175 102.876C90.8491 103.156 82.9807 103.434 75.1151 103.715L72.2539 103.816C71.6994 103.836 71.6994 104.704 72.2539 104.684L72.251 104.681Z" fill="black"/>
<path d="M17.2899 154.72C18.5366 154.158 19.025 152.669 19.3812 151.341C19.9328 149.278 20.4843 147.216 21.0359 145.15C19.4616 145.252 18.1861 146.467 17.2583 147.748C16.3304 149.03 15.5662 150.479 14.3281 151.462C13.2738 149.961 13.1244 147.98 12.1735 146.409C11.0129 144.488 8.85551 143.458 6.82161 142.535C7.10027 143.47 7.37605 144.41 7.51107 145.376C7.72939 146.97 7.54841 148.593 7.65758 150.198C7.76674 151.804 8.22925 153.493 9.44729 154.537C6.90492 154.94 4.42001 155.697 2.08447 156.779C2.81989 157.728 4.03506 158.2 5.22724 158.284C6.41943 158.367 7.60587 158.113 8.7722 157.844C11.7168 157.164 14.69 156.371 17.2525 154.766" fill="#E05E00"/>
<path d="M17.5056 155.096C18.9218 154.425 19.436 152.796 19.8124 151.387C20.3582 149.348 20.904 147.306 21.4498 145.266C21.5188 145.012 21.3177 144.693 21.0333 144.717C17.4021 145.014 16.4742 149.168 14.0181 151.156L14.696 151.243C13.4809 149.469 13.4004 147.178 12.0359 145.474C10.7604 143.881 8.84427 142.984 7.03157 142.159C6.70982 142.012 6.28179 142.258 6.39957 142.648C6.73281 143.773 7.0603 144.902 7.14648 146.079C7.23266 147.256 7.15223 148.494 7.19532 149.701C7.26139 151.561 7.68655 153.563 9.13441 154.844L9.32401 154.118C6.74142 154.532 4.2364 155.307 1.85778 156.403C1.58199 156.53 1.61359 156.889 1.77159 157.086C3.13902 158.79 5.47742 158.903 7.45674 158.558C9.67736 158.174 11.9325 157.583 14.041 156.791C15.2275 156.345 16.3823 155.807 17.4596 155.136C17.9307 154.844 17.4969 154.092 17.0258 154.387C14.7449 155.804 12.168 156.577 9.58256 157.202C7.29586 157.754 4.13298 158.651 2.38061 156.47L2.29443 157.152C4.60124 156.088 7.04881 155.356 9.5567 154.954C9.8727 154.902 9.97612 154.43 9.7463 154.228C8.30994 152.958 8.06288 150.947 8.04852 149.131C8.03703 147.997 8.09735 146.857 7.98245 145.726C7.86754 144.595 7.56015 143.504 7.23553 142.417L6.60353 142.906C8.34154 143.695 10.2203 144.54 11.4326 146.085C12.7196 147.728 12.7857 149.967 13.9577 151.679C14.1272 151.928 14.4088 151.951 14.6357 151.766C15.8767 150.762 16.6495 149.342 17.5659 148.061C18.3932 146.903 19.5481 145.703 21.0419 145.581L20.6253 145.032C20.1169 146.935 19.6084 148.839 19.0971 150.739C18.7466 152.044 18.4133 153.707 17.0746 154.341C16.5719 154.578 17.0114 155.327 17.5084 155.09L17.5056 155.096Z" fill="black"/>
<path d="M14.1355 156.785C14.5865 157.708 15.2616 158.486 15.7644 159.377C16.3332 160.387 16.4423 161.549 16.6348 162.675C16.7267 163.224 17.5569 162.99 17.465 162.443C17.2668 161.269 17.1346 160.083 16.5572 159.024C16.0516 158.095 15.3449 157.297 14.8824 156.345C14.6382 155.845 13.8942 156.285 14.1384 156.782L14.1355 156.785Z" fill="black"/>
<path d="M36.9222 166.861C35.4571 165.941 33.5066 166.438 32.03 167.341C30.5534 168.243 29.3009 169.51 27.7324 170.236C25.9168 171.078 23.8369 171.119 21.8433 170.957C23.9461 171.868 26.1811 172.47 28.4534 172.739C29.1975 172.825 29.9674 172.875 30.6827 172.652C31.4123 172.423 32.0242 171.932 32.6189 171.448C33.7823 170.505 34.9429 169.562 36.1064 168.616C36.6637 168.165 37.2411 167.682 37.5083 167.014" fill="#730000"/>
<path d="M37.1406 166.487C35.3222 165.391 33.0901 166.111 31.4497 167.199C30.5391 167.804 29.706 168.518 28.7953 169.128C27.8847 169.739 26.8562 170.196 25.7474 170.413C24.4633 170.662 23.1389 170.627 21.8433 170.526C21.4325 170.494 21.2343 171.165 21.625 171.336C23.9002 172.313 26.3162 172.979 28.7839 173.21C30.0134 173.326 31.105 173.112 32.1191 172.386C33.1332 171.66 34.1156 170.792 35.1039 169.99C35.6439 169.554 36.1898 169.123 36.7183 168.674C37.1923 168.272 37.6319 167.818 37.8789 167.239C38.0973 166.733 37.3532 166.291 37.1349 166.803C36.7241 167.766 35.7129 168.388 34.9286 169.024C33.995 169.782 33.0642 170.546 32.1248 171.301C31.7313 171.616 31.3147 171.929 30.8522 172.134C30.3236 172.368 29.7491 172.406 29.1803 172.377C28.0369 172.319 26.885 172.096 25.7732 171.827C24.5035 171.521 23.2596 171.107 22.0588 170.592L21.8405 171.402C24.0237 171.576 26.2961 171.498 28.2782 170.459C30.1197 169.496 31.5474 167.795 33.5382 167.109C34.5782 166.751 35.7244 166.661 36.6982 167.251C37.1751 167.54 37.6089 166.788 37.132 166.502L37.1406 166.487Z" fill="black"/>
<path d="M37.3533 167.335C38.85 167.335 40.3467 167.335 41.8434 167.335C42.3979 167.335 42.3979 166.467 41.8434 166.467C40.3467 166.467 38.85 166.467 37.3533 166.467C36.7989 166.467 36.7989 167.335 37.3533 167.335Z" fill="black"/>
<path d="M109.916 55.3103C113.001 55.481 116.038 56.45 119.146 56.0016C121.691 55.6343 124.288 54.023 124.851 51.327C125.095 50.1583 124.903 48.8103 124.041 47.9338C123.251 47.1296 121.964 46.9994 121.079 47.7342C120.036 48.602 120.49 50.1033 121.447 50.8265C121.976 51.2286 122.622 51.434 123.254 51.6076C123.989 51.8072 124.739 51.9576 125.5 52.0241C127.052 52.1601 128.68 51.8882 129.942 50.9191C131.039 50.0744 131.812 48.7958 131.763 47.3755C131.746 46.8172 130.881 46.8172 130.901 47.3755C130.936 48.4053 130.444 49.3194 129.7 50.0021C128.853 50.7773 127.735 51.1303 126.606 51.1852C125.362 51.2431 124.09 50.9972 122.912 50.6038C122.398 50.4302 121.858 50.1785 121.55 49.7041C121.303 49.3194 121.226 48.8132 121.565 48.4631C122.211 47.7891 123.234 48.1652 123.676 48.8594C124.225 49.7215 124.182 50.8323 123.828 51.7609C123.007 53.916 120.752 54.9921 118.597 55.209C115.678 55.5012 112.817 54.6102 109.919 54.4511C109.364 54.4193 109.367 55.29 109.919 55.319L109.916 55.3103Z" fill="black"/>
<path d="M144.957 181.518C143.21 181.619 141.513 180.772 140.217 179.586C138.921 178.4 137.962 176.898 137.02 175.414C135.75 176.097 135.124 177.694 135.339 179.129C135.555 180.563 136.488 181.813 137.649 182.672C138.798 183.523 140.24 184.043 141.656 183.864C143.073 183.685 144.67 183.34 145.083 181.966L144.957 181.515V181.518Z" fill="#553A00"/>
<path d="M144.957 181.084C141.352 181.246 139.106 177.893 137.391 175.195C137.264 174.995 137.011 174.92 136.802 175.038C135.684 175.666 135.029 176.855 134.891 178.113C134.745 179.453 135.279 180.749 136.098 181.781C136.98 182.892 138.252 183.743 139.614 184.124C140.884 184.477 142.314 184.344 143.55 183.905C144.159 183.688 144.728 183.364 145.118 182.837C145.288 182.612 145.512 182.259 145.512 181.966C145.512 181.781 145.42 181.579 145.371 181.402C145.222 180.864 144.389 181.093 144.541 181.634C144.575 181.758 144.604 181.888 144.647 182.013C144.653 182.03 144.662 182.053 144.664 182.073C144.636 181.793 144.65 181.981 144.61 182.019C144.532 182.091 144.495 182.244 144.429 182.334C144.17 182.684 143.765 182.909 143.366 183.057C142.366 183.424 141.183 183.598 140.137 183.367C138.011 182.898 135.762 180.963 135.727 178.628C135.71 177.494 136.233 176.357 137.236 175.793L136.647 175.637C138.531 178.599 141.019 182.131 144.957 181.955C145.509 181.929 145.512 181.061 144.957 181.087V181.084Z" fill="black"/>
<path d="M10.8666 179.461C11.8635 179.736 12.8517 178.761 13.0039 177.731C13.1562 176.702 12.731 175.686 12.3145 174.735C11.8749 175.669 11.3722 176.67 10.4558 177.136C9.91861 177.41 9.30385 177.465 8.70919 177.558C8.09155 177.653 7.47966 177.795 6.88501 177.983C6.66955 178.05 6.42537 178.157 6.3794 178.379C6.35642 178.498 6.39951 178.62 6.44835 178.729C6.87639 179.684 7.80715 180.303 8.74079 180.766C10.1168 181.446 11.6049 181.897 13.1246 182.094C14.2019 182.236 15.4027 182.215 16.2415 181.518C14.8166 180.054 12.3662 180.41 10.5679 179.447" fill="#FFA00C"/>
<path d="M10.7519 179.878C11.8895 180.144 12.9007 179.337 13.2942 178.301C13.774 177.04 13.1879 175.669 12.6852 174.515C12.5588 174.225 12.0733 174.237 11.9412 174.515C11.6826 175.061 11.4183 175.628 11.0334 176.1C10.6226 176.6 10.117 176.867 9.48787 176.997C8.79554 177.138 8.09746 177.208 7.41088 177.381C6.85931 177.523 6.01186 177.671 5.94578 178.379C5.8912 178.961 6.42266 179.597 6.80761 179.979C7.24713 180.416 7.77572 180.754 8.32154 181.041C9.58267 181.7 10.9587 182.163 12.3577 182.415C13.7855 182.669 15.3396 182.782 16.5433 181.828C16.7243 181.683 16.6927 181.365 16.5433 181.214C14.9777 179.655 12.6278 180.034 10.7835 179.077C10.2922 178.822 9.85558 179.568 10.3497 179.826C11.269 180.303 12.2744 180.48 13.277 180.685C14.2796 180.89 15.219 181.116 15.9372 181.828V181.214C15.0524 181.917 13.7539 181.776 12.7197 181.602C11.4614 181.391 10.229 181.006 9.07706 180.454C8.58295 180.216 8.08884 179.95 7.66655 179.594C7.47121 179.43 7.28161 179.244 7.12648 179.039C7.04891 178.938 6.97997 178.828 6.91964 178.715C6.83346 178.556 6.79324 178.541 6.90815 178.437C6.99146 178.359 7.20979 178.342 7.32182 178.31C7.47121 178.267 7.62346 178.229 7.77572 178.191C8.10034 178.113 8.4307 178.047 8.76106 177.992C9.33848 177.899 9.92165 177.844 10.4646 177.613C11.5936 177.133 12.1882 176.019 12.6881 174.96H11.9441C12.3146 175.811 12.7743 176.823 12.5588 177.775C12.4037 178.466 11.7545 179.227 10.9817 179.048C10.4416 178.92 10.2118 179.759 10.7519 179.884V179.878Z" fill="black"/>
<path d="M6.42545 178.035C5.30221 177.784 4.1761 177.532 3.05286 177.28C2.82591 177.228 2.58748 177.35 2.52141 177.584C2.46108 177.801 2.59322 178.067 2.82304 178.119C3.94628 178.371 5.07239 178.622 6.19563 178.874C6.42258 178.926 6.66102 178.805 6.72709 178.57C6.78742 178.353 6.65527 178.087 6.42545 178.035Z" fill="black"/>
<path d="M8.56873 181.379C7.25014 181.319 5.80228 181.298 4.76522 182.123C4.70777 182.169 4.65032 182.221 4.62446 182.29C4.59573 182.371 4.61584 182.464 4.65319 182.542C4.83704 182.941 5.33115 183.069 5.76494 183.121C7.34781 183.312 8.95942 183.129 10.5452 183.291C12.3349 183.476 14.0987 184.098 15.8885 183.931C16.0637 183.913 16.2878 183.841 16.2935 183.665C16.2964 183.549 16.1987 183.459 16.1068 183.387C14.8887 182.464 13.3145 182.212 11.8092 181.984C10.706 181.819 9.67185 181.544 8.56873 181.379Z" fill="black"/>
<path d="M8.56876 180.945C7.72992 180.908 6.88247 180.89 6.05799 181.07C5.45759 181.2 4.18497 181.596 4.17923 182.374C4.17348 183.152 5.12723 183.476 5.76497 183.552C6.76756 183.673 7.78163 183.644 8.78996 183.647C9.79829 183.65 10.7808 183.725 11.7719 183.907C12.763 184.09 13.7023 184.298 14.6877 184.367C15.268 184.408 16.8853 184.564 16.713 183.543C16.6526 183.19 16.3194 182.985 16.0407 182.805C15.6529 182.554 15.2278 182.36 14.7969 182.198C13.912 181.871 12.9727 181.721 12.0448 181.576C10.9187 181.405 9.81266 181.128 8.68942 180.954C8.14647 180.87 7.91378 181.706 8.4596 181.79C9.27258 181.914 10.0741 182.1 10.8842 182.253C11.5995 182.389 12.3234 182.476 13.0387 182.617C13.7081 182.75 14.3832 182.918 15.0008 183.213C15.1416 183.28 15.2766 183.352 15.4116 183.43C15.5208 183.494 15.719 183.685 15.8397 183.714C15.9603 183.743 16.0235 183.517 15.9086 183.485C15.8511 183.468 15.6845 183.508 15.6271 183.511C15.426 183.523 15.2249 183.523 15.0238 183.517C13.4179 183.465 11.8695 182.956 10.2723 182.829C9.45357 182.765 8.62909 182.782 7.80749 182.779C7.06058 182.779 6.2361 182.82 5.50643 182.632C5.35992 182.594 5.23926 182.542 5.11861 182.455C5.10999 182.45 5.03817 182.371 5.04105 182.345C5.01519 182.525 5.22777 182.325 5.26225 182.305C5.57825 182.108 5.92872 181.987 6.29068 181.906C7.03472 181.744 7.81611 181.778 8.57164 181.813C9.12607 181.836 9.12607 180.968 8.57164 180.945H8.56876Z" fill="black"/>
<path d="M30.8352 180.997C28.9335 180.853 27.026 180.801 25.1185 180.841C24.6359 180.85 24.1504 180.867 23.6821 180.986C22.7341 181.226 21.924 181.871 20.9731 182.094C20.9846 182.487 21.4414 182.684 21.8206 182.779C23.8459 183.288 25.9142 183.618 27.9941 183.772C30.1975 183.934 32.4066 183.893 34.6158 183.85C35.0064 183.844 35.4029 183.835 35.7792 183.722C36.1326 183.615 36.4601 183.419 36.7157 183.152C35.0237 181.964 33.0358 181.211 30.9846 180.98" fill="black"/>
<path d="M30.8351 180.563C29.0282 180.43 27.2155 180.373 25.4028 180.401C24.6013 180.413 23.7998 180.439 23.0471 180.74C22.2945 181.041 21.6337 181.478 20.8581 181.674C20.6915 181.715 20.5191 181.909 20.5421 182.094C20.6656 183.158 21.9584 183.271 22.7915 183.45C23.9607 183.705 25.1442 183.902 26.3335 184.043C28.7323 184.33 31.1482 184.341 33.5585 184.301C34.788 184.281 36.0721 184.391 37.0201 183.456C37.2298 183.248 37.1551 182.93 36.9339 182.774C35.1615 181.541 33.1218 180.792 30.9845 180.543C30.4358 180.48 30.4387 181.347 30.9845 181.411C32.9667 181.642 34.8569 182.383 36.4973 183.523L36.4111 182.84C35.94 183.303 35.3827 183.393 34.7478 183.41C34.1129 183.427 33.4378 183.436 32.7857 183.442C31.447 183.456 30.1083 183.453 28.7696 183.381C27.4309 183.309 26.1123 183.17 24.7966 182.953C24.156 182.846 23.5183 182.721 22.8834 182.583C22.5674 182.513 22.2485 182.444 21.9354 182.357C21.8262 182.328 21.4212 182.244 21.4039 182.091L21.0879 182.51C21.8233 182.325 22.4668 181.929 23.1534 181.628C23.9233 181.292 24.7191 181.278 25.5464 181.266C27.3103 181.243 29.0741 181.298 30.8351 181.428C31.3896 181.469 31.3867 180.601 30.8351 180.561V180.563Z" fill="black"/>
<path d="M137.744 183.147C137.014 183.071 136.27 182.999 135.546 183.089C134.992 183.158 134.463 183.323 133.914 183.419C133.214 183.54 132.426 183.566 131.912 183.954C131.685 184.124 131.539 184.347 131.407 184.57C131.366 184.639 131.323 184.715 131.346 184.79C131.378 184.903 131.533 184.96 131.671 185.004C133.32 185.51 135.095 185.768 136.871 185.759C138.382 185.75 139.884 185.548 141.398 185.553C141.855 185.553 142.334 185.574 142.737 185.409C143.053 185.282 143.32 185.041 143.676 185.041C143.768 185.041 143.877 185.053 143.935 184.998C143.992 184.943 143.952 184.862 143.903 184.801C143.601 184.417 143.061 184.179 142.513 184.023C142.039 183.89 141.539 183.803 141.036 183.772C140.723 183.751 140.41 183.751 140.099 183.717C139.824 183.685 139.554 183.627 139.284 183.569C138.729 183.448 138.175 183.329 137.62 183.207" fill="black"/>
<path d="M137.744 182.713C136.698 182.606 135.707 182.583 134.676 182.811C134.233 182.91 133.796 183.002 133.348 183.069C132.943 183.126 132.535 183.181 132.153 183.335C131.573 183.566 130.369 184.625 131.171 185.241C131.513 185.504 132.044 185.571 132.452 185.672C132.932 185.791 133.417 185.886 133.906 185.964C134.931 186.126 135.971 186.204 137.008 186.19C138.045 186.175 139.082 186.074 140.119 186.022C140.628 185.996 141.133 185.99 141.645 185.99C142.156 185.99 142.61 185.953 143.055 185.739C143.222 185.658 143.383 185.536 143.564 185.493C143.756 185.449 143.934 185.493 144.115 185.391C144.523 185.163 144.405 184.7 144.138 184.414C143.452 183.673 142.26 183.459 141.309 183.361C140.708 183.297 140.125 183.303 139.53 183.179C138.936 183.054 138.333 182.918 137.732 182.788C137.192 182.669 136.959 183.508 137.502 183.624C138.585 183.858 139.654 184.139 140.766 184.191C141.32 184.217 141.863 184.289 142.395 184.443C142.61 184.503 142.825 184.576 143.027 184.674C143.147 184.735 143.506 184.897 143.544 185.05L143.587 184.715C143.627 184.625 143.903 184.639 143.673 184.608C143.621 184.602 143.552 184.616 143.501 184.625C143.366 184.642 143.248 184.683 143.124 184.735C142.877 184.839 142.656 184.998 142.392 185.065C141.806 185.209 141.142 185.114 140.545 185.137C139.206 185.186 137.87 185.342 136.526 185.325C135.253 185.308 133.986 185.154 132.748 184.853C132.446 184.781 132.142 184.703 131.846 184.608C131.832 184.602 131.696 184.544 131.685 184.553L131.78 184.793L131.837 184.697C131.946 184.587 132.001 184.443 132.125 184.339C132.509 184.012 133.101 183.974 133.578 183.907C134.216 183.815 134.834 183.636 135.468 183.537C136.221 183.422 136.991 183.505 137.744 183.581C138.295 183.636 138.292 182.768 137.744 182.713Z" fill="black"/>
<path d="M119.873 64.6857C120.861 65.1977 121.881 65.6461 122.923 66.025C123.438 66.2131 123.96 66.3808 124.486 66.5342C124.931 66.6614 125.403 66.8205 125.871 66.78C126.339 66.7395 126.684 66.5052 126.882 66.0945C127.08 65.6837 127.097 65.2989 127.638 65.3626C128.106 65.4176 128.542 65.6837 128.959 65.8862C129.488 66.1436 130.013 66.3982 130.542 66.6557C131.766 67.2516 132.989 67.8475 134.216 68.4405C134.713 68.6835 135.15 67.9342 134.65 67.6913C133.573 67.1677 132.495 66.6441 131.421 66.1205C130.424 65.6345 129.433 65.0704 128.396 64.6712C127.549 64.3443 126.615 64.4369 126.241 65.3684C126.175 65.5304 126.138 65.7734 125.974 65.8688C125.811 65.9643 125.546 65.9064 125.371 65.8688C124.851 65.7531 124.34 65.5853 123.834 65.4204C122.619 65.0184 121.441 64.5179 120.306 63.9307C119.815 63.6761 119.378 64.4253 119.873 64.6799V64.6857Z" fill="black"/>
</g>
<ellipse cx="198.236" cy="74.901" rx="34.6037" ry="55.0181" fill="url(#paint0_radial_178_9984)"/>
<path d="M198.308 12.631C198.844 16.2255 198.849 19.8934 198.308 23.4827C197.767 19.8882 197.772 16.2203 198.308 12.631Z" fill="black"/>
<path d="M191.855 7.28116C192.927 12.783 193.474 18.3843 193.479 23.9857C192.402 18.4891 191.866 12.8825 191.855 7.28116Z" fill="black"/>
<path d="M186.355 12.1541C187.672 16.4718 188.479 20.9466 188.739 25.4581C187.417 21.1404 186.621 16.6656 186.355 12.1541Z" fill="black"/>
<path d="M177.728 8.57007C180.387 14.8317 182.546 21.2662 184.185 27.8683C181.521 21.612 179.372 15.1722 177.728 8.57007Z" fill="black"/>
<path d="M173.737 16.87C176.281 21.4077 178.358 26.2074 179.913 31.1747C177.369 26.637 175.298 21.8373 173.737 16.87Z" fill="black"/>
<path d="M169.912 24.0643C172.399 27.533 174.455 31.3162 176.006 35.3089C173.513 31.8402 171.463 28.0518 169.912 24.0643Z" fill="black"/>
<path d="M163.861 28.9006C167.16 32.317 170.074 36.1106 172.525 40.1872C169.221 36.7708 166.317 32.9772 163.861 28.9006Z" fill="black"/>
<path d="M159.885 36.2888C163.465 39.0345 166.717 42.2046 169.548 45.7205C165.968 42.9801 162.721 39.8047 159.885 36.2888Z" fill="black"/>
<path d="M152.735 42.4822C157.808 45.1283 162.642 48.2513 167.133 51.8039C162.054 49.163 157.231 46.0348 152.735 42.4822Z" fill="black"/>
<path d="M154.244 53.0981C158.147 54.34 161.883 56.0901 165.328 58.3118C161.425 57.0752 157.694 55.3146 154.244 53.0981Z" fill="black"/>
<path d="M156.909 62.9385C159.448 63.1376 161.935 63.8817 164.168 65.1183C161.628 64.9244 159.141 64.1699 156.909 62.9385Z" fill="black"/>
<path d="M151.314 71.4795C155.435 71.1441 159.598 71.3485 163.667 72.0925C159.546 72.4331 155.383 72.2183 151.314 71.4795Z" fill="black"/>
<path d="M143.582 81.7809C150.263 80.3557 157.023 79.4544 163.845 79.0981C157.163 80.5286 150.404 81.4194 143.582 81.7809Z" fill="black"/>
<path d="M154.441 89.8188C157.652 88.053 161.112 86.7588 164.692 86.0042C161.487 87.7753 158.021 89.0591 154.441 89.8188Z" fill="black"/>
<path d="M156.794 98.4173C159.63 96.0542 162.809 94.105 166.202 92.664C163.366 95.0324 160.187 96.9711 156.794 98.4173Z" fill="black"/>
<path d="M155.742 108.855C159.598 105.145 163.818 101.823 168.335 98.9676C164.484 102.683 160.254 105.994 155.742 108.855Z" fill="black"/>
<path d="M164.463 113.115C166.227 110.018 168.449 107.194 171.051 104.773C169.292 107.87 167.06 110.689 164.463 113.115Z" fill="black"/>
<path d="M166.104 122.038C168.419 117.747 171.203 113.718 174.403 110.044C172.093 114.336 169.299 118.365 166.104 122.038Z" fill="black"/>
<path d="M168.741 131.486C171.364 125.56 174.455 119.88 178.019 114.472C175.402 120.404 172.3 126.073 168.741 131.486Z" fill="black"/>
<path d="M177.744 131.02C178.696 126.581 180.169 122.259 182.13 118.177C181.183 122.615 179.705 126.933 177.744 131.02Z" fill="black"/>
<path d="M183.878 133.267C184.248 129.086 185.148 124.962 186.563 121.017C186.199 125.198 185.289 129.322 183.878 133.267Z" fill="black"/>
<path d="M187.183 147.085C188 138.947 189.342 130.894 191.221 122.935C190.409 131.072 189.056 139.126 187.183 147.085Z" fill="black"/>
<path d="M195.404 137.915C195.077 133.236 195.28 128.525 196.024 123.899C196.357 128.578 196.143 133.288 195.404 137.915Z" fill="black"/>
<path d="M202.117 147.043C201.164 139.351 200.743 131.627 200.863 123.883C201.82 131.57 202.231 139.298 202.117 147.043Z" fill="black"/>
<path d="M207.18 135.107C206.144 131.124 205.629 127.011 205.661 122.893C206.696 126.875 207.206 130.988 207.18 135.107Z" fill="black"/>
<path d="M213.721 135.196C212.071 130.59 210.921 125.806 210.312 120.949C211.967 125.554 213.107 130.338 213.721 135.196Z" fill="black"/>
<path d="M223.264 138.759C219.928 132.073 217.082 125.182 214.74 118.082C218.081 124.763 220.917 131.659 223.264 138.759Z" fill="black"/>
<path d="M226.184 128.683C223.27 124.171 220.804 119.366 218.842 114.357C221.761 118.868 224.217 123.678 226.184 128.683Z" fill="black"/>
<path d="M233.978 125.45C229.737 120.566 225.923 115.363 222.546 109.835C226.787 114.713 230.601 119.927 233.978 125.45Z" fill="black"/>
<path d="M233.552 113.891C230.57 111.166 227.948 108.043 225.783 104.616C228.77 107.341 231.387 110.469 233.552 113.891Z" fill="black"/>
<path d="M241.466 108.913C236.825 105.978 232.469 102.588 228.483 98.7999C233.13 101.734 237.48 105.13 241.466 108.913Z" fill="black"/>
<path d="M247.606 101.331C241.695 98.8627 236.018 95.9179 230.596 92.4858C236.512 94.9486 242.184 97.9038 247.606 101.331Z" fill="black"/>
<path d="M243.397 89.8922C239.468 89.0486 235.654 87.6757 232.09 85.8104C236.019 86.654 239.833 88.032 243.397 89.8922Z" fill="black"/>
<path d="M251.447 81.4036C245.203 81.105 239.021 80.2771 232.922 78.9043C239.167 79.1977 245.349 80.0361 251.447 81.4036Z" fill="black"/>
<path d="M244.729 71.3065C240.894 72.04 236.965 72.2444 233.083 71.8933C236.913 71.1545 240.847 70.9606 244.729 71.3065Z" fill="black"/>
<path d="M250.926 60.7693C244.921 62.6766 238.796 64.0651 232.562 64.9192C238.562 63.0067 244.692 61.6233 250.926 60.7693Z" fill="black"/>
<path d="M240.087 53.6902C237.449 55.6342 234.504 57.1432 231.382 58.1231C234.015 56.1739 236.97 54.6753 240.087 53.6902Z" fill="black"/>
<path d="M242.444 43.0482C238.458 46.3492 234.134 49.2311 229.555 51.6257C233.541 48.3247 237.865 45.448 242.444 43.0482Z" fill="black"/>
<path d="M240.436 33.6531C236.367 38.0126 231.913 42.0106 227.131 45.5632C231.195 41.1985 235.659 37.2109 240.436 33.6531Z" fill="black"/>
<path d="M232.797 28.7539C230.346 32.8305 227.438 36.6241 224.133 40.0405C226.584 35.9639 229.498 32.1703 232.797 28.7539Z" fill="black"/>
<path d="M225.111 25.8877C224.112 29.194 222.603 32.3431 220.642 35.1831C221.635 31.8716 223.15 28.7277 225.111 25.8877Z" fill="black"/>
<path d="M222.895 16.7652C221.334 21.7326 219.263 26.5375 216.718 31.0699C218.274 26.1026 220.35 21.3029 222.895 16.7652Z" fill="black"/>
<path d="M218.669 9.00497C217.097 15.4342 215.021 21.7011 212.435 27.7897C214.001 21.3552 216.083 15.0936 218.669 9.00497Z" fill="black"/>
<path d="M212.524 4.16342C211.499 11.3577 209.953 18.4419 207.882 25.4057C208.902 18.2114 210.458 11.1271 212.524 4.16342Z" fill="black"/>
<path d="M204.765 7.25494C204.76 12.8616 204.219 18.4629 203.142 23.9595C203.142 18.3529 203.693 12.7515 204.765 7.25494Z" fill="black"/>
<path d="M181.272 54.7734H182.045C182.045 55.4141 181.983 56.1914 181.858 57.1055C181.983 59.582 182.112 61.1406 182.245 61.7812C183.87 61.9141 184.78 61.9805 184.975 61.9805L186.334 61.5938L186.721 62.1797V62.3672C186.721 62.625 186.592 62.7539 186.334 62.7539H181.858C181.592 62.7539 181.33 61.6523 181.073 59.4492C181.073 59.3086 181.139 59.1133 181.272 58.8633C181.139 57.5352 181.073 56.4961 181.073 55.7461L181.272 54.7734ZM189.452 54.9609H190.038C189.905 56.7188 189.838 58.0195 189.838 58.8633C189.838 59.6445 191.073 60.0352 193.541 60.0352H194.327V60.6094C194.327 60.875 194.198 61.0078 193.94 61.0078C192.549 60.7422 191.315 60.6094 190.237 60.6094V60.8086C190.495 62.6836 190.623 63.6602 190.623 63.7383L190.237 63.9258H190.038C189.553 63.9258 189.229 61.3945 189.065 56.332V55.3477C189.104 55.0898 189.233 54.9609 189.452 54.9609ZM196.938 54.1641L197.523 54.5508L197.336 55.9219V56.8945C197.375 57.1602 197.504 57.293 197.723 57.293H200.066C200.324 57.293 200.453 57.1602 200.453 56.8945V55.1367C200.492 54.8789 200.621 54.75 200.84 54.75C201.105 54.75 201.238 54.9453 201.238 55.3359C201.238 56.1016 201.301 57.4688 201.426 59.4375C201.426 60.4766 200.906 60.9961 199.867 60.9961C199.531 60.9961 198.75 61.125 197.523 61.3828C197.273 61.2578 197.078 61.1953 196.938 61.1953C196.938 60.3125 196.742 58.2305 196.352 54.9492C196.547 54.4258 196.742 54.1641 196.938 54.1641ZM197.523 58.6523V59.8242C197.562 60.082 197.695 60.2109 197.922 60.2109H198.895C200.066 60.2109 200.652 59.6289 200.652 58.4648L200.254 58.2656H197.922C197.656 58.3047 197.523 58.4336 197.523 58.6523ZM199.281 61.7812H199.668C199.668 62.1719 199.734 62.3672 199.867 62.3672L199.668 62.7539C199.668 63.4102 199.734 64.3867 199.867 65.6836H200.066C200.59 65.6836 201.566 65.5508 202.996 65.2852L203.184 65.6836V65.8711C203.184 66.2617 200.777 66.5234 195.965 66.6562C195.715 66.5234 195.52 66.457 195.379 66.457V65.8711L195.578 65.4844L197.922 65.6836H199.082L198.895 64.3125V62.168C198.934 61.9102 199.062 61.7812 199.281 61.7812ZM212.99 54.7734L213.576 55.3594L213.377 55.7578V58.0898C213.377 58.7852 213.638 59.2383 214.162 59.4492H216.306C216.564 59.4961 216.693 59.6289 216.693 59.8477V60.4336H214.361L213.962 60.2344L213.775 60.6211L213.962 62.5664L213.576 62.7656H213.377C212.861 62.4531 212.603 59.8555 212.603 54.9727L212.99 54.7734ZM204.81 56.1445H209.685V56.5312C209.685 56.7188 209.357 56.9141 208.701 57.1172L208.314 56.918H205.584C205.326 56.9648 205.197 57.0977 205.197 57.3164C205.572 60.8164 206.091 62.5664 206.755 62.5664H210.072V62.9648C210.072 63.1523 209.877 63.3477 209.486 63.5508H207.927C206.107 63.5508 205.197 63.1602 205.197 62.3789C205.197 62.082 204.873 60.2617 204.224 56.918C204.42 56.4023 204.615 56.1445 204.81 56.1445ZM183.138 79.2578C183.177 79.5156 183.305 79.6445 183.524 79.6445L183.337 81.6016V82.7734C183.337 82.8984 183.27 82.9609 183.138 82.9609L183.337 83.3477V84.1328C183.337 84.4219 183.27 84.6797 183.138 84.9062C183.333 85.4297 183.528 85.6914 183.723 85.6914H186.454L187.813 85.4922L188.013 85.8906V86.0781C187.88 86.4688 187.489 86.6641 186.841 86.6641H185.083C183.395 86.6641 182.552 86.4688 182.552 86.0781V80.4297C182.63 79.6484 182.825 79.2578 183.138 79.2578ZM190.345 79.8438H190.544C190.802 79.8828 190.93 80.0117 190.93 80.2305C190.805 81.1602 190.743 81.6797 190.743 81.7891C190.743 83.0938 191.263 83.7461 192.302 83.7461C193.598 83.7461 194.247 83.9414 194.247 84.332C194.247 84.5898 194.052 84.7188 193.661 84.7188C192.052 84.5859 191.208 84.5195 191.13 84.5195C191.13 84.7773 191.063 84.9062 190.93 84.9062L191.13 85.3047V86.6641C191.13 86.9219 191.001 87.0508 190.743 87.0508C190.477 87.0508 190.345 86.9219 190.345 86.6641C190.087 82.5312 189.958 80.3242 189.958 80.043L190.345 79.8438ZM188.598 89.0078H188.786C189.044 89.0469 189.173 89.1758 189.173 89.3945C188.837 90.2305 188.513 90.6836 188.2 90.7539C188.2 91.1836 189.434 92.0312 191.903 93.2969C192.036 93.2969 192.102 93.3594 192.102 93.4844V94.0703H191.903C191.395 94.0703 190.032 93.3555 187.813 91.9258H187.614L186.255 93.4844C185.997 93.4844 185.868 93.3555 185.868 93.0977V92.7109C187.571 90.2422 188.481 89.0078 188.598 89.0078ZM203.666 84.5195C203.705 84.7852 203.834 84.918 204.053 84.918L203.866 86.2773C203.936 87.832 204.065 88.6094 204.252 88.6094C204.12 88.8672 204.053 89.0625 204.053 89.1953C204.053 89.2812 204.12 90.1289 204.252 91.7383L203.666 92.125L203.28 91.5391V88.6094C203.28 88.3516 203.151 88.2227 202.893 88.2227H200.936L199.963 88.0352V87.6367C200.002 87.3789 200.131 87.25 200.35 87.25H202.893L203.28 87.0508C203.022 86.2539 202.893 85.7344 202.893 85.4922C203.057 84.8906 203.315 84.5664 203.666 84.5195ZM206.397 84.7188H206.784C206.784 84.8594 206.85 85.0547 206.983 85.3047C206.983 85.4375 206.916 85.6328 206.784 85.8906C206.916 86.6719 207.112 89.2031 207.37 93.4844H206.596C206.596 92.7734 206.401 89.918 206.01 84.918L206.397 84.7188ZM195.674 84.918C195.901 84.918 196.358 86.8008 197.045 90.5664L199.577 90.9531C199.827 90.8203 200.022 90.7539 200.163 90.7539C200.678 90.9492 200.936 91.1445 200.936 91.3398V91.7383H200.748C197.756 91.7383 196.26 91.543 196.26 91.1523C196.26 90.9727 195.936 88.957 195.288 85.1055L195.674 84.918ZM209.008 94.457H209.395L209.98 95.043C209.785 95.5664 209.59 95.8281 209.395 95.8281H209.008C208.82 95.8281 208.625 95.6328 208.422 95.2422C208.617 94.7188 208.812 94.457 209.008 94.457ZM211.619 94.457H212.005L212.591 95.043C212.396 95.5664 212.201 95.8281 212.005 95.8281H211.619C211.431 95.8281 211.236 95.6328 211.033 95.2422C211.228 94.7188 211.423 94.457 211.619 94.457ZM214.23 94.457H214.616L215.202 95.043C215.007 95.5664 214.812 95.8281 214.616 95.8281H214.23C214.042 95.8281 213.847 95.6328 213.644 95.2422C213.839 94.7188 214.034 94.457 214.23 94.457Z" fill="black"/>
<defs>
<radialGradient id="paint0_radial_178_9984" cx="0" cy="0" r="1" gradientUnits="userSpaceOnUse" gradientTransform="translate(198.236 74.901) rotate(90.3111) scale(54.9491 34.5603)">
<stop stop-color="white"/>
<stop offset="1" stop-color="white" stop-opacity="0"/>
</radialGradient>
<clipPath id="clip0_178_9984">
<rect width="195.277" height="165.167" fill="white" transform="translate(1.65381 22.4081)"/>
</clipPath>
</defs>
</svg>
