<svg width="254" height="202" viewBox="0 0 254 202" fill="none" xmlns="http://www.w3.org/2000/svg">
<g clip-path="url(#clip0_148_1159)">
<path d="M102.166 163.075C90.065 162.273 77.93 161.828 65.7922 161.776C62.1619 161.762 58.5089 161.782 54.9386 162.35C52.9836 162.661 51.0344 163.143 49.3392 164.042C47.2015 165.175 45.5862 166.896 43.7968 168.415C42.2699 169.71 40.5119 170.989 39.9925 172.781C39.2875 175.207 41.2254 177.741 43.7654 178.94C46.3054 180.139 49.3049 180.304 52.1931 180.427C71.9139 181.254 91.686 181.1 111.387 179.967C113.739 179.833 116.127 179.676 118.328 178.946C120.528 178.215 122.549 176.819 123.316 174.893C124.212 172.644 123.214 170.07 121.364 168.309C119.515 166.548 116.941 165.486 114.341 164.713C110.217 163.489 105.844 162.889 101.486 162.952" fill="black"/>
<path d="M102.046 59.134C94.4057 48.9282 80.6725 45.7604 68.0437 44.0109C62.7754 43.2803 57.4356 42.6724 52.1444 43.2289C46.8532 43.7854 41.5562 45.5977 37.6264 49.1822C32.6862 53.6858 30.4287 60.4439 29.4127 67.0537C27.1838 81.5232 30.0006 96.3866 34.9693 110.157C41.6618 128.708 52.6724 146.231 68.8457 157.515C75.1501 161.916 82.1109 165.289 89.1687 168.346C93.2612 170.118 97.5621 171.822 102.017 171.619C106.498 171.417 110.65 169.308 114.552 167.096C118.579 164.81 122.514 162.364 126.347 159.761C128.308 158.431 130.283 157.016 131.607 155.049C133.271 152.578 133.725 149.49 133.804 146.51C133.998 139.196 132.201 131.992 130.414 124.895C127.794 114.483 125.168 104.055 121.621 93.9236C117.18 81.2406 111.155 68.8459 101.866 59.1311" fill="#FFDC00"/>
<path d="M102.417 58.9171C96.0413 50.4637 85.6501 46.7992 75.6213 44.8243C72.9814 44.3048 70.3244 43.891 67.6588 43.5286C64.2711 43.0662 60.8692 42.661 57.4502 42.5925C51.4569 42.4755 45.2296 43.4686 40.1011 46.7535C35.3549 49.793 32.3497 54.6304 30.6317 59.9102C28.7538 65.6809 28.1687 71.9139 28.2144 77.9557C28.3143 90.7043 31.622 103.319 36.3966 115.074C40.6062 125.434 46.1743 135.3 53.3947 143.868C56.9936 148.137 61.0034 152.067 65.407 155.503C70.3015 159.322 75.6727 162.453 81.2407 165.181C84.1318 166.597 87.0685 167.921 90.0309 169.177C92.9105 170.395 95.8729 171.508 98.9894 171.908C105.399 172.73 111.102 169.607 116.453 166.491C119.332 164.816 122.161 163.055 124.938 161.214C127.366 159.604 129.969 157.998 131.721 155.615C133.474 153.231 134.033 150.261 134.19 147.384C134.367 144.107 134.087 140.814 133.599 137.575C132.592 130.882 130.72 124.31 129.039 117.763C127.358 111.216 125.56 104.563 123.456 98.0704C119.729 86.5661 114.957 75.196 107.708 65.4326C105.993 63.1238 104.144 60.9148 102.16 58.8314C101.781 58.4319 101.176 59.0369 101.555 59.4365C109.646 67.927 115.251 78.4295 119.458 89.3002C124.161 101.464 127.295 114.175 130.446 126.807C132.032 133.174 133.511 139.661 133.377 146.265C133.317 149.219 132.92 152.33 131.233 154.833C129.547 157.335 126.85 158.928 124.407 160.543C121.73 162.313 119.004 164.011 116.233 165.629C113.53 167.207 110.793 168.8 107.854 169.901C104.891 171.012 101.789 171.485 98.6441 171C95.499 170.515 92.5052 169.322 89.5971 168.066C83.9092 165.612 78.2869 162.955 72.9957 159.716C68.1354 156.739 63.6319 153.231 59.5536 149.25C51.7337 141.613 45.5264 132.44 40.7175 122.654C35.4548 111.949 31.5449 100.345 29.8668 88.5154C28.9764 82.2367 28.7823 75.8381 29.5043 69.5337C30.1379 63.9971 31.4479 58.3291 34.4902 53.5859C37.5325 48.8426 42.6354 45.6405 48.2548 44.3163C54.6305 42.8151 61.2659 43.5086 67.6759 44.3905C77.639 45.7632 88.3385 47.8009 96.4808 54.1139C98.43 55.6236 100.188 57.3816 101.672 59.3509C102 59.7847 102.742 59.3594 102.411 58.9199L102.417 58.9171Z" fill="black"/>
<path d="M77.345 45.8717C80.139 45.8717 81.3034 47.2758 83.4096 49.1109C97.7421 61.5883 106.618 79.0888 114.164 96.5321C119.013 107.742 123.473 119.17 126.293 131.053C128.345 139.701 129.581 148.962 128.979 157.826C129.375 153.694 128.493 149.207 127.683 145.138C126.607 139.749 125.534 134.361 124.458 128.976C124.15 127.429 123.839 125.871 123.234 124.415C122.437 122.492 121.159 120.813 120.074 119.035C117.383 114.632 115.87 109.632 114.001 104.82C109.472 93.1559 102.782 82.4764 96.1354 71.874C93.6153 67.8528 91.0953 63.8344 88.5724 59.8132C86.6089 56.6824 84.6397 53.5431 82.3708 50.6263C80.6213 48.3774 78.555 46.1742 75.8267 45.3551L77.345 45.8745V45.8717Z" fill="#F3E253"/>
<path d="M77.3447 46.2998C79.1227 46.3169 80.447 47.0675 81.7541 48.2119C83.1753 49.4562 84.5938 50.7091 85.9522 52.0219C88.7634 54.7332 91.3662 57.6585 93.7749 60.7322C98.6437 66.9452 102.716 73.7547 106.327 80.764C110.077 88.0416 113.376 95.5561 116.489 103.122C119.854 111.293 122.897 119.615 125.131 128.171C127.38 136.77 128.858 145.654 128.69 154.564C128.67 155.652 128.622 156.739 128.55 157.826C128.513 158.38 129.358 158.369 129.406 157.826C129.786 153.662 128.984 149.493 128.174 145.426C127.306 141.068 126.435 136.713 125.565 132.355C125.146 130.254 124.806 128.114 124.235 126.05C123.696 124.096 122.737 122.38 121.638 120.688C120.539 118.996 119.489 117.257 118.619 115.414C117.748 113.57 116.986 111.612 116.264 109.675C114.846 105.862 113.421 102.069 111.715 98.3729C110.008 94.677 108.025 90.9013 105.973 87.2739C101.786 79.8793 97.1768 72.7273 92.6619 65.5297C90.3644 61.8652 88.1212 58.1608 85.7182 54.5648C84.5852 52.8695 83.4065 51.2 82.1137 49.6218C81.0006 48.2604 79.7563 46.9704 78.2665 46.0201C77.5416 45.5577 76.7597 45.1953 75.9377 44.9384C75.4097 44.7729 75.1928 45.5863 75.7094 45.7632C76.226 45.9402 76.7197 46.1085 77.2277 46.2826C77.7357 46.4567 77.9754 45.6348 77.456 45.4578C76.9366 45.2809 76.4457 45.1125 75.9377 44.9384L75.7094 45.7632C79.3054 46.8877 81.6998 50.301 83.7718 53.2377C86.2262 56.7167 88.4209 60.3783 90.6812 63.9828C95.1476 71.1034 99.7054 78.1784 103.932 85.4445C108.159 92.7107 111.715 99.817 114.555 107.506C115.927 111.227 117.257 115 119.235 118.459C120.22 120.183 121.433 121.772 122.349 123.536C123.265 125.3 123.704 127.398 124.107 129.412C124.963 133.708 125.822 138.003 126.678 142.298C127.503 146.431 128.499 150.597 128.633 154.827C128.664 155.826 128.639 156.827 128.547 157.824H129.404C130 148.831 128.793 139.781 126.727 131.039C124.652 122.26 121.675 113.724 118.316 105.362C115.191 97.5824 111.843 89.8653 108.093 82.3651C104.343 74.8649 100.502 68.2552 95.6985 61.8509C93.3325 58.6973 90.784 55.6807 88.0213 52.8695C86.6144 51.4369 85.1503 50.0698 83.6405 48.7456C82.4476 47.701 81.2974 46.4967 79.802 45.8888C79.0171 45.5691 78.1838 45.4521 77.3419 45.4436C76.7911 45.4379 76.7911 46.2941 77.3419 46.2998H77.3447Z" fill="black"/>
<path d="M58.7171 43.1633C70.5268 51.2713 79.6708 61.5512 87.7361 73.3894C95.8013 85.2276 102.223 98.1046 108.136 111.153C115.659 127.751 122.52 144.558 121.301 162.741C118.816 139.027 108.416 117.851 98.0845 96.3637C95.3704 90.7215 92.6391 85.0564 89.1231 79.8764C86.0836 75.3986 82.4905 71.3289 78.9088 67.2734C71.6797 59.0883 64.4678 51.2599 57.2388 43.0748L58.72 43.1633H58.7171Z" fill="#F3E253"/>
<path d="M58.5002 43.5343C65.4609 48.3261 71.7168 54.0596 77.2649 60.4268C83.0498 67.0622 88.107 74.3198 92.6391 81.8571C97.4594 89.8767 101.68 98.2388 105.627 106.715C109.574 115.191 113.419 123.687 116.353 132.537C119.286 141.388 121.124 150.195 121.007 159.339C120.993 160.475 120.945 161.611 120.87 162.747H121.727C120.808 154.071 118.824 145.549 116.121 137.261C113.41 128.939 110.017 120.856 106.384 112.899C104.549 108.881 102.651 104.891 100.739 100.907C98.8265 96.9231 96.8972 92.8048 94.8423 88.8236C92.7875 84.8423 90.4901 80.9067 87.7959 77.2736C85.0847 73.6149 82.0652 70.2016 79.0514 66.7911C72.7242 59.6305 66.2686 52.5841 59.9129 45.4493C59.1195 44.5588 58.3289 43.6656 57.5384 42.7723L57.2359 43.5029L58.7171 43.5913C59.2679 43.6256 59.265 42.7694 58.7171 42.7352L57.2359 42.6467C56.842 42.6239 56.705 43.1176 56.9333 43.3773C63.2092 50.4779 69.6077 57.4701 75.915 64.545C78.963 67.9669 82.0395 71.3745 84.9163 74.942C87.7645 78.478 90.276 82.2253 92.4736 86.1979C94.6711 90.1706 96.5433 94.1462 98.4783 98.1674C100.382 102.123 102.283 106.076 104.135 110.054C107.819 117.962 111.318 125.971 114.195 134.213C117.049 142.384 119.278 150.791 120.465 159.373C120.619 160.495 120.753 161.619 120.873 162.744C120.93 163.286 121.692 163.303 121.729 162.744C122.332 153.523 120.842 144.333 118.196 135.514C115.522 126.607 111.763 118.068 107.908 109.62C103.978 101.01 99.8168 92.4938 95.0764 84.2972C90.5957 76.5487 85.5898 69.0743 79.8762 62.1763C74.4794 55.6607 68.3977 49.7159 61.5881 44.6844C60.7148 44.0394 59.8301 43.4087 58.934 42.7951C58.4802 42.4812 58.0492 43.2232 58.503 43.5343H58.5002Z" fill="black"/>
<path d="M41.7279 46.6194C52.5586 56.0032 62.4076 67.6159 70.0048 79.7652C74.6339 87.1683 78.5809 94.971 82.4366 102.805C87.9533 114.015 93.3272 125.397 96.4295 137.501C97.8793 143.157 99.0466 149.344 103.325 153.323C104.575 154.484 106.044 155.401 107.243 156.616C110.354 159.767 111.233 164.43 111.966 168.8C111.41 164.867 107.314 162.664 104.426 159.938C101.669 157.335 99.8371 153.922 98.0534 150.574C95.5191 145.814 92.9762 141.042 90.9442 136.045C89.3032 132.012 87.9989 127.854 86.532 123.756C79.0518 102.885 67.2136 83.5866 51.9935 67.4646C50.7435 66.1404 49.4506 64.8076 48.6572 63.1694C47.5727 60.932 47.5271 58.3491 46.9278 55.9347C46.3284 53.5202 42.5298 47.9008 40.084 47.4442L41.7307 46.6194H41.7279Z" fill="#F3E253"/>
<path d="M41.4252 46.9219C48.5372 53.095 55.0157 59.993 60.8149 67.4076C66.8168 75.0818 71.9253 83.3497 76.4688 91.9601C78.7891 96.3552 80.9923 100.813 83.1728 105.279C85.3303 109.7 87.4423 114.147 89.3858 118.667C91.3379 123.214 93.1131 127.837 94.5828 132.563C95.8757 136.727 96.6833 141.034 98.0589 145.172C98.6897 147.064 99.466 148.931 100.542 150.617C101.618 152.304 103.105 153.774 104.746 155.055C106.518 156.439 108.025 157.889 109.064 159.91C110.02 161.768 110.568 163.811 110.99 165.849C111.201 166.865 111.378 167.889 111.55 168.911C111.641 169.456 112.46 169.222 112.374 168.683C111.741 164.613 107.757 162.407 104.974 159.864C101.25 156.459 99.0807 151.639 96.769 147.247C94.2061 142.381 91.8288 137.446 89.9509 132.272C88.1729 127.375 86.5832 122.417 84.6254 117.583C80.9724 108.564 76.5145 99.8798 71.3089 91.6604C66.1432 83.5038 60.2498 75.801 53.7114 68.6918C52.0619 66.8967 50.0869 65.1815 49.0167 62.9525C47.9465 60.7236 47.9636 58.118 47.3072 55.7321C46.9019 54.2651 46.0486 52.8838 45.201 51.6366C44.2506 50.2411 43.1604 48.8597 41.8048 47.8409C41.3225 47.4784 40.7859 47.1588 40.1894 47.0332L40.2922 47.8152C40.8401 47.5412 41.3909 47.2672 41.9389 46.9904C42.4326 46.745 41.9988 46.0058 41.508 46.2512C40.96 46.5252 40.4092 46.7992 39.8612 47.076C39.5387 47.2387 39.6101 47.7838 39.964 47.858C41.3824 48.1548 42.5382 49.5789 43.4058 50.6406C44.4704 51.9477 45.4236 53.4032 46.1114 54.9444C46.9561 56.828 46.9761 58.9941 47.4499 60.9833C48.0207 63.3721 49.3107 65.2271 50.9631 67.0023C57.5586 74.0886 63.6546 81.5403 68.9858 89.6341C74.317 97.7279 78.8576 106.173 82.6419 115.02C84.6397 119.689 86.3292 124.458 87.9845 129.255C89.7454 134.361 91.766 139.313 94.2004 144.139C95.4076 146.53 96.6662 148.893 97.9277 151.257C99.0692 153.397 100.239 155.535 101.695 157.481C103.022 159.256 104.592 160.715 106.301 162.11C107.828 163.354 109.46 164.613 110.542 166.285C111.062 167.09 111.404 167.964 111.55 168.911L112.374 168.683C111.701 164.673 110.925 160.421 108.305 157.167C106.9 155.423 104.937 154.313 103.353 152.761C101.875 151.311 100.773 149.536 99.9254 147.655C98.1874 143.799 97.4625 139.567 96.3409 135.511C95.0309 130.782 93.3842 126.15 91.5348 121.607C87.7962 112.409 83.3554 103.473 78.8262 94.6428C74.297 85.8127 69.4253 77.462 63.5547 69.5965C57.9096 62.0364 51.5795 54.9729 44.6073 48.6115C43.7569 47.8352 42.8978 47.0703 42.0274 46.3169C41.6136 45.9573 41.0057 46.5595 41.4223 46.9219H41.4252Z" fill="black"/>
<path d="M103.47 171.209C93.9037 163.229 84.2716 155.186 76.4004 145.532C70.2045 137.934 65.1872 129.447 59.1511 121.721C53.6088 114.629 47.0846 107.959 44.1422 99.4545C42.8465 95.713 42.2643 91.6518 40.1353 88.3127C38.7026 86.0638 36.6477 84.2772 35.0838 82.1168C32.6722 78.7863 31.9473 74.6338 28.9678 71.7998C30.0066 79.8736 32.4553 87.6563 37.0102 94.4031C38.1832 96.1411 39.4646 97.8164 40.415 99.6857C41.7306 102.28 42.3642 105.157 43.3317 107.899C44.9499 112.477 47.507 116.664 50.2525 120.668C54.3451 126.636 58.8943 132.272 63.4378 137.903C67.0651 142.401 70.7125 146.916 74.9477 150.846C78.1784 153.842 81.7687 156.519 84.4 160.055C85.6615 161.751 86.7403 163.68 88.5297 164.804C90.6045 166.111 93.2872 166.106 95.4163 167.324C96.7205 168.069 97.7365 169.228 98.9494 170.113C100.162 170.997 101.835 171.808 103.228 171.243L103.47 171.209Z" fill="#F3E253"/>
<path d="M103.772 170.906C97.2227 165.444 90.6614 159.967 84.6225 153.934C81.6287 150.943 78.7662 147.815 76.1206 144.507C73.475 141.199 70.8807 137.509 68.3978 133.913C65.9291 130.334 63.4833 126.738 60.8691 123.265C58.486 120.097 55.9146 117.081 53.4374 113.99C50.9602 110.899 48.6228 107.76 46.7563 104.298C45.8145 102.554 45.0125 100.739 44.3904 98.8552C43.7682 96.9716 43.3087 95.0252 42.7123 93.1273C42.1158 91.2294 41.4051 89.4258 40.3149 87.8019C39.2247 86.178 37.7606 84.7053 36.465 83.1728C35.1693 81.6402 34.256 80.0562 33.4255 78.2982C32.6606 76.6829 31.9586 75.0247 30.9625 73.5321C30.4688 72.7958 29.9094 72.108 29.2702 71.4887C29.0304 71.2575 28.4882 71.4031 28.5395 71.7912C29.6155 80.0677 32.1897 88.1386 36.9444 95.0566C38.1659 96.8346 39.4559 98.5784 40.3606 100.548C41.2653 102.517 41.8561 104.76 42.541 106.883C43.8795 111.016 45.9315 114.84 48.2832 118.479C53.2034 126.085 58.9997 133.111 64.6991 140.132C67.5074 143.591 70.3756 147.013 73.5748 150.121C76.5515 153.017 79.922 155.512 82.6875 158.623C84.0174 160.115 85.0277 161.839 86.312 163.366C86.9256 164.094 87.6277 164.759 88.4468 165.247C89.2659 165.735 90.1563 166.037 91.0581 166.291C91.96 166.545 92.9303 166.762 93.8436 167.082C94.8168 167.421 95.673 167.929 96.4664 168.583C97.9447 169.804 99.3546 171.288 101.292 171.736C101.732 171.839 102.186 171.879 102.637 171.825C102.962 171.785 103.259 171.662 103.584 171.617C104.126 171.542 103.895 170.718 103.356 170.792C103.008 170.84 102.691 170.98 102.334 170.994C101.846 171.017 101.361 170.892 100.904 170.72C99.9482 170.358 99.1063 169.73 98.3357 169.071C97.6108 168.452 96.9144 167.792 96.121 167.256C95.3276 166.719 94.4943 166.38 93.6124 166.106C91.7659 165.532 89.7425 165.278 88.1871 164.034C86.7144 162.858 85.7812 161.171 84.6624 159.69C82.2109 156.448 79.0059 153.928 76.0064 151.225C72.7786 148.317 69.8875 145.075 67.1164 141.739C64.3452 138.402 61.4912 134.838 58.7343 131.347C55.9774 127.857 53.1463 124.133 50.5663 120.368C48.1547 116.846 45.8744 113.179 44.2791 109.204C43.4771 107.209 42.9177 105.134 42.2413 103.093C41.565 101.053 40.7173 99.1606 39.5558 97.3683C38.3942 95.576 37.1471 93.9293 36.0683 92.1227C34.9895 90.3162 34.099 88.5439 33.2999 86.666C31.6903 82.8874 30.5801 78.9004 29.8609 74.8621C29.6783 73.8432 29.5213 72.8186 29.39 71.7912L28.6594 72.0937C31.3307 74.6737 32.2154 78.401 34.139 81.4747C35.2035 83.1785 36.6162 84.6169 37.9262 86.1294C39.2361 87.642 40.3863 89.3544 41.154 91.278C41.9217 93.2015 42.3783 95.0509 42.9206 96.9602C43.4628 98.8695 44.0707 100.665 44.8755 102.437C46.488 105.993 48.6884 109.241 51.0543 112.332C53.4402 115.445 56.0002 118.419 58.4318 121.496C61.1088 124.883 63.5775 128.428 66.029 131.981C68.4806 135.534 70.9464 139.15 73.572 142.615C76.1463 146.014 78.9146 149.253 81.8599 152.332C87.7361 158.48 94.2089 164.017 100.724 169.468C101.538 170.147 102.348 170.826 103.162 171.502C103.581 171.853 104.192 171.251 103.767 170.897L103.772 170.906Z" fill="black"/>
<path d="M99.6198 71.9967C98.4725 70.1645 96.4177 69.0914 94.3486 68.4578C92.1339 67.7786 89.7052 67.5103 87.5191 68.2752C85.333 69.04 83.4722 71.0178 83.358 73.3324C83.3466 73.5778 83.3466 73.8432 83.2011 74.0401C83.1012 74.1771 82.9442 74.257 82.7929 74.3341C82.3991 74.5339 81.9824 74.7393 81.7199 75.0961C81.4573 75.4528 81.4031 76.0065 81.7256 76.309C82.0766 76.6344 82.6331 76.5088 83.0898 76.3718C89.8508 74.3569 97.0484 74.5767 104.101 74.8136C104.329 74.2998 103.701 73.8375 103.182 73.6206C102.057 73.1497 100.933 72.6788 99.8082 72.2079L99.617 71.9996L99.6198 71.9967Z" fill="#FFDC00"/>
<path d="M99.988 71.7798C98.3499 69.217 95.1506 67.9698 92.2567 67.5331C89.2087 67.0736 85.9609 67.7443 84.0345 70.33C83.6378 70.8637 83.3267 71.4716 83.1383 72.108C83.0384 72.4391 82.9785 72.7815 82.9471 73.124C82.9328 73.2895 82.9528 73.4779 82.91 73.6406C82.8615 73.8232 82.7388 73.8803 82.5789 73.9631C81.9568 74.2884 81.2747 74.668 81.112 75.4157C80.9607 76.1092 81.3318 76.7885 82.0538 76.9141C82.7759 77.0396 83.6035 76.6572 84.2999 76.4746C85.1389 76.2548 85.9866 76.0664 86.837 75.9066C88.5922 75.5784 90.3674 75.3729 92.1511 75.2502C96.1295 74.9762 100.119 75.1047 104.101 75.2388C104.297 75.2445 104.452 75.0989 104.514 74.9249C104.888 73.866 103.59 73.3295 102.842 73.0156C102.257 72.7701 101.675 72.5275 101.09 72.2821C100.787 72.1565 100.487 72.0138 100.182 71.9025C99.8767 71.7912 100.162 71.9396 100.062 71.8512C100.011 71.8055 99.9652 71.7484 99.9195 71.697C99.5457 71.2918 98.9406 71.8968 99.3145 72.3021C99.5599 72.5675 99.8111 72.6702 100.151 72.8101C100.647 73.0184 101.144 73.2268 101.643 73.4351C102.114 73.632 102.594 73.8118 103.056 74.0287C103.293 74.14 103.804 74.3769 103.69 74.6994L104.103 74.3855C97.6164 74.1686 91.0124 73.9574 84.6566 75.5042C84.2685 75.5984 83.8803 75.7011 83.4922 75.8096C83.1611 75.9038 82.8158 76.0408 82.4733 76.0779C82.1994 76.1092 81.9225 76.0465 81.9311 75.724C81.9397 75.4015 82.2136 75.1617 82.4705 74.9991C82.7273 74.8364 83.0242 74.7279 83.2724 74.551C83.5807 74.3312 83.7234 74.023 83.7633 73.652C83.8318 73.0298 83.8803 72.4533 84.1258 71.8683C85.2502 69.2055 88.2098 68.1239 90.9182 68.2552C92.5763 68.3351 94.2744 68.7689 95.787 69.451C97.1541 70.0646 98.4241 70.9379 99.2431 72.2165C99.54 72.6788 100.279 72.2507 99.9823 71.7855L99.988 71.7798Z" fill="black"/>
<path d="M101.541 74.8221C102.665 74.9134 102.691 76.7856 102.765 77.9101C102.799 78.4067 102.774 78.9118 102.62 79.3856C102.403 80.0563 101.935 80.627 101.384 81.0666C100.117 82.0769 98.4328 82.4336 96.8146 82.3993C95.1964 82.3651 93.6068 81.9798 92.0228 81.6488C90.3247 81.2949 88.5838 80.9924 87.037 80.2047C85.4901 79.417 84.1288 78.0442 83.8491 76.329C83.8491 76.329 90.1506 73.8832 101.541 74.8221Z" fill="white"/>
<path d="M101.541 75.2502C102.031 75.3073 102.148 76.1007 102.211 76.4688C102.32 77.1138 102.374 77.8188 102.345 78.4695C102.268 80.3046 100.51 81.3862 98.8921 81.7658C97.0142 82.2081 95.0764 81.8542 93.2213 81.4633C91.3663 81.0723 89.4427 80.8068 87.7075 80.0477C86.075 79.3342 84.5824 78.0385 84.2571 76.212L83.9574 76.74C84.8478 76.3946 85.7982 76.1777 86.7286 75.9751C89.3656 75.4043 92.0655 75.1361 94.7567 75.0561C97.0171 74.9876 99.2803 75.0618 101.535 75.2474C102.083 75.293 102.08 74.4368 101.535 74.3912C97.8847 74.0944 94.2031 74.0829 90.5614 74.4968C88.5665 74.7222 86.5659 75.0561 84.6338 75.6212C84.3313 75.7097 84.023 75.801 83.7291 75.9152C83.4979 76.0037 83.3866 76.192 83.4294 76.4432C83.7491 78.2526 85.1389 79.6938 86.72 80.5243C88.6493 81.5403 90.8811 81.8457 92.993 82.2909C95.0907 82.7333 97.2882 83.11 99.3973 82.5192C101.261 81.9998 103.045 80.6527 103.19 78.5922C103.25 77.7417 103.164 76.7742 102.973 75.9437C102.793 75.1674 102.38 74.4911 101.535 74.3912C100.99 74.3255 100.993 75.1817 101.535 75.2474L101.541 75.2502Z" fill="black"/>
<path d="M100.79 83.3668C99.3656 84.6597 97.3193 84.9765 95.3958 85.0307C92.8244 85.1049 90.0988 84.7596 88.064 83.1899" fill="#FFB500"/>
<path d="M100.488 83.0643C98.8637 84.5027 96.4778 84.6454 94.4144 84.6112C92.2483 84.5741 90.0422 84.1574 88.2842 82.8217C87.8446 82.4878 87.4194 83.2327 87.8532 83.5609C89.7539 85.005 92.1941 85.4417 94.5343 85.4702C96.8745 85.4987 99.3175 85.2504 101.098 83.6722C101.512 83.3069 100.904 82.7019 100.493 83.0672L100.488 83.0643Z" fill="black"/>
<path d="M99.1745 86.0267C97.8132 86.6717 96.3662 87.1854 94.8651 87.2796C93.3639 87.3738 91.7914 87.0113 90.627 86.0553" fill="#FFB500"/>
<path d="M98.9606 85.6557C96.5062 86.8087 93.2727 87.6221 90.9325 85.7527C90.5072 85.4131 89.8965 86.0153 90.3274 86.3578C93.0101 88.5011 96.5405 87.7362 99.3944 86.3949C99.8939 86.1609 99.4572 85.4217 98.9635 85.6557H98.9606Z" fill="black"/>
<path d="M101.355 80.784C101.192 80.276 100.77 79.8936 100.35 79.554C99.9965 79.2657 99.6283 78.9889 99.2373 78.7491C98.5838 78.3496 97.8703 78.0585 97.1568 77.7674C96.6488 77.5619 96.1408 77.3536 95.6071 77.2223C94.9564 77.0625 94.2829 77.0197 93.6122 77.0054C92.7047 76.9883 91.7771 77.0254 90.9295 77.3393C89.5567 77.8502 88.5151 79.123 88.3096 80.5386C88.3096 80.5386 92.5962 82.1482 96.195 82.2338C99.7939 82.3166 101.355 80.784 101.355 80.784Z" fill="black"/>
<path d="M101.766 80.6699C101.398 79.651 100.342 78.9232 99.4513 78.3781C98.461 77.7702 97.308 77.3108 96.2064 76.9483C95.1048 76.5859 93.7748 76.5174 92.5733 76.5916C91.4688 76.6601 90.4186 76.9512 89.5453 77.6475C88.672 78.3439 88.0726 79.3371 87.8986 80.4244C87.8586 80.6699 87.9613 80.8611 88.1982 80.9524C89.8278 81.5631 91.5402 82.0198 93.2497 82.3309C95.6356 82.7675 98.2099 82.9102 100.462 81.8542C100.881 81.6573 101.324 81.4119 101.66 81.0837C102.054 80.6984 101.449 80.0934 101.055 80.4786C101.038 80.4929 101.024 80.51 101.007 80.5243C100.987 80.5414 100.967 80.5557 100.95 80.5728C100.858 80.6499 100.975 80.5557 100.918 80.5957C100.707 80.7498 100.482 80.8868 100.25 81.0066C99.4114 81.4404 98.461 81.6716 97.5249 81.7601C95.0591 81.9941 92.5334 81.4033 90.1846 80.7041C89.5938 80.5272 89.0059 80.3417 88.4294 80.1276L88.7291 80.6556C88.8974 79.6025 89.5025 78.6578 90.41 78.0813C91.5145 77.3793 92.8958 77.385 94.1573 77.4535C95.5272 77.5277 96.7743 78.0214 98.0101 78.5865C98.5894 78.849 99.1374 79.1601 99.6483 79.5397C100.128 79.8964 100.738 80.3131 100.95 80.8982C101.135 81.4119 101.963 81.1893 101.774 80.6699H101.766Z" fill="black"/>
<path d="M92.3605 78.8687C92.4404 78.4475 91.9517 78.001 91.2688 77.8713C90.5859 77.7417 89.9674 77.978 89.8875 78.3992C89.8075 78.8204 90.2963 79.267 90.9792 79.3966C91.6621 79.5263 92.2805 79.2899 92.3605 78.8687Z" fill="white" stroke="black" stroke-width="0.285395" stroke-miterlimit="10"/>
<path d="M98.4791 80.3702C99.1705 80.087 99.6326 79.6175 99.5114 79.3214C99.3901 79.0253 98.7313 79.0147 98.04 79.2979C97.3486 79.581 96.8864 80.0506 97.0076 80.3467C97.1289 80.6428 97.7877 80.6533 98.4791 80.3702Z" fill="white" stroke="black" stroke-width="0.285395" stroke-miterlimit="10"/>
<path d="M98.1326 81.5325C98.5779 81.5076 98.9287 81.3037 98.916 81.0771C98.9034 80.8505 98.532 80.6869 98.0867 80.7118C97.6413 80.7367 97.2905 80.9406 97.3032 81.1673C97.3159 81.3939 97.6872 81.5574 98.1326 81.5325Z" fill="white" stroke="black" stroke-width="0.285395" stroke-miterlimit="10"/>
<path d="M94.517 72.0452C92.3737 71.6029 90.1419 71.7541 88.0871 72.5076C87.5734 72.6959 87.796 73.5236 88.3154 73.3324C90.2275 72.6303 92.2938 72.459 94.2887 72.87C94.8253 72.9813 95.0564 72.1565 94.517 72.0452Z" fill="black"/>
<path d="M74.4567 73.7205C73.3094 71.8882 71.2546 70.8152 69.1855 70.1816C66.9708 69.5023 64.5421 69.2341 62.356 69.9989C60.1699 70.7638 58.3091 72.7416 58.1949 75.0561C58.1835 75.3016 58.1835 75.567 58.038 75.7639C57.9381 75.9009 57.7811 75.9808 57.6298 76.0579C57.236 76.2576 56.8193 76.4631 56.5568 76.8199C56.2942 77.1766 56.24 77.7303 56.5625 78.0328C56.9135 78.3582 57.47 78.2326 57.9267 78.0956C64.6877 76.0807 71.8853 76.3005 78.9374 76.5373C79.1657 76.0236 78.5379 75.5613 78.0185 75.3444C76.894 74.8735 75.7695 74.4026 74.6451 73.9317L74.4539 73.7233L74.4567 73.7205Z" fill="#FFDC00"/>
<path d="M74.8279 73.5036C73.1897 70.9407 69.9904 69.6936 67.0965 69.2569C64.0485 68.7974 60.8007 69.4681 58.8743 72.0538C58.4776 72.5875 58.1665 73.1954 57.9782 73.8318C57.8783 74.1628 57.8183 74.5053 57.7869 74.8478C57.7727 75.0133 57.7926 75.2017 57.7498 75.3644C57.7013 75.547 57.5786 75.6041 57.4188 75.6869C56.7966 76.0122 56.1145 76.3918 55.9519 77.1395C55.8006 77.833 56.1716 78.5123 56.8937 78.6378C57.6157 78.7634 58.4433 78.381 59.1397 78.1983C59.9788 77.9786 60.8264 77.7902 61.6769 77.6304C63.432 77.3022 65.2072 77.0967 66.9909 76.974C70.9693 76.7 74.9591 76.8284 78.9404 76.9626C79.1373 76.9683 79.2914 76.8227 79.3542 76.6486C79.7281 75.5898 78.4295 75.0533 77.6818 74.7393C77.0968 74.4939 76.5145 74.2513 75.9295 74.0059C75.627 73.8803 75.3273 73.7376 75.0219 73.6263C74.7166 73.515 75.002 73.6634 74.9021 73.5749C74.8507 73.5293 74.805 73.4722 74.7594 73.4208C74.3855 73.0156 73.7805 73.6206 74.1543 74.0259C74.3998 74.2913 74.6509 74.394 74.9905 74.5339C75.4871 74.7422 75.9837 74.9505 76.4832 75.1589C76.9541 75.3558 77.4335 75.5356 77.8959 75.7525C78.1327 75.8638 78.6436 76.1007 78.5294 76.4232L78.9433 76.1092C72.4562 75.8923 65.8522 75.6811 59.4965 77.228C59.1083 77.3222 58.7202 77.4249 58.332 77.5334C58.001 77.6275 57.6557 77.7645 57.3132 77.8016C57.0392 77.833 56.7624 77.7702 56.7709 77.4477C56.7795 77.1252 57.0535 76.8855 57.3103 76.7228C57.5672 76.5602 57.864 76.4517 58.1123 76.2748C58.4205 76.055 58.5632 75.7468 58.6032 75.3758C58.6717 74.7536 58.7202 74.1771 58.9656 73.5921C60.0901 70.9293 63.0496 69.8477 65.758 69.979C67.4162 70.0589 69.1143 70.4927 70.6269 71.1748C71.9939 71.7884 73.2639 72.6617 74.083 73.9402C74.3798 74.4026 75.119 73.9745 74.8222 73.5093L74.8279 73.5036Z" fill="black"/>
<path d="M76.3777 76.5459C77.5021 76.6372 77.5278 78.5094 77.602 79.6339C77.6363 80.1305 77.6106 80.6356 77.4565 81.1094C77.2396 81.78 76.7715 82.3508 76.2207 82.7903C74.9535 83.8006 73.2697 84.1574 71.6515 84.1231C70.0333 84.0889 68.4437 83.7036 66.8597 83.3725C65.1616 83.0187 63.4207 82.7161 61.8739 81.9285C60.3271 81.1408 58.9657 79.768 58.686 78.0528C58.686 78.0528 64.9876 75.607 76.3777 76.5459Z" fill="white"/>
<path d="M76.3775 76.974C76.8684 77.0311 76.9854 77.8245 77.0482 78.1926C77.1566 78.8376 77.2108 79.5425 77.1823 80.1932C77.1052 82.0283 75.3472 83.11 73.729 83.4896C71.8511 83.9319 69.9133 83.578 68.0582 83.187C66.2032 82.796 64.2796 82.5306 62.5444 81.7715C60.9119 81.058 59.4193 79.7623 59.094 77.9358L58.7943 78.4637C59.6847 78.1184 60.6351 77.9015 61.5655 77.6989C64.2025 77.1281 66.9024 76.8598 69.5937 76.7799C71.854 76.7114 74.1172 76.7856 76.3718 76.9711C76.9197 77.0168 76.9169 76.1606 76.3718 76.115C72.7216 75.8181 69.04 75.8067 65.3984 76.2205C63.4034 76.446 61.4028 76.7799 59.4707 77.345C59.1682 77.4335 58.86 77.5248 58.566 77.639C58.3348 77.7274 58.2235 77.9158 58.2663 78.1669C58.586 79.9763 59.9759 81.4176 61.5569 82.2481C63.4862 83.2641 65.718 83.5695 67.8299 84.0147C69.9418 84.4599 72.1251 84.8338 74.2342 84.243C76.0978 83.7236 77.8815 82.3765 78.0271 80.316C78.087 79.4655 78.0014 78.498 77.8102 77.6675C77.6304 76.8912 77.2166 76.2148 76.3718 76.115C75.8267 76.0493 75.8295 76.9055 76.3718 76.9711L76.3775 76.974Z" fill="black"/>
<path d="M75.6296 85.0935C74.2054 86.3863 72.1592 86.7031 70.2356 86.7573C67.6642 86.8315 64.9387 86.4862 62.9038 84.9165" fill="#FFB500"/>
<path d="M75.327 84.7881C73.7031 86.2265 71.3172 86.3692 69.2538 86.3349C67.1904 86.3007 64.8815 85.8812 63.1235 84.5455C62.684 84.2116 62.2588 84.9565 62.6926 85.2847C64.5933 86.7288 67.0334 87.1654 69.3737 87.194C71.7139 87.2225 74.1569 86.9742 75.9377 85.396C76.3516 85.0307 75.7437 84.4256 75.3327 84.791L75.327 84.7881Z" fill="black"/>
<path d="M74.0144 87.7505C72.653 88.3955 71.2061 88.9092 69.7049 89.0034C68.2037 89.0976 66.6312 88.7351 65.4668 87.7791" fill="#FFB500"/>
<path d="M73.7975 87.3795C71.3431 88.5325 68.1096 89.3459 65.7694 87.4765C65.3441 87.1369 64.7334 87.7391 65.1643 88.0816C67.847 90.2249 71.3774 89.46 74.2313 88.1187C74.7308 87.8846 74.2941 87.1455 73.8004 87.3795H73.7975Z" fill="black"/>
<path d="M76.1919 82.5078C76.0292 81.9998 75.6068 81.6174 75.1873 81.2778C74.8334 80.9895 74.4652 80.7127 74.0743 80.4729C73.4207 80.0734 72.7072 79.7823 71.9937 79.4912C71.4857 79.2857 70.9777 79.0774 70.444 78.9461C69.7933 78.7863 69.1198 78.7434 68.4491 78.7292C67.5416 78.7121 66.614 78.7492 65.7664 79.0631C64.3937 79.5739 63.352 80.8468 63.1465 82.2624C63.1465 82.2624 67.4331 83.872 71.0319 83.9576C74.6308 84.0404 76.1919 82.5078 76.1919 82.5078Z" fill="black"/>
<path d="M76.6057 82.3936C76.2376 81.3748 75.1816 80.647 74.2912 80.1019C73.3009 79.494 72.1479 79.0345 71.0462 78.6721C69.9446 78.3096 68.6147 78.2411 67.4132 78.3153C66.3087 78.3838 65.2584 78.6749 64.3851 79.3713C63.5118 80.0677 62.9125 81.0609 62.7384 82.1482C62.6984 82.3936 62.8012 82.5849 63.0381 82.6762C64.6677 83.2869 66.38 83.7436 68.0895 84.0546C70.4754 84.4913 73.0497 84.634 75.3015 83.578C75.721 83.3811 76.1634 83.1357 76.5001 82.8075C76.894 82.4222 76.2889 81.8171 75.8951 82.2024C75.878 82.2167 75.8637 82.2338 75.8466 82.2481C75.8266 82.2652 75.8066 82.2795 75.7895 82.2966C75.6982 82.3737 75.8152 82.2795 75.7581 82.3194C75.5469 82.4736 75.3214 82.6105 75.0903 82.7304C74.2512 83.1642 73.3009 83.3954 72.3648 83.4839C69.899 83.7179 67.3732 83.1271 65.0244 82.4279C64.4336 82.2509 63.8457 82.0654 63.2692 81.8514L63.5689 82.3794C63.7373 81.3263 64.3423 80.3816 65.2499 79.8051C66.3543 79.103 67.7357 79.1087 68.9971 79.1772C70.367 79.2514 71.6142 79.7452 72.8499 80.3103C73.4293 80.5728 73.9772 80.8839 74.4881 81.2635C74.9676 81.6202 75.5783 82.0369 75.7895 82.622C75.975 83.1357 76.8027 82.9131 76.6143 82.3936H76.6057Z" fill="black"/>
<path d="M67.1993 80.5951C67.2793 80.1739 66.7905 79.7274 66.1076 79.5977C65.4247 79.4681 64.8063 79.7044 64.7263 80.1256C64.6464 80.5468 65.1351 80.9934 65.818 81.123C66.5009 81.2527 67.1194 81.0163 67.1993 80.5951Z" fill="white" stroke="black" stroke-width="0.285395" stroke-miterlimit="10"/>
<path d="M73.315 82.0949C74.0064 81.8118 74.4686 81.3422 74.3473 81.0461C74.226 80.75 73.5673 80.7395 72.8759 81.0226C72.1845 81.3058 71.7223 81.7753 71.8436 82.0714C71.9648 82.3675 72.6236 82.378 73.315 82.0949Z" fill="white" stroke="black" stroke-width="0.285395" stroke-miterlimit="10"/>
<path d="M72.968 83.2541C73.4134 83.2292 73.7642 83.0253 73.7515 82.7987C73.7388 82.5721 73.3675 82.4085 72.9221 82.4334C72.4768 82.4583 72.126 82.6622 72.1387 82.8889C72.1513 83.1155 72.5226 83.279 72.968 83.2541Z" fill="white" stroke="black" stroke-width="0.285395" stroke-miterlimit="10"/>
<path d="M69.3539 73.769C67.2106 73.3266 64.9788 73.4779 62.924 74.2313C62.4103 74.4197 62.6329 75.2474 63.1523 75.0561C65.0645 74.3541 67.1307 74.1828 69.1256 74.5938C69.6622 74.7051 69.8933 73.8803 69.3539 73.769Z" fill="black"/>
<path d="M70.1356 98.7411L96.8543 97.7964C98.775 97.7279 100.744 97.6508 102.525 97.0144C103.396 96.7033 104.297 96.1411 104.377 95.3391C104.483 94.2832 103.067 93.5469 101.834 93.6011C100.602 93.6582 99.4771 94.2147 98.2927 94.5201C97.0255 94.8454 95.6899 94.8854 94.3714 94.8968C86.1948 94.971 77.887 94.1319 69.9244 95.7958C68.8542 96.0184 67.7726 96.2981 66.8878 96.866C66.0031 97.4339 65.3524 98.3472 65.458 99.2833C65.5465 100.048 66.1201 100.716 66.8308 101.178C68.526 102.289 70.832 102.36 72.9753 102.363C77.7671 102.368 82.5589 102.26 87.3449 102.035C89.9592 101.912 92.5991 101.752 95.1163 101.11C95.9753 100.89 96.88 100.573 97.3509 99.9169C97.8218 99.2605 97.1825 97.9905 96.3064 97.8363" fill="#EF7800"/>
<path d="M70.1357 99.1692C78.6148 98.8695 87.0939 98.5698 95.5758 98.2702C97.5165 98.2017 99.4915 98.2045 101.398 97.7821C102.702 97.4939 105.071 96.7519 104.786 94.9824C104.54 93.4527 102.537 93.0503 101.275 93.2329C100.331 93.3699 99.4515 93.7381 98.5411 94.0092C97.5822 94.2946 96.5947 94.4059 95.5958 94.4459C91.5261 94.6114 87.4364 94.3602 83.3666 94.3289C79.2969 94.2975 75.2671 94.423 71.2773 95.1051C69.5022 95.4076 67.4274 95.7016 66.0517 96.9745C65.4867 97.4967 65.0614 98.2045 65.0186 98.9865C64.973 99.8256 65.4553 100.602 66.066 101.138C67.3589 102.271 69.1397 102.614 70.8036 102.734C72.7985 102.879 74.8191 102.799 76.814 102.777C80.9979 102.728 85.196 102.634 89.3714 102.36C91.3549 102.229 93.3498 102.017 95.279 101.515C96.5719 101.178 98.4469 100.356 97.7934 98.6954C97.5565 98.0961 97.0627 97.5681 96.4149 97.4311C95.8784 97.3169 95.6472 98.1417 96.1866 98.2559C96.6832 98.3615 97.1227 98.918 97.0742 99.4374C97.0171 100.045 96.0696 100.376 95.5901 100.533C93.8578 101.096 91.9913 101.298 90.1847 101.444C86.3576 101.749 82.5019 101.826 78.6662 101.895C76.7284 101.929 74.7934 101.946 72.8556 101.94C71.2459 101.935 69.5707 101.912 68.0495 101.33C67.3332 101.056 66.5797 100.616 66.1573 99.954C65.735 99.2919 65.8291 98.6269 66.2601 98.0247C67.2533 96.6377 69.2853 96.3466 70.8378 96.0555C78.2324 94.6685 85.8011 95.3363 93.2727 95.3363C95.1335 95.3363 97.0342 95.362 98.8322 94.8197C100.265 94.3859 101.963 93.5355 103.393 94.4287C103.861 94.7227 104.141 95.2221 103.781 95.7244C103.341 96.338 102.488 96.6092 101.797 96.8032C100.054 97.297 98.2272 97.3255 96.4292 97.3883C88.6122 97.6651 80.7952 97.9391 72.9811 98.2159L70.1386 98.3158C69.5878 98.3358 69.5878 99.192 70.1386 99.172L70.1357 99.1692Z" fill="black"/>
<path d="M15.5342 148.537C16.7728 147.983 17.258 146.513 17.6118 145.203C18.1598 143.168 18.7078 141.134 19.2557 139.096C17.6918 139.196 16.4246 140.394 15.5028 141.659C14.581 142.923 13.8218 144.353 12.5918 145.323C11.5444 143.842 11.3959 141.887 10.4513 140.337C9.29829 138.442 7.15498 137.426 5.13438 136.516C5.41122 137.438 5.6852 138.365 5.81933 139.318C6.03623 140.891 5.85643 142.492 5.96488 144.076C6.07333 145.66 6.53282 147.327 7.74289 148.357C5.21715 148.754 2.74848 149.501 0.428223 150.569C1.15883 151.505 2.36605 151.97 3.55044 152.053C4.73483 152.136 5.91351 151.884 7.07222 151.619C9.99751 150.948 12.9513 150.166 15.4971 148.582" fill="#E05E00"/>
<path d="M15.7481 148.908C17.1551 148.246 17.6659 146.639 18.0398 145.249C18.582 143.237 19.1243 141.222 19.6665 139.21C19.735 138.959 19.5353 138.645 19.2527 138.668C15.6453 138.962 14.7235 143.06 12.2834 145.021L12.9569 145.106C11.7497 143.357 11.6698 141.096 10.3142 139.416C9.047 137.843 7.14342 136.958 5.34258 136.145C5.02294 135.999 4.5977 136.242 4.71471 136.627C5.04577 137.737 5.37112 138.85 5.45674 140.012C5.54236 141.174 5.46244 142.395 5.50525 143.585C5.57089 145.42 5.99328 147.395 7.43167 148.659L7.62003 147.943C5.05433 148.351 2.56569 149.116 0.202618 150.198C-0.071361 150.323 -0.0399676 150.677 0.117 150.871C1.47548 152.552 3.79859 152.664 5.76496 152.324C7.97107 151.944 10.2114 151.362 12.3062 150.58C13.4849 150.141 14.6322 149.61 15.7024 148.948C16.1705 148.659 15.7395 147.917 15.2715 148.209C13.0054 149.607 10.4454 150.369 7.87688 150.985C5.60514 151.531 2.46294 152.415 0.722037 150.263L0.636418 150.937C2.92814 149.887 5.3597 149.165 7.8512 148.768C8.16513 148.717 8.26788 148.251 8.03956 148.052C6.61259 146.799 6.36715 144.815 6.35288 143.023C6.34146 141.904 6.40139 140.78 6.28724 139.664C6.17308 138.548 5.8677 137.472 5.54521 136.399L4.91734 136.881C6.64398 137.66 8.51046 138.494 9.71483 140.018C10.9934 141.639 11.059 143.848 12.2234 145.537C12.3918 145.783 12.6715 145.806 12.897 145.623C14.1299 144.633 14.8976 143.231 15.808 141.967C16.6299 140.825 17.7772 139.641 19.2613 139.521L18.8475 138.979C18.3423 140.857 17.8372 142.735 17.3292 144.61C16.981 145.897 16.6499 147.538 15.32 148.163C14.8205 148.397 15.2572 149.136 15.7509 148.902L15.7481 148.908Z" fill="black"/>
<path d="M12.4004 150.574C12.8484 151.485 13.5191 152.253 14.0185 153.132C14.5836 154.128 14.6921 155.275 14.8833 156.385C14.9746 156.927 15.7994 156.696 15.7081 156.157C15.5112 154.998 15.3799 153.828 14.8062 152.783C14.3039 151.867 13.6019 151.08 13.1424 150.141C12.8998 149.647 12.1606 150.081 12.4032 150.572L12.4004 150.574Z" fill="black"/>
<path d="M35.038 160.515C33.5825 159.607 31.6446 160.098 30.1777 160.989C28.7108 161.879 27.4665 163.129 25.9082 163.845C24.1045 164.676 22.0383 164.716 20.0576 164.556C22.1467 165.455 24.3671 166.049 26.6246 166.314C27.3637 166.4 28.1286 166.448 28.8392 166.228C29.5641 166.003 30.172 165.518 30.7628 165.041C31.9186 164.111 33.0716 163.18 34.2275 162.247C34.7811 161.802 35.3548 161.325 35.6202 160.666" fill="#730000"/>
<path d="M35.2546 160.147C33.448 159.065 31.2305 159.776 29.6009 160.849C28.6962 161.445 27.8686 162.15 26.9639 162.752C26.0592 163.354 25.0375 163.805 23.9358 164.019C22.6601 164.265 21.3444 164.231 20.0573 164.131C19.6492 164.099 19.4523 164.761 19.8404 164.93C22.1007 165.894 24.5009 166.551 26.9525 166.779C28.1739 166.893 29.2584 166.682 30.2659 165.966C31.2733 165.249 32.2494 164.393 33.2311 163.603C33.7677 163.172 34.3099 162.747 34.8351 162.304C35.306 161.908 35.7426 161.459 35.9881 160.889C36.205 160.389 35.4658 159.953 35.2489 160.458C34.8408 161.408 33.8362 162.022 33.0571 162.65C32.1295 163.397 31.2048 164.151 30.2716 164.896C29.8806 165.207 29.4668 165.515 29.0073 165.718C28.4822 165.949 27.9114 165.986 27.3463 165.957C26.2104 165.9 25.066 165.68 23.9615 165.415C22.7001 165.112 21.4643 164.704 20.2714 164.196L20.0545 164.995C22.2235 165.167 24.4809 165.09 26.4502 164.065C28.2795 163.115 29.698 161.437 31.6757 160.76C32.7089 160.406 33.8476 160.318 34.8151 160.9C35.2888 161.185 35.7198 160.443 35.246 160.161L35.2546 160.147Z" fill="black"/>
<path d="M35.4658 160.983C36.9528 160.983 38.4397 160.983 39.9266 160.983C40.4774 160.983 40.4774 160.127 39.9266 160.127C38.4397 160.127 36.9528 160.127 35.4658 160.127C34.915 160.127 34.915 160.983 35.4658 160.983Z" fill="black"/>
<path d="M107.554 50.4608C110.619 50.6292 113.635 51.5853 116.723 51.1429C119.252 50.7804 121.832 49.1908 122.391 46.5309C122.634 45.3779 122.443 44.048 121.587 43.1832C120.802 42.3898 119.523 42.2614 118.644 42.9863C117.608 43.8425 118.059 45.3237 119.009 46.0372C119.535 46.4339 120.177 46.6365 120.805 46.8078C121.535 47.0047 122.28 47.1531 123.036 47.2187C124.578 47.3529 126.196 47.0846 127.449 46.1285C128.539 45.2952 129.307 44.0337 129.258 42.6324C129.241 42.0816 128.382 42.0816 128.402 42.6324C128.436 43.6484 127.948 44.5503 127.209 45.2238C126.367 45.9887 125.257 46.3369 124.135 46.3911C122.899 46.4482 121.635 46.2056 120.465 45.8174C119.954 45.6462 119.418 45.3979 119.112 44.9299C118.867 44.5503 118.79 44.0508 119.126 43.7055C119.769 43.0405 120.785 43.4116 121.224 44.0965C121.769 44.947 121.726 46.0429 121.375 46.959C120.559 49.0852 118.319 50.1469 116.178 50.3609C113.279 50.6492 110.436 49.7701 107.557 49.6132C107.006 49.5818 107.009 50.4408 107.557 50.4694L107.554 50.4608Z" fill="black"/>
<path d="M142.366 174.976C140.631 175.076 138.944 174.239 137.657 173.069C136.37 171.899 135.417 170.418 134.481 168.954C133.219 169.627 132.597 171.203 132.811 172.618C133.025 174.034 133.953 175.267 135.106 176.114C136.247 176.953 137.68 177.467 139.087 177.29C140.494 177.113 142.081 176.774 142.492 175.418L142.366 174.973V174.976Z" fill="#553A00"/>
<path d="M142.367 174.548C138.785 174.707 136.553 171.4 134.849 168.737C134.724 168.54 134.473 168.466 134.264 168.583C133.154 169.202 132.503 170.375 132.366 171.617C132.221 172.938 132.752 174.217 133.565 175.235C134.441 176.331 135.705 177.17 137.058 177.547C138.32 177.895 139.741 177.764 140.968 177.33C141.573 177.116 142.138 176.797 142.526 176.277C142.695 176.055 142.917 175.706 142.917 175.418C142.917 175.235 142.826 175.036 142.777 174.862C142.629 174.331 141.801 174.556 141.953 175.09C141.987 175.213 142.015 175.341 142.058 175.464C142.064 175.481 142.073 175.504 142.075 175.524C142.047 175.247 142.061 175.432 142.021 175.469C141.944 175.541 141.907 175.692 141.841 175.781C141.585 176.126 141.182 176.348 140.785 176.494C139.792 176.856 138.616 177.028 137.578 176.799C135.466 176.337 133.231 174.428 133.197 172.125C133.18 171.006 133.699 169.884 134.695 169.328L134.11 169.174C135.982 172.096 138.454 175.581 142.367 175.407C142.914 175.381 142.917 174.525 142.367 174.55V174.548Z" fill="black"/>
<path d="M9.15266 172.947C10.143 173.218 11.1247 172.256 11.276 171.24C11.4273 170.224 11.0049 169.222 10.5911 168.283C10.1544 169.205 9.65495 170.193 8.74455 170.652C8.21086 170.923 7.60011 170.977 7.00934 171.069C6.39575 171.163 5.78785 171.303 5.19709 171.488C4.98304 171.554 4.74046 171.659 4.69479 171.879C4.67196 171.996 4.71477 172.116 4.76329 172.225C5.18853 173.166 6.11321 173.777 7.04074 174.234C8.40778 174.904 9.88612 175.35 11.3959 175.544C12.4661 175.684 13.659 175.664 14.4924 174.976C13.0768 173.532 10.6424 173.883 8.85585 172.932" fill="#FFA00C"/>
<path d="M9.03829 173.358C10.1684 173.62 11.173 172.824 11.564 171.802C12.0406 170.558 11.4584 169.205 10.959 168.066C10.8334 167.781 10.3511 167.792 10.2198 168.066C9.96297 168.606 9.7004 169.165 9.31797 169.63C8.90986 170.124 8.40756 170.387 7.78255 170.515C7.09475 170.655 6.40124 170.723 5.71914 170.895C5.17119 171.034 4.32927 171.18 4.26363 171.879C4.20941 172.453 4.73739 173.081 5.11982 173.457C5.55647 173.888 6.0816 174.222 6.62385 174.505C7.87673 175.156 9.24377 175.612 10.6336 175.86C12.0521 176.112 13.596 176.223 14.7918 175.281C14.9716 175.138 14.9403 174.824 14.7918 174.676C13.2364 173.138 10.9019 173.512 9.06968 172.567C8.58165 172.316 8.14785 173.052 8.63873 173.306C9.552 173.777 10.5509 173.951 11.5469 174.154C12.5429 174.356 13.4762 174.579 14.1897 175.281V174.676C13.3106 175.37 12.0207 175.23 10.9932 175.059C9.74321 174.85 8.51887 174.471 7.37443 173.925C6.88356 173.691 6.39268 173.429 5.97315 173.078C5.77908 172.915 5.59072 172.733 5.4366 172.53C5.35955 172.43 5.29105 172.322 5.23112 172.21C5.1455 172.053 5.10555 172.039 5.2197 171.936C5.30247 171.859 5.51937 171.842 5.63067 171.811C5.77908 171.768 5.93034 171.731 6.0816 171.694C6.40409 171.617 6.7323 171.551 7.0605 171.497C7.63414 171.405 8.2135 171.351 8.75289 171.123C9.87449 170.649 10.4653 169.55 10.9618 168.506H10.2227C10.5908 169.345 11.0475 170.344 10.8334 171.283C10.6793 171.965 10.0343 172.715 9.2666 172.538C8.73006 172.413 8.50174 173.241 9.03829 173.363V173.358Z" fill="black"/>
<path d="M4.74016 171.54C3.62426 171.291 2.50552 171.043 1.38962 170.795C1.16416 170.743 0.927283 170.863 0.861642 171.094C0.801709 171.308 0.932991 171.571 1.16131 171.622C2.2772 171.871 3.39595 172.119 4.51184 172.367C4.7373 172.419 4.97418 172.299 5.03982 172.068C5.09976 171.854 4.96847 171.591 4.74016 171.54Z" fill="black"/>
<path d="M6.8695 174.839C5.55954 174.779 4.12115 174.759 3.09088 175.572C3.0338 175.618 2.97672 175.669 2.95103 175.738C2.92249 175.818 2.94247 175.909 2.97957 175.986C3.16222 176.38 3.6531 176.505 4.08405 176.557C5.65658 176.745 7.25764 176.565 8.83302 176.725C10.611 176.908 12.3634 177.521 14.1414 177.356C14.3155 177.339 14.5381 177.267 14.5438 177.093C14.5466 176.979 14.4496 176.891 14.3583 176.819C13.1482 175.909 11.5842 175.661 10.0888 175.435C8.99284 175.273 7.96542 175.001 6.8695 174.839Z" fill="black"/>
<path d="M6.86965 174.411C6.03629 174.374 5.19438 174.356 4.3753 174.533C3.77882 174.662 2.51452 175.053 2.50881 175.821C2.50311 176.588 3.45062 176.908 4.08419 176.982C5.08022 177.102 6.08767 177.073 7.0894 177.076C8.09114 177.079 9.06719 177.153 10.0518 177.333C11.0364 177.513 11.9697 177.718 12.9486 177.787C13.5251 177.827 15.1318 177.981 14.9606 176.974C14.9007 176.625 14.5696 176.423 14.2928 176.246C13.9075 175.997 13.4851 175.806 13.057 175.646C12.178 175.324 11.2448 175.176 10.3229 175.033C9.20418 174.864 8.10541 174.59 6.98951 174.419C6.45012 174.336 6.21895 175.161 6.7612 175.244C7.56887 175.367 8.36512 175.549 9.16993 175.701C9.88056 175.835 10.5998 175.92 11.3104 176.06C11.9754 176.192 12.646 176.357 13.2596 176.648C13.3995 176.714 13.5336 176.785 13.6678 176.862C13.7762 176.925 13.9731 177.113 14.093 177.142C14.2129 177.17 14.2756 176.948 14.1615 176.916C14.1044 176.899 13.9389 176.939 13.8818 176.942C13.682 176.954 13.4822 176.954 13.2825 176.948C11.6871 176.896 10.1488 176.394 8.56204 176.269C7.74866 176.206 6.92958 176.223 6.11335 176.22C5.37133 176.22 4.55224 176.26 3.82734 176.075C3.68179 176.037 3.56192 175.986 3.44206 175.9C3.43349 175.895 3.36215 175.818 3.365 175.792C3.33931 175.969 3.55051 175.772 3.58475 175.752C3.89869 175.558 4.24687 175.438 4.60647 175.358C5.34564 175.198 6.12191 175.233 6.8725 175.267C7.42331 175.29 7.42331 174.433 6.8725 174.411H6.86965Z" fill="black"/>
<path d="M28.9905 174.462C27.1012 174.319 25.2061 174.268 23.3111 174.308C22.8317 174.316 22.3493 174.334 21.8841 174.451C20.9423 174.687 20.1375 175.324 19.1929 175.544C19.2043 175.932 19.6581 176.126 20.0348 176.22C22.0468 176.722 24.1017 177.048 26.1679 177.199C28.3569 177.359 30.5516 177.319 32.7463 177.276C33.1344 177.27 33.5283 177.262 33.9021 177.15C34.2532 177.045 34.5785 176.851 34.8325 176.588C33.1515 175.415 31.1766 174.673 29.1389 174.445" fill="black"/>
<path d="M28.9905 174.034C27.1953 173.903 25.3945 173.846 23.5936 173.874C22.7974 173.886 22.0011 173.911 21.2534 174.208C20.5057 174.505 19.8493 174.936 19.0787 175.13C18.9132 175.17 18.7419 175.361 18.7648 175.544C18.8875 176.594 20.1717 176.705 20.9994 176.882C22.161 177.133 23.3368 177.327 24.5183 177.467C26.9014 177.75 29.3015 177.761 31.696 177.721C32.9175 177.701 34.1932 177.81 35.135 176.888C35.3433 176.682 35.2691 176.368 35.0494 176.214C33.2885 174.999 31.2622 174.259 29.1389 174.014C28.5938 173.951 28.5966 174.807 29.1389 174.87C31.1081 175.098 32.986 175.829 34.6156 176.954L34.53 176.28C34.0619 176.737 33.5083 176.825 32.8775 176.842C32.2468 176.859 31.5761 176.868 30.9283 176.874C29.5983 176.888 28.2684 176.885 26.9385 176.814C25.6085 176.742 24.2986 176.605 22.9914 176.391C22.355 176.286 21.7214 176.163 21.0907 176.026C20.7768 175.957 20.46 175.889 20.1489 175.803C20.0405 175.775 19.6381 175.692 19.6209 175.541L19.307 175.955C20.0376 175.772 20.6769 175.381 21.359 175.084C22.1238 174.753 22.9144 174.739 23.7363 174.727C25.4887 174.705 27.241 174.759 28.9905 174.887C29.5413 174.927 29.5384 174.071 28.9905 174.031V174.034Z" fill="black"/>
<path d="M135.2 176.582C134.475 176.508 133.736 176.437 133.017 176.525C132.466 176.594 131.941 176.757 131.396 176.851C130.699 176.971 129.917 176.996 129.406 177.379C129.181 177.547 129.035 177.767 128.904 177.987C128.864 178.055 128.821 178.129 128.844 178.204C128.876 178.315 129.03 178.372 129.167 178.415C130.805 178.914 132.569 179.168 134.332 179.16C135.834 179.151 137.326 178.951 138.83 178.957C139.284 178.957 139.761 178.977 140.16 178.814C140.474 178.689 140.74 178.452 141.093 178.452C141.185 178.452 141.293 178.463 141.35 178.409C141.407 178.355 141.367 178.275 141.319 178.215C141.019 177.835 140.483 177.601 139.938 177.447C139.467 177.316 138.97 177.23 138.471 177.199C138.16 177.179 137.848 177.179 137.54 177.145C137.266 177.113 136.998 177.056 136.73 176.999C136.179 176.879 135.628 176.762 135.077 176.642" fill="black"/>
<path d="M135.2 176.154C134.161 176.049 133.176 176.026 132.152 176.251C131.712 176.348 131.279 176.44 130.833 176.505C130.431 176.563 130.026 176.617 129.646 176.768C129.07 176.996 127.874 178.041 128.67 178.649C129.01 178.908 129.538 178.974 129.943 179.074C130.419 179.191 130.902 179.285 131.387 179.362C132.406 179.522 133.439 179.599 134.469 179.585C135.5 179.571 136.53 179.471 137.56 179.419C138.065 179.394 138.567 179.388 139.076 179.388C139.584 179.388 140.034 179.351 140.477 179.14C140.642 179.06 140.802 178.94 140.982 178.897C141.173 178.854 141.35 178.897 141.53 178.797C141.935 178.572 141.818 178.115 141.553 177.833C140.871 177.102 139.686 176.891 138.742 176.794C138.145 176.731 137.566 176.737 136.975 176.614C136.384 176.491 135.785 176.357 135.188 176.229C134.652 176.112 134.421 176.939 134.96 177.053C136.036 177.285 137.098 177.561 138.202 177.613C138.753 177.638 139.292 177.71 139.82 177.861C140.034 177.921 140.248 177.992 140.448 178.089C140.568 178.149 140.925 178.309 140.962 178.46L141.005 178.129C141.045 178.041 141.319 178.055 141.09 178.024C141.039 178.018 140.971 178.032 140.919 178.041C140.785 178.058 140.668 178.098 140.545 178.149C140.3 178.252 140.08 178.409 139.818 178.475C139.235 178.617 138.576 178.523 137.982 178.546C136.653 178.595 135.325 178.749 133.99 178.732C132.725 178.714 131.467 178.563 130.237 178.266C129.937 178.195 129.635 178.118 129.341 178.024C129.326 178.018 129.192 177.961 129.181 177.97L129.275 178.206L129.332 178.112C129.441 178.004 129.495 177.861 129.618 177.758C130 177.436 130.588 177.399 131.062 177.333C131.695 177.242 132.309 177.065 132.94 176.968C133.687 176.854 134.452 176.936 135.2 177.011C135.748 177.065 135.745 176.209 135.2 176.154Z" fill="black"/>
<path d="M117.446 59.7104C118.428 60.2156 119.441 60.658 120.477 61.0318C120.988 61.2173 121.507 61.3829 122.029 61.5341C122.472 61.6597 122.94 61.8167 123.405 61.7767C123.87 61.7368 124.213 61.5056 124.409 61.1003C124.606 60.6951 124.624 60.3155 125.16 60.3783C125.625 60.4325 126.059 60.6951 126.473 60.8948C126.998 61.1488 127.52 61.4 128.045 61.654C129.261 62.2419 130.477 62.8298 131.696 63.4149C132.189 63.6546 132.623 62.9154 132.127 62.6757C131.056 62.1591 129.986 61.6426 128.919 61.126C127.928 60.6465 126.944 60.09 125.914 59.6962C125.072 59.3737 124.144 59.465 123.773 60.384C123.707 60.5438 123.67 60.7835 123.508 60.8777C123.345 60.9719 123.082 60.9148 122.908 60.8777C122.392 60.7636 121.884 60.598 121.381 60.4354C120.174 60.0387 119.004 59.5449 117.877 58.9656C117.389 58.7144 116.955 59.4536 117.446 59.7047V59.7104Z" fill="black"/>
</g>
<ellipse cx="195.296" cy="69.7888" rx="34.3774" ry="54.2802" fill="url(#paint0_radial_148_1159)"/>
<path d="M195.368 8.35396C195.901 11.9003 195.906 15.5189 195.368 19.0601C194.83 15.5138 194.836 11.8951 195.368 8.35396Z" fill="black"/>
<path d="M188.958 3.07588C190.023 8.5039 190.566 14.0301 190.571 19.5564C189.501 14.1335 188.968 8.60212 188.958 3.07588Z" fill="black"/>
<path d="M183.494 7.88356C184.802 12.1433 185.603 16.558 185.861 21.009C184.548 16.7493 183.757 12.3345 183.494 7.88356Z" fill="black"/>
<path d="M174.922 4.34756C177.564 10.5252 179.709 16.8734 181.338 23.387C178.691 17.2145 176.556 10.8612 174.922 4.34756Z" fill="black"/>
<path d="M170.958 12.5361C173.485 17.013 175.548 21.7483 177.094 26.649C174.566 22.1722 172.508 17.4369 170.958 12.5361Z" fill="black"/>
<path d="M167.158 19.6339C169.629 23.0561 171.671 26.7886 173.211 30.7277C170.735 27.3055 168.698 23.5679 167.158 19.6339Z" fill="black"/>
<path d="M161.146 24.4054C164.423 27.7759 167.318 31.5187 169.753 35.5406C166.471 32.17 163.586 28.4273 161.146 24.4054Z" fill="black"/>
<path d="M157.196 31.6944C160.753 34.4033 163.984 37.5308 166.796 40.9996C163.239 38.2959 160.014 35.1632 157.196 31.6944Z" fill="black"/>
<path d="M150.093 37.8048C155.134 40.4155 159.936 43.4965 164.397 47.0014C159.352 44.396 154.56 41.3098 150.093 37.8048Z" fill="black"/>
<path d="M151.592 48.2783C155.469 49.5035 159.181 51.2301 162.603 53.422C158.726 52.202 155.02 50.465 151.592 48.2783Z" fill="black"/>
<path d="M154.239 57.9867C156.762 58.1832 159.233 58.9172 161.451 60.1372C158.928 59.946 156.457 59.2016 154.239 57.9867Z" fill="black"/>
<path d="M148.682 66.4131C152.776 66.0822 156.912 66.2838 160.954 67.0179C156.86 67.3539 152.724 67.142 148.682 66.4131Z" fill="black"/>
<path d="M141 76.5764C147.638 75.1703 154.353 74.2811 161.13 73.9296C154.492 75.3408 147.777 76.2197 141 76.5764Z" fill="black"/>
<path d="M151.789 84.5064C154.978 82.7643 158.416 81.4874 161.973 80.743C158.788 82.4903 155.345 83.7569 151.789 84.5064Z" fill="black"/>
<path d="M154.125 92.9897C156.943 90.6582 160.101 88.7351 163.472 87.3135C160.655 89.6502 157.496 91.5629 154.125 92.9897Z" fill="black"/>
<path d="M153.081 103.287C156.911 99.6273 161.104 96.3499 165.591 93.5325C161.765 97.1977 157.563 100.465 153.081 103.287Z" fill="black"/>
<path d="M161.745 107.49C163.498 104.435 165.705 101.649 168.29 99.2603C166.542 102.315 164.325 105.097 161.745 107.49Z" fill="black"/>
<path d="M163.374 116.294C165.674 112.06 168.44 108.085 171.619 104.461C169.324 108.695 166.548 112.67 163.374 116.294Z" fill="black"/>
<path d="M165.995 125.615C168.6 119.768 171.671 114.164 175.212 108.829C172.612 114.681 169.531 120.274 165.995 125.615Z" fill="black"/>
<path d="M174.938 125.155C175.885 120.776 177.347 116.511 179.296 112.484C178.356 116.863 176.887 121.122 174.938 125.155Z" fill="black"/>
<path d="M181.033 127.372C181.4 123.247 182.295 119.179 183.701 115.286C183.339 119.411 182.434 123.48 181.033 127.372Z" fill="black"/>
<path d="M184.315 141.004C185.127 132.976 186.461 125.03 188.327 117.178C187.521 125.206 186.176 133.152 184.315 141.004Z" fill="black"/>
<path d="M192.484 131.958C192.158 127.341 192.36 122.694 193.099 118.129C193.43 122.746 193.218 127.393 192.484 131.958Z" fill="black"/>
<path d="M199.152 140.963C198.206 133.374 197.787 125.754 197.906 118.114C198.857 125.697 199.266 133.322 199.152 140.963Z" fill="black"/>
<path d="M204.182 129.187C203.153 125.258 202.642 121.2 202.673 117.137C203.701 121.065 204.208 125.123 204.182 129.187Z" fill="black"/>
<path d="M210.68 129.275C209.042 124.731 207.899 120.011 207.294 115.219C208.938 119.763 210.07 124.482 210.68 129.275Z" fill="black"/>
<path d="M220.161 132.79C216.847 126.194 214.019 119.396 211.693 112.391C215.012 118.982 217.829 125.785 220.161 132.79Z" fill="black"/>
<path d="M223.062 122.849C220.167 118.398 217.716 113.657 215.768 108.715C218.668 113.166 221.108 117.912 223.062 122.849Z" fill="black"/>
<path d="M230.805 119.659C226.592 114.841 222.803 109.708 219.448 104.254C223.661 109.067 227.45 114.211 230.805 119.659Z" fill="black"/>
<path d="M230.382 108.255C227.42 105.567 224.814 102.486 222.664 99.1052C225.631 101.793 228.231 104.88 230.382 108.255Z" fill="black"/>
<path d="M238.244 103.344C233.633 100.449 229.306 97.1046 225.346 93.367C229.963 96.262 234.284 99.6118 238.244 103.344Z" fill="black"/>
<path d="M244.344 95.8639C238.471 93.4291 232.831 90.5238 227.445 87.1377C233.323 89.5674 238.957 92.483 244.344 95.8639Z" fill="black"/>
<path d="M240.163 84.5788C236.26 83.7465 232.47 82.3921 228.929 80.5518C232.832 81.3841 236.621 82.7436 240.163 84.5788Z" fill="black"/>
<path d="M248.159 76.2042C241.956 75.9095 235.815 75.0927 229.756 73.7383C235.959 74.0278 242.101 74.8549 248.159 76.2042Z" fill="black"/>
<path d="M241.485 66.2424C237.675 66.9662 233.772 67.1678 229.916 66.8214C233.721 66.0925 237.629 65.9013 241.485 66.2424Z" fill="black"/>
<path d="M247.642 55.8465C241.676 57.7282 235.592 59.0982 229.398 59.9408C235.359 58.0539 241.449 56.6892 247.642 55.8465Z" fill="black"/>
<path d="M236.874 48.8625C234.253 50.7804 231.327 52.2692 228.226 53.2359C230.841 51.3129 233.778 49.8344 236.874 48.8625Z" fill="black"/>
<path d="M239.216 38.3631C235.256 41.62 230.96 44.4632 226.411 46.8257C230.371 43.5689 234.667 40.7308 239.216 38.3631Z" fill="black"/>
<path d="M237.221 29.0942C233.178 33.3952 228.753 37.3396 224.002 40.8445C228.04 36.5383 232.475 32.6043 237.221 29.0942Z" fill="black"/>
<path d="M229.632 24.2606C227.197 28.2825 224.307 32.0253 221.024 35.3958C223.459 31.3739 226.354 27.6312 229.632 24.2606Z" fill="black"/>
<path d="M221.996 21.4329C221.004 24.6949 219.505 27.8018 217.556 30.6037C218.543 27.3365 220.047 24.2348 221.996 21.4329Z" fill="black"/>
<path d="M219.794 12.4327C218.244 17.3334 216.186 22.0739 213.658 26.5456C215.204 21.6448 217.267 16.9095 219.794 12.4327Z" fill="black"/>
<path d="M215.596 4.77664C214.035 11.1197 211.972 17.3024 209.403 23.3094C210.959 16.9612 213.027 10.7836 215.596 4.77664Z" fill="black"/>
<path d="M209.491 0C208.473 7.09778 206.937 14.087 204.88 20.9573C205.893 13.8595 207.439 6.87032 209.491 0Z" fill="black"/>
<path d="M201.783 3.05005C201.778 8.58145 201.24 14.1077 200.17 19.5305C200.17 13.9991 200.718 8.47289 201.783 3.05005Z" fill="black"/>
<g clip-path="url(#clip1_148_1159)">
<path d="M178.837 192.838C177.68 195.378 176.997 198.134 176.828 200.92C178.573 198.652 180.47 196.27 183.173 195.326C184.442 194.882 185.801 194.792 187.145 194.735C198.099 194.274 209.173 195.842 219.987 194.03C228.187 192.658 235.933 189.389 243.589 186.146C245.464 185.351 247.381 184.532 248.881 183.153C251.678 180.58 252.539 176.534 252.758 172.74C252.848 171.179 252.839 169.538 252.126 168.146C251.537 166.998 250.527 166.131 249.511 165.336C236.594 155.208 219.429 151.965 203.021 152.397C196.186 152.577 189.31 153.35 182.829 155.526C176.347 157.702 170.25 161.349 165.881 166.607C162.857 170.241 160.655 174.972 161.518 179.618C162.245 183.529 165.064 186.798 168.397 188.969C171.73 191.141 175.045 191.637 178.837 192.84" fill="white"/>
<path d="M178.554 192.673C177.377 195.282 176.683 198.066 176.501 200.922C176.477 201.287 176.938 201.318 177.116 201.089C178.165 199.726 179.243 198.353 180.565 197.24C182.036 196 183.724 195.346 185.635 195.163C187.668 194.97 189.732 194.979 191.771 194.979C193.811 194.979 195.93 195.025 198.007 195.08C206.278 195.297 214.614 195.607 222.756 193.835C226.703 192.974 230.552 191.714 234.329 190.285C238.105 188.855 241.635 187.419 245.201 185.81C246.837 185.072 248.433 184.181 249.658 182.846C250.749 181.658 251.516 180.216 252.038 178.696C252.561 177.177 252.853 175.506 253.004 173.873C253.167 172.129 253.312 170.226 252.666 168.559C252.021 166.893 250.712 165.85 249.384 164.825C247.985 163.744 246.529 162.739 245.028 161.808C242.075 159.977 238.941 158.442 235.707 157.171C229.143 154.591 222.176 153.133 215.165 152.468C207.725 151.761 200.106 151.835 192.704 152.903C185.303 153.97 178.084 156.268 171.978 160.585C169.159 162.576 166.584 164.974 164.561 167.78C162.539 170.586 160.985 174.035 161 177.594C161.015 180.938 162.533 184.012 164.798 186.412C167.225 188.981 170.294 190.638 173.645 191.675C175.337 192.197 177.059 192.623 178.749 193.157C179.155 193.284 179.329 192.649 178.925 192.522C175.506 191.444 171.925 190.783 168.841 188.862C166.092 187.149 163.63 184.657 162.432 181.603C159.733 174.727 164.539 167.721 169.523 163.34C174.885 158.633 181.636 155.796 188.557 154.303C195.91 152.718 203.592 152.437 211.088 152.823C218.006 153.179 224.912 154.27 231.523 156.378C238.133 158.486 244.312 161.542 249.63 165.848C250.317 166.405 250.997 167.007 251.5 167.743C252.003 168.478 252.299 169.387 252.405 170.303C252.6 172 252.411 173.802 252.141 175.484C251.61 178.778 250.297 181.974 247.421 183.874C245.891 184.886 244.16 185.553 242.479 186.265C240.665 187.031 238.849 187.793 237.023 188.526C233.376 189.99 229.68 191.343 225.889 192.381C222.024 193.44 218.086 194.105 214.09 194.386C210.043 194.669 205.981 194.623 201.928 194.522C197.875 194.421 193.734 194.265 189.635 194.333C187.736 194.366 185.749 194.329 183.891 194.775C182.282 195.161 180.879 196.037 179.671 197.148C178.464 198.259 177.515 199.495 176.547 200.753L177.162 200.92C177.335 198.187 178.001 195.501 179.125 193.005C179.298 192.621 178.73 192.287 178.556 192.673H178.554Z" fill="black"/>
</g>
<defs>
<radialGradient id="paint0_radial_148_1159" cx="0" cy="0" r="1" gradientUnits="userSpaceOnUse" gradientTransform="translate(195.296 69.7888) rotate(90.3132) scale(54.2121 34.3343)">
<stop stop-color="white"/>
<stop offset="1" stop-color="white" stop-opacity="0"/>
</radialGradient>
<clipPath id="clip0_148_1159">
<rect width="194" height="162.952" fill="white" transform="translate(0 18)"/>
</clipPath>
<clipPath id="clip1_148_1159">
<rect width="92.1402" height="49.2713" fill="white" transform="translate(161 152)"/>
</clipPath>
</defs>
</svg>
