<svg width="146" height="56" viewBox="0 0 146 56" fill="none" xmlns="http://www.w3.org/2000/svg">
<ellipse cx="73" cy="28" rx="73" ry="28" fill="#FF4C34"/>
<path d="M142 28C142 31.0433 140.276 34.0777 136.854 36.9671C133.437 39.8526 128.432 42.4962 122.161 44.7359C109.627 49.2123 92.2464 52 73 52C53.7536 52 36.3726 49.2123 23.8389 44.7359C17.5676 42.4962 12.5634 39.8526 9.1461 36.9671C5.72415 34.0777 4 31.0433 4 28C4 24.9567 5.72415 21.9223 9.1461 19.0329C12.5634 16.1474 17.5676 13.5038 23.8389 11.2641C36.3726 6.78773 53.7536 4 73 4C92.2464 4 109.627 6.78773 122.161 11.2641C128.432 13.5038 133.437 16.1474 136.854 19.0329C140.276 21.9223 142 24.9567 142 28Z" stroke="white" stroke-width="2"/>
<path d="M43.2535 14C43.5556 14.2604 43.816 15.3906 44.0348 17.3906C45.7743 17.3906 46.6441 17.8229 46.6441 18.6875C46.3837 19.5938 45.8629 20.4635 45.0816 21.2969V21.8125L47.6754 24.1562V24.6719C47.3316 24.6719 47.1598 24.7604 47.1598 24.9375C45.2952 23.5521 44.165 22.8594 43.7691 22.8594C42.9462 24.0677 42.4254 24.6719 42.2066 24.6719H41.691V23.6406C44.1181 21.0156 45.3316 19.4531 45.3316 18.9531C44.9879 18.9531 44.816 18.776 44.816 18.4219L41.691 18.6875H39.3473V18.1719C39.3473 17.8177 40.4775 17.5573 42.7379 17.3906V17.125C42.7379 16.9062 42.6493 16.0365 42.4723 14.5156L43.2535 14ZM51.066 16.0781H51.5816V16.3438C51.5816 19.125 51.9306 20.5156 52.6285 20.5156C54.5348 20.651 55.4879 20.9115 55.4879 21.2969V21.5469C55.4879 21.901 55.316 22.0781 54.9723 22.0781L52.6285 21.8125C52.6285 21.9896 52.54 22.0781 52.3629 22.0781L52.8941 25.2031L52.3629 25.4531H52.1129C51.7587 25.4531 51.5816 25.2812 51.5816 24.9375V23.1094L50.5504 17.125V16.6094C50.6025 16.2552 50.7743 16.0781 51.066 16.0781ZM52.8941 28.0625H53.1441L53.4098 29.3594V34.0469C53.4098 34.4844 51.2379 34.8333 46.8941 35.0938V35.3594C45.8525 35.3594 45.3316 34.1406 45.3316 31.7031C45.092 31.7031 44.9202 30.9219 44.816 29.3594C44.816 28.9323 47.1598 28.5885 51.8473 28.3281C51.8473 28.151 52.1962 28.0625 52.8941 28.0625ZM51.3316 29.625H49.5035C47.2431 29.625 46.1129 29.8854 46.1129 30.4062C46.1129 32.8333 46.6337 34.0469 47.6754 34.0469C50.6337 33.6406 52.1129 33.2969 52.1129 33.0156C52.1129 32.8802 52.1962 32.3594 52.3629 31.4531C52.3629 30.9323 52.191 30.2344 51.8473 29.3594L51.3316 29.625ZM59.3611 33.5312H59.6268C59.9705 33.5312 60.1424 33.7917 60.1424 34.3125C59.0382 36.9167 58.3455 38.2188 58.0643 38.2188H57.283V37.1719C58.4497 34.7448 59.1424 33.5312 59.3611 33.5312ZM74.4219 16.375L74.9375 17.1562V17.9375C74.9375 18.3229 74.8542 18.6667 74.6875 18.9688C75.0313 21.0521 75.375 23.9167 75.7188 27.5625L75.2031 27.8125H74.6875C74.5104 26.8958 74.1615 23.2552 73.6406 16.8906L74.4219 16.375ZM65.5781 17.9375C67.3177 18.6042 68.1875 19.7292 68.1875 21.3125C68.1875 22.9896 67.5781 24.1198 66.3594 24.7031L66.875 29.6406H71.2969V30.1562C71.1302 30.6771 70.6094 30.9375 69.7344 30.9375H62.9844C62.6302 30.9375 62.4531 30.7656 62.4531 30.4219V29.9062L63.7656 29.6406H65.5781V29.375C65.5781 28.4688 65.4896 26.9948 65.3125 24.9531H64.5313C62.8021 24.9531 61.9375 23.651 61.9375 21.0469C62.1979 18.974 63.4115 17.9375 65.5781 17.9375ZM63.2344 20.5312V22.6094C63.2344 22.8802 63.5833 23.2292 64.2813 23.6562H65.8438C66.5313 23.375 66.875 22.7656 66.875 21.8281V21.0469C66.875 19.8385 66.2708 19.2344 65.0625 19.2344H64.7969C63.7552 19.8385 63.2344 20.2708 63.2344 20.5312ZM78.2795 17.125L80.1076 17.3906C82.2535 17.2135 83.3785 17.125 83.4826 17.125C84.1805 17.3021 84.5295 17.8229 84.5295 18.6875V20.5156C84.4878 20.901 83.0139 21.5052 80.1076 22.3281C79.7535 23.026 79.5764 23.6354 79.5764 24.1562C79.691 25.0208 80.2118 25.4531 81.1389 25.4531C83.5139 25.2865 84.993 25.2031 85.5764 25.2031L85.8264 25.7188C85.8264 25.9688 85.566 26.2292 85.0451 26.5H80.6233L79.3264 26.7656C78.8055 26.1823 78.5451 24.7031 78.5451 22.3281V22.0781C79.1389 21.5365 80.7847 20.7552 83.4826 19.7344V19.4688C83.316 19.1667 83.2326 18.8177 83.2326 18.4219H77.7639C77.7639 18.2448 77.6753 17.9844 77.4983 17.6406C78.0191 17.474 78.2795 17.3021 78.2795 17.125ZM82.4514 28.0625C82.7951 28.0625 83.0555 29.0156 83.2326 30.9219H85.5764L87.3889 30.6719C87.4514 31.0156 87.6285 31.1875 87.9201 31.1875C87.743 31.5208 87.6545 31.7812 87.6545 31.9688H81.6701C79.2326 31.9688 78.0139 31.6198 78.0139 30.9219C78.0764 30.5781 78.2535 30.4062 78.5451 30.4062C79.7326 30.5833 80.6858 30.6719 81.4045 30.6719C81.8316 28.9323 82.1805 28.0625 82.4514 28.0625ZM86.3576 33.5312C86.7014 33.5833 86.8733 33.7552 86.8733 34.0469V34.3125C86.8733 34.8958 86.7847 35.3281 86.6076 35.6094L86.8733 37.1719C86.7587 39.9531 86.4097 41.3438 85.8264 41.3438H83.2326L81.6701 41.6094C80.9722 41.349 80.6233 41.0885 80.6233 40.8281C80.6233 38.9427 80.4514 36.9427 80.1076 34.8281C80.2743 34.4948 80.3576 34.2344 80.3576 34.0469H81.1389L81.6701 34.3125L81.4045 35.6094V36.6562H85.5764V34.3125C85.5764 34.0625 85.8368 33.8021 86.3576 33.5312ZM81.4045 38.2188C81.4045 39.6042 81.9253 40.2969 82.967 40.2969H84.7951C85.316 40.1302 85.5764 39.6094 85.5764 38.7344V37.9531L84.2639 37.7031H82.1858L81.4045 38.2188ZM101.403 20.0312L102.184 20.8125L101.918 21.3438V24.4531C101.918 25.3802 102.267 25.9844 102.965 26.2656H105.825C106.168 26.3281 106.34 26.5052 106.34 26.7969V27.5781H103.231L102.7 27.3125L102.45 27.8281L102.7 30.4219L102.184 30.6875H101.918C101.231 30.2708 100.887 26.8073 100.887 20.2969L101.403 20.0312ZM90.4965 21.8594H96.9965V22.375C96.9965 22.625 96.559 22.8854 95.684 23.1562L95.1684 22.8906H91.5278C91.184 22.9531 91.0121 23.1302 91.0121 23.4219C91.5121 28.0885 92.2048 30.4219 93.0903 30.4219H97.5121V30.9531C97.5121 31.2031 97.2517 31.4635 96.7309 31.7344H94.6528C92.2257 31.7344 91.0121 31.2135 91.0121 30.1719C91.0121 29.776 90.5798 27.349 89.7153 22.8906C89.9757 22.2031 90.2361 21.8594 90.4965 21.8594Z" fill="white"/>
</svg>
