<svg width="159" height="208" viewBox="0 0 159 208" fill="none" xmlns="http://www.w3.org/2000/svg">
<g clip-path="url(#clip0_92_1478)">
<path d="M48.1088 181.126C66.2533 179.921 84.4492 179.252 102.649 179.174C108.093 179.153 113.57 179.183 118.924 180.037C121.855 180.504 124.778 181.229 127.32 182.581C130.525 184.284 132.947 186.871 135.63 189.153C137.92 191.101 140.556 193.023 141.335 195.717C142.392 199.364 139.486 203.174 135.678 204.975C131.869 206.777 127.371 207.026 123.041 207.211C93.4701 208.455 63.8226 208.223 34.2821 206.52C30.7559 206.318 27.1741 206.082 23.8747 204.984C20.5753 203.886 17.5455 201.788 16.3944 198.892C15.0506 195.511 16.5484 191.642 19.3214 188.995C22.0945 186.348 25.9545 184.752 29.853 183.589C36.0367 181.749 42.5927 180.848 49.1273 180.942" fill="black"/>
<path d="M48.2883 24.8787C59.7442 9.53704 80.3322 4.77496 99.2684 2.14509C107.168 1.0468 115.175 0.133 123.109 0.969582C131.043 1.80616 138.985 4.53042 144.878 9.91886C152.29 16.6887 155.675 26.8479 157.198 36.7796C160.54 58.5307 156.317 80.8739 148.866 101.574C138.831 129.46 122.321 155.802 98.0702 172.765C88.6171 179.38 78.1797 184.451 67.5968 189.046C61.4602 191.71 55.0112 194.271 48.3311 193.967C41.6125 193.662 35.386 190.492 29.5361 187.167C23.4979 183.731 17.5967 180.054 11.8495 176.141C8.90954 174.142 5.94821 172.014 3.96258 169.058C1.46771 165.343 0.787294 160.701 0.667471 156.222C0.376474 145.226 3.07248 134.398 5.75137 123.728C9.67983 108.078 13.6168 92.4016 18.9361 77.1715C25.5948 58.106 34.6286 39.4738 48.5579 24.8701" fill="#FFDC00"/>
<path d="M47.7323 24.5526C57.2924 11.8451 72.8736 6.33656 87.9113 3.36777C91.8698 2.58696 95.8538 1.96489 99.8508 1.42003C104.93 0.725028 110.031 0.115825 115.162 0.0128614C124.149 -0.163035 133.487 1.32994 141.177 6.26792C148.289 10.8412 152.795 18.1131 155.376 26.0456C158.191 34.7203 159.069 44.09 159 53.1723C158.85 72.3364 153.891 91.299 146.731 108.97C140.419 124.543 132.07 139.375 121.243 152.254C115.847 158.672 109.835 164.579 103.231 169.745C95.8924 175.485 87.8386 180.191 79.4895 184.293C75.1545 186.42 70.7511 188.411 66.3091 190.299C61.9912 192.131 57.5492 193.804 52.8761 194.404C43.2647 195.64 34.7145 190.947 26.6907 186.262C22.3728 183.743 18.1319 181.096 13.9681 178.329C10.3264 175.91 6.42357 173.494 3.79604 169.912C1.1685 166.33 0.32975 161.864 0.0943846 157.539C-0.170936 152.614 0.248432 147.663 0.980204 142.794C2.49082 132.733 5.29809 122.853 7.81864 113.011C10.3392 103.17 13.0352 93.1695 16.1891 83.4094C21.7779 66.1157 28.9331 49.0237 39.8027 34.347C42.3746 30.8763 45.1476 27.5557 48.1217 24.4239C48.6909 23.8233 49.5981 24.7328 49.029 25.3334C36.897 38.0966 28.4923 53.8844 22.1845 70.2257C15.1321 88.5104 10.4333 107.619 5.70892 126.607C3.32959 136.178 1.11286 145.93 1.31399 155.857C1.40386 160.298 1.9987 164.974 4.52781 168.736C7.03124 172.46 11.1009 174.893 14.7641 177.321C18.7781 179.981 22.8649 182.534 27.0202 184.966C31.1754 187.399 35.1767 189.732 39.5844 191.388C44.0264 193.057 48.6781 193.77 53.3939 193.04C58.1098 192.311 62.5989 190.518 66.9595 188.63C75.4883 184.94 83.9187 180.946 91.8526 176.077C99.1404 171.602 105.893 166.33 112.008 160.345C123.734 148.864 133.042 135.076 140.252 120.365C148.135 104.272 153.998 86.8286 156.514 69.0459C157.849 59.6075 158.14 49.989 157.057 40.512C156.107 32.1891 154.143 23.6688 149.581 16.5386C144.857 9.15091 137.368 4.59476 128.942 2.60412C119.382 0.347494 109.432 1.39 99.8208 2.71566C84.8815 4.77923 68.8382 7.84241 56.6291 17.3323C53.7063 19.6017 51.0702 22.2445 48.845 25.2047C48.3528 25.8568 47.2402 25.2176 47.7366 24.5569L47.7323 24.5526Z" fill="black"/>
<path d="M85.322 4.94229C81.1325 4.94229 79.3865 7.05305 76.2283 9.81163C54.7373 28.5682 41.4285 54.8755 30.1139 81.097C22.8432 97.9487 16.1545 115.127 11.9265 132.991C8.84966 145.99 6.99669 159.912 7.89964 173.237C7.30481 167.025 8.62714 160.281 9.84248 154.163C11.4558 146.063 13.0648 137.963 14.6782 129.868C15.1403 127.542 15.6068 125.2 16.514 123.012C17.708 120.12 19.6251 117.598 21.2513 114.925C25.2867 108.305 27.5548 100.789 30.3578 93.5556C37.1491 76.0217 47.18 59.9679 57.1466 44.03C60.9253 37.9851 64.704 31.9446 68.487 25.8997C71.4312 21.1934 74.3839 16.4743 77.786 12.0897C80.4093 8.70906 83.5076 5.39705 87.5986 4.16577L85.322 4.94658V4.94229Z" fill="#F3E253"/>
<path d="M85.3221 5.58578C82.6561 5.61152 80.6704 6.73983 78.7105 8.46019C76.5794 10.3307 74.4525 12.2141 72.4155 14.1876C68.2003 18.2632 64.2976 22.6606 60.6858 27.2811C53.3852 36.6208 47.2785 46.8572 41.8651 57.3938C36.242 68.3337 31.2951 79.6297 26.6263 91.0029C21.5809 103.286 17.0191 115.796 13.6683 128.658C10.3176 141.52 8.07948 154.939 8.33196 168.333C8.36191 169.968 8.43466 171.602 8.54164 173.237C8.59728 174.069 7.33058 174.052 7.25783 173.237C6.68868 166.977 7.89118 160.71 9.10652 154.596C10.4075 148.045 11.7127 141.498 13.0179 134.947C13.6469 131.79 14.1562 128.572 15.012 125.47C15.8209 122.531 17.2587 119.953 18.9063 117.409C20.5538 114.865 22.1286 112.252 23.4338 109.481C24.7391 106.709 25.8816 103.766 26.9643 100.853C29.0912 95.1215 31.2266 89.4199 33.7856 83.8641C36.3447 78.3083 39.3189 72.6325 42.3957 67.1797C48.6736 56.0638 55.5848 45.3127 62.3547 34.4929C65.7996 28.9843 69.1632 23.4157 72.7664 18.0101C74.4653 15.4617 76.2327 12.952 78.1713 10.5795C79.8402 8.53312 81.706 6.59397 83.9399 5.16534C85.0268 4.47033 86.1994 3.92548 87.4318 3.53937C88.2235 3.29054 88.5488 4.51324 87.7742 4.77923C86.9996 5.04522 86.2593 5.29834 85.4976 5.56004C84.7358 5.82174 84.3764 4.58617 85.1552 4.32018C85.9341 4.05419 86.6701 3.80107 87.4318 3.53937L87.7742 4.77923C82.3822 6.46955 78.7918 11.6006 75.685 16.0152C72.0047 21.2449 68.7139 26.7492 65.3246 32.1676C58.6274 42.8716 51.7932 53.5069 45.4555 64.4297C39.1178 75.3524 33.7857 86.0349 29.5277 97.5926C27.4693 103.187 25.4751 108.859 22.5095 114.058C21.0331 116.65 19.2144 119.039 17.8407 121.69C16.4071 124.458 15.808 127.495 15.2046 130.524C13.9208 136.981 12.6327 143.437 11.3489 149.894C10.0651 156.351 8.61867 162.37 8.41754 168.728C8.37047 170.229 8.40899 171.735 8.54593 173.233H7.26212C6.36773 159.714 8.17789 146.11 11.2762 132.969C14.3873 119.773 18.8506 106.941 23.8875 94.3707C28.5734 82.6757 33.5931 71.0751 39.2162 59.8006C44.5782 49.0537 50.5993 38.59 57.8015 28.9629C61.3491 24.2222 65.1706 19.6875 69.313 15.4617C71.4227 13.3081 73.618 11.2531 75.8818 9.26245C77.6706 7.69225 79.3952 5.8818 81.6376 4.96799C82.8144 4.48749 84.064 4.3116 85.3264 4.29873C86.1523 4.29015 86.1523 5.5772 85.3264 5.58578H85.3221Z" fill="black"/>
<path d="M113.258 0.87091C95.55 13.0593 81.8389 28.5124 69.7454 46.308C57.6519 64.1036 48.0233 83.4608 39.1564 103.075C27.876 128.027 17.5884 153.292 19.4157 180.624C23.143 144.977 38.7371 113.144 54.2284 80.8438C58.2981 72.3622 62.3934 63.8462 67.6656 56.0596C72.2231 49.3283 77.6109 43.2105 82.9815 37.1142C93.8254 24.81 104.635 13.0421 115.479 0.737915L113.258 0.87091Z" fill="#F3E253"/>
<path d="M113.583 1.42865C103.146 8.63184 93.7652 17.2508 85.4461 26.8221C76.7718 36.7968 69.1888 47.7066 62.3931 59.037C55.1653 71.0923 48.8361 83.6625 42.9177 96.4043C37.0207 109.095 31.235 121.918 26.8358 135.222C22.5351 148.217 19.6807 161.765 19.8562 175.511C19.8776 177.218 19.9503 178.926 20.0616 180.633H18.7778C20.1557 167.591 23.1299 154.781 27.1825 142.322C31.2479 129.812 36.336 117.662 41.7837 105.701C44.5353 99.6605 47.3811 93.6629 50.2483 87.6738C53.154 81.6032 56.0083 75.494 59.0895 69.5093C62.1963 63.473 65.6155 57.6083 69.6552 52.147C73.7206 46.647 78.2482 41.5159 82.7672 36.3892C92.2546 25.6252 101.935 15.0328 111.465 4.30735C112.654 2.96882 113.84 1.626 115.025 0.283179L115.479 1.38146L113.258 1.51446C112.432 1.56594 112.436 0.278889 113.258 0.227407L115.479 0.0944119C116.069 0.0600906 116.275 0.802289 115.932 1.19269C106.522 11.8666 96.9276 22.3775 87.4702 33.0128C82.8999 38.1567 78.2867 43.2792 73.9731 48.6419C69.7023 53.9574 65.9364 59.5904 62.6413 65.5623C59.3976 71.4355 56.5389 77.5104 53.6375 83.5553C50.7832 89.5014 47.9331 95.4433 45.1558 101.424C39.6312 113.312 34.3846 125.35 30.071 137.74C25.7917 150.023 22.4495 162.662 20.6693 175.562C20.4382 177.248 20.2371 178.938 20.0573 180.629C19.9717 181.444 18.8291 181.47 18.7735 180.629C17.8706 166.767 20.1044 152.953 24.0714 139.696C28.0811 126.307 33.7171 113.471 39.4985 100.772C45.3912 87.8283 51.6305 75.0264 58.7385 62.7051C65.4572 51.0573 72.9632 39.8213 81.5305 29.452C89.6228 19.6576 98.7421 10.7211 108.953 3.15759C110.262 2.18801 111.589 1.23989 112.932 0.3175C113.613 -0.154418 114.259 0.961025 113.579 1.42865H113.583Z" fill="black"/>
<path d="M138.728 6.06628C122.488 20.1723 107.72 37.629 96.3284 55.8922C89.3873 67.0209 83.4689 78.7502 77.6875 90.5267C69.4155 107.378 61.3574 124.488 56.7058 142.682C54.5318 151.185 52.7816 160.486 46.3668 166.467C44.4924 168.213 42.2886 169.59 40.4912 171.418C35.8267 176.154 34.5087 183.164 33.4089 189.732C34.2433 183.821 40.3842 180.509 44.715 176.412C48.8488 172.499 51.5962 167.368 54.2708 162.335C58.0709 155.179 61.8838 148.006 64.9307 140.494C67.3913 134.432 69.347 128.181 71.5466 122.021C82.7628 90.6469 100.514 61.6368 123.336 37.4016C125.21 35.411 127.148 33.4075 128.338 30.9449C129.964 27.5815 130.033 23.6989 130.931 20.0694C131.83 16.4399 137.526 7.99257 141.193 7.30614L138.724 6.06628H138.728Z" fill="#F3E253"/>
<path d="M139.182 6.52106C128.518 15.8007 118.804 26.17 110.108 37.3159C101.109 48.8521 93.4486 61.2807 86.6359 74.2241C83.1567 80.831 79.8531 87.5322 76.5836 94.2463C73.3484 100.892 70.1817 107.576 67.2674 114.371C64.3403 121.206 61.6786 128.156 59.4747 135.26C57.5361 141.52 56.3251 147.994 54.2624 154.214C53.3167 157.059 52.1527 159.864 50.5394 162.4C48.9261 164.935 46.6965 167.145 44.2359 169.071C41.5784 171.152 39.3189 173.331 37.7612 176.369C36.3276 179.162 35.506 182.233 34.8726 185.296C34.5559 186.824 34.2906 188.364 34.0339 189.9C33.8969 190.719 32.6687 190.367 32.7971 189.557C33.7471 183.439 39.7211 180.123 43.8935 176.3C49.4781 171.182 52.7304 163.936 56.1967 157.333C60.0396 150.018 63.6043 142.601 66.4201 134.823C69.0862 127.461 71.4698 120.009 74.4054 112.741C79.883 99.1843 86.5674 86.1293 94.373 73.7737C102.119 61.5124 110.956 49.9332 120.76 39.2464C123.233 36.5479 126.194 33.9695 127.799 30.6189C129.434 27.2125 129.378 23.3514 130.362 19.7648C130.97 17.5597 132.25 15.4832 133.521 13.6084C134.946 11.5105 136.58 9.43408 138.613 7.90249C139.336 7.35764 140.141 6.87715 141.035 6.68838L140.881 7.86388C140.06 7.45203 139.234 7.04017 138.412 6.62403C137.672 6.25507 138.322 5.14392 139.058 5.51287L141.527 6.75273C142.011 6.99727 141.904 7.81669 141.373 7.92824C139.246 8.37441 137.513 10.5152 136.212 12.1111C134.616 14.076 133.187 16.264 132.156 18.5807C130.889 21.4122 130.859 24.6685 130.149 27.6587C129.293 31.2496 127.358 34.0382 124.881 36.7067C114.991 47.3591 105.85 58.5607 97.8564 70.7277C89.9181 82.8045 83.054 95.5892 77.3796 108.889C74.384 115.907 71.8506 123.076 69.3686 130.288C66.7282 137.963 63.6984 145.407 60.0481 152.661C58.238 156.256 56.3508 159.809 54.4593 163.361C52.7475 166.578 50.993 169.792 48.8105 172.718C46.8206 175.386 44.4669 177.578 41.9036 179.676C39.6141 181.547 37.1663 183.439 35.5445 185.953C34.7656 187.163 34.2521 188.476 34.0339 189.9L32.7971 189.557C33.807 183.529 34.971 177.137 38.8995 172.246C41.0049 169.625 43.9492 167.956 46.3242 165.622C48.5409 163.442 50.1928 160.774 51.4637 157.947C54.0699 152.151 55.1568 145.788 56.8386 139.692C58.8028 132.583 61.272 125.62 64.0451 118.79C69.651 104.963 76.3097 91.5307 83.1011 78.2569C89.8112 65.1419 97.1974 52.4301 106 40.6064C114.465 29.2418 123.956 18.6236 134.411 9.06084C135.686 7.89391 136.974 6.74415 138.279 5.61155C138.9 5.07099 139.811 5.97621 139.187 6.52106H139.182Z" fill="black"/>
<path d="M46.1532 193.353C60.4977 181.358 74.9406 169.268 86.7431 154.755C96.0336 143.334 103.557 130.575 112.608 118.962C120.918 108.301 130.701 98.2748 135.113 85.4901C137.056 79.8657 137.929 73.7608 141.121 68.7413C143.269 65.3606 146.35 62.675 148.696 59.4273C152.312 54.4207 153.399 48.1785 157.866 43.9184C156.309 56.0553 152.637 67.7545 145.807 77.8965C144.048 80.5092 142.127 83.0275 140.702 85.8376C138.729 89.7373 137.779 94.0618 136.328 98.1847C133.902 105.066 130.067 111.36 125.951 117.379C119.814 126.35 112.993 134.823 106.18 143.287C100.741 150.048 95.2719 156.836 88.9213 162.743C84.077 167.248 78.6936 171.272 74.748 176.587C72.8565 179.136 71.2389 182.036 68.5557 183.726C65.4446 185.691 61.422 185.683 58.2296 187.514C56.274 188.634 54.7505 190.376 52.9318 191.706C51.113 193.036 48.6053 194.254 46.517 193.405L46.1532 193.353Z" fill="#F3E253"/>
<path d="M45.6996 192.899C55.5207 184.687 65.359 176.454 74.4142 167.385C78.9032 162.889 83.1954 158.187 87.1624 153.215C91.1294 148.242 95.0193 142.695 98.7424 137.29C102.444 131.91 106.111 126.504 110.031 121.283C113.605 116.521 117.46 111.986 121.175 107.34C124.855 102.737 128.394 97.9745 131.193 92.7705C132.605 90.1492 133.808 87.4207 134.74 84.5892C135.673 81.7491 136.362 78.8318 137.257 75.9788C138.151 73.1258 139.217 70.4145 140.851 67.9734C142.486 65.5322 144.681 63.3185 146.624 61.0147C148.567 58.7109 149.936 56.3298 151.182 53.6871C152.329 51.2589 153.381 48.7663 154.875 46.5225C155.615 45.4157 156.454 44.3817 157.413 43.4508C157.772 43.1033 158.585 43.3221 158.508 43.9055C156.895 56.347 153.035 68.4796 145.905 78.8789C144.074 81.5517 142.139 84.173 140.783 87.1332C139.426 90.0934 138.541 93.4655 137.513 96.6574C135.506 102.87 132.43 108.618 128.903 114.088C121.526 125.522 112.834 136.084 104.288 146.638C100.078 151.837 95.7768 156.981 90.9796 161.653C86.5162 166.008 81.4623 169.757 77.3156 174.434C75.3214 176.678 73.8065 179.269 71.8808 181.564C70.9607 182.658 69.908 183.658 68.6798 184.391C67.4516 185.125 66.1165 185.58 64.7642 185.961C63.4119 186.343 61.9569 186.669 60.5875 187.15C59.1282 187.66 57.8444 188.424 56.6548 189.406C54.4381 191.243 52.324 193.474 49.4183 194.147C48.7593 194.302 48.0789 194.362 47.4028 194.28C46.9149 194.22 46.4699 194.036 45.982 193.967C45.1689 193.855 45.5156 192.615 46.3244 192.727C46.8465 192.8 47.3215 193.01 47.8564 193.032C48.5882 193.066 49.3156 192.877 50.0003 192.62C51.4339 192.075 52.6963 191.131 53.8518 190.14C54.9387 189.209 55.9829 188.218 57.1726 187.411C58.3622 186.605 59.6118 186.094 60.9341 185.683C63.7029 184.82 66.737 184.438 69.0692 182.568C71.2774 180.8 72.6767 178.265 74.3542 176.038C78.0302 171.165 82.836 167.376 87.3336 163.314C92.1735 158.942 96.5085 154.068 100.664 149.053C104.819 144.038 109.098 138.68 113.232 133.433C117.473 128.049 121.611 122.587 125.48 116.928C129.096 111.634 132.515 106.121 134.907 100.145C136.11 97.1465 136.949 94.0275 137.963 90.96C138.968 87.914 140.248 85.0482 141.99 82.354C143.706 79.7027 145.601 77.1843 147.219 74.4687C148.837 71.753 150.172 69.0888 151.37 66.2659C153.784 60.5857 155.448 54.5923 156.527 48.5217C156.801 46.9902 157.036 45.45 157.233 43.9055L158.328 44.3603C154.323 48.2386 152.996 53.8416 150.112 58.4621C148.516 61.0233 146.397 63.1855 144.433 65.4593C142.469 67.7331 140.744 70.3072 139.593 73.1988C138.442 76.0903 137.757 78.8704 136.944 81.7405C136.131 84.6106 135.22 87.3091 134.013 89.9733C131.595 95.3189 128.296 100.201 124.748 104.847C121.171 109.528 117.332 113.998 113.686 118.623C109.672 123.715 105.97 129.044 102.294 134.385C98.5926 139.765 94.9209 145.162 90.9839 150.37C87.0469 155.578 82.9729 160.349 78.5566 164.978C69.7454 174.219 60.0397 182.542 50.2699 190.736C49.0503 191.757 47.835 192.778 46.6154 193.795C45.9863 194.323 45.0705 193.418 45.7081 192.886L45.6996 192.899Z" fill="black"/>
<path d="M51.9258 44.2144C53.6461 41.4601 56.7273 39.847 59.8298 38.8946C63.1506 37.8735 66.7924 37.4703 70.0704 38.62C73.3484 39.7698 76.1385 42.7429 76.3097 46.2222C76.3268 46.5911 76.3268 46.9901 76.5451 47.2862C76.6948 47.4921 76.9302 47.6122 77.157 47.728C77.7476 48.0284 78.3723 48.3372 78.766 48.8735C79.1597 49.4098 79.2411 50.2421 78.7575 50.6968C78.2311 51.1859 77.3967 50.9971 76.712 50.7912C66.5741 47.7624 55.7815 48.0927 45.2072 48.4488C44.8649 47.6766 45.8063 46.9816 46.5852 46.6555C48.2713 45.9476 49.9573 45.2397 51.6434 44.5319L51.9301 44.2187L51.9258 44.2144Z" fill="#FFDC00"/>
<path d="M51.3698 43.8884C53.8262 40.0358 58.6233 38.161 62.9626 37.5046C67.533 36.8139 72.4029 37.8221 75.2915 41.709C75.8863 42.5112 76.3528 43.425 76.6352 44.3817C76.785 44.8794 76.8748 45.3942 76.9219 45.909C76.9433 46.1579 76.9134 46.441 76.9776 46.6856C77.0503 46.9601 77.2343 47.0459 77.474 47.1703C78.4069 47.6594 79.4296 48.23 79.6736 49.354C79.9004 50.3965 79.344 51.4176 78.2614 51.6064C77.1787 51.7951 75.9377 51.2203 74.8935 50.9457C73.6354 50.6153 72.3644 50.3322 71.0891 50.0919C68.4573 49.5986 65.7956 49.2897 63.121 49.1052C57.1555 48.6934 51.1729 48.8864 45.2032 49.088C44.9079 49.0966 44.6769 48.8778 44.5827 48.6161C44.0221 47.0245 45.9692 46.2179 47.0904 45.746C47.9677 45.3771 48.8407 45.0124 49.718 44.6434C50.1716 44.4547 50.6209 44.2402 51.0788 44.0728C51.5367 43.9055 51.1088 44.1286 51.2585 43.9956C51.3356 43.927 51.404 43.8412 51.4725 43.764C52.0331 43.1548 52.9403 44.0643 52.3797 44.6735C52.0117 45.0725 51.6351 45.2269 51.1259 45.4371C50.3813 45.7503 49.6367 46.0635 48.8878 46.3767C48.1817 46.6727 47.4627 46.943 46.7695 47.269C46.4143 47.4363 45.6483 47.7924 45.8195 48.2772L45.199 47.8053C54.926 47.4792 64.8284 47.1618 74.3586 49.487C74.9406 49.6286 75.5226 49.7831 76.1046 49.9461C76.601 50.0877 77.1188 50.2936 77.6323 50.3494C78.0431 50.3965 78.4582 50.3022 78.4454 49.8174C78.4325 49.3326 78.0217 48.9722 77.6366 48.7277C77.2514 48.4831 76.8064 48.3201 76.4341 48.0541C75.9719 47.7238 75.7579 47.2604 75.698 46.7027C75.5953 45.7675 75.5226 44.9008 75.1545 44.0214C73.4685 40.0186 69.0308 38.3927 64.9696 38.59C62.4833 38.7101 59.9371 39.3622 57.669 40.3876C55.6192 41.31 53.7149 42.6228 52.4867 44.5448C52.0417 45.2398 50.9333 44.5962 51.3784 43.897L51.3698 43.8884Z" fill="black"/>
<path d="M49.0459 48.4617C47.3598 48.599 47.3213 51.4133 47.2101 53.1036C47.1587 53.8501 47.1972 54.6095 47.4283 55.3217C47.7535 56.3298 48.4554 57.1879 49.2813 57.8486C51.1813 59.3673 53.7061 59.9035 56.1325 59.8521C58.559 59.8006 60.9426 59.2214 63.3176 58.7238C65.8638 58.1918 68.4743 57.737 70.7937 56.5529C73.1131 55.3689 75.1544 53.3053 75.5737 50.7269C75.5737 50.7269 66.1249 47.0502 49.0459 48.4617Z" fill="white"/>
<path d="M49.0459 49.1052C48.3099 49.191 48.1344 50.3837 48.0403 50.9371C47.8776 51.9067 47.7963 52.9664 47.8391 53.9445C47.9547 56.7031 50.5908 58.3291 53.0172 58.8997C55.833 59.5647 58.7387 59.0327 61.5203 58.4449C64.3019 57.8572 67.1862 57.4582 69.788 56.317C72.2358 55.2445 74.4739 53.2967 74.9618 50.551L75.4111 51.3447C74.0759 50.8256 72.6509 50.4995 71.2558 50.1949C67.3017 49.3369 63.2534 48.9336 59.218 48.8135C55.8287 48.7105 52.4352 48.8221 49.0545 49.1009C48.2328 49.1696 48.2371 47.8825 49.0545 47.8139C54.5278 47.3677 60.0482 47.3506 65.5086 47.9726C68.4999 48.3116 71.4998 48.8135 74.3969 49.663C74.8505 49.796 75.3127 49.9332 75.7535 50.1048C76.1001 50.2378 76.267 50.521 76.2028 50.8985C75.7235 53.6185 73.6395 55.785 71.2687 57.0335C68.3758 58.5608 65.0294 59.0198 61.8626 59.6891C58.6959 60.3583 55.4222 60.9203 52.2597 60.0323C49.4653 59.2515 46.7907 57.2265 46.5724 54.129C46.4826 52.8506 46.611 51.3962 46.8977 50.1477C47.1673 48.9808 47.7878 47.9641 49.0545 47.8139C49.8718 47.7152 49.8675 49.0023 49.0545 49.1009L49.0459 49.1052Z" fill="black"/>
<path d="M50.1668 61.3107C52.3022 63.2542 55.3705 63.7304 58.2548 63.8119C62.1105 63.9234 66.1973 63.4043 69.2485 61.0447" fill="#FFB500"/>
<path d="M50.6207 60.8517C53.0557 63.0139 56.6333 63.2284 59.7272 63.1769C62.9753 63.1212 66.2832 62.4948 68.9193 60.487C69.5784 59.985 70.216 61.1048 69.5655 61.5981C66.7154 63.769 63.0566 64.4254 59.5475 64.4683C56.0384 64.5112 52.3753 64.1379 49.705 61.7655C49.0844 61.2163 49.996 60.3068 50.6122 60.856L50.6207 60.8517Z" fill="black"/>
<path d="M52.589 65.3049C54.6303 66.2744 56.8 67.0467 59.0509 67.1883C61.3018 67.3298 63.6598 66.785 65.4058 65.3478" fill="#FFB500"/>
<path d="M52.9142 64.7472C56.5945 66.4804 61.443 67.7031 64.9521 64.893C65.5897 64.3825 66.5055 65.2877 65.8593 65.8025C61.8367 69.0245 56.5431 67.8747 52.2637 65.8583C51.5148 65.5065 52.1696 64.3954 52.9099 64.7472H52.9142Z" fill="black"/>
<path d="M49.3242 57.4238C49.5682 56.6602 50.2015 56.0853 50.8306 55.5748C51.3612 55.1414 51.9133 54.7253 52.4995 54.3649C53.4795 53.7643 54.5494 53.3267 55.6192 52.8891C56.3809 52.5802 57.1427 52.267 57.9429 52.0697C58.9186 51.8294 59.9285 51.7651 60.9342 51.7436C62.295 51.7179 63.6858 51.7737 64.9568 52.2456C67.0152 53.0135 68.5771 54.9269 68.8853 57.0549C68.8853 57.0549 62.4576 59.4745 57.0614 59.6032C51.6651 59.7276 49.3242 57.4238 49.3242 57.4238Z" fill="black"/>
<path d="M48.7037 57.2522C49.2557 55.7206 50.8391 54.6266 52.1743 53.8072C53.6592 52.8934 55.3881 52.2027 57.0399 51.6578C58.6917 51.113 60.6859 51.01 62.4875 51.1216C64.1437 51.2245 65.7185 51.6621 67.028 52.7089C68.3374 53.7557 69.2361 55.2487 69.4971 56.8833C69.5571 57.2522 69.403 57.5397 69.0478 57.6769C66.6043 58.595 64.0367 59.2815 61.4733 59.7491C57.8958 60.4055 54.0358 60.62 50.6594 59.0326C50.0303 58.7366 49.367 58.3677 48.862 57.8743C48.2715 57.2951 49.1787 56.3856 49.7692 56.9648C49.7949 56.9862 49.8163 57.012 49.842 57.0334C49.872 57.0592 49.9019 57.0806 49.9276 57.1064C50.0645 57.2222 49.8891 57.0806 49.9747 57.1407C50.2913 57.3723 50.6294 57.5783 50.976 57.7585C52.2342 58.4106 53.6592 58.7581 55.0628 58.8911C58.7602 59.2429 62.5474 58.3548 66.0694 57.3037C66.9552 57.0377 67.8368 56.7589 68.7012 56.4371L68.2519 57.2308C67.9994 55.6477 67.0921 54.2277 65.7313 53.361C64.0752 52.3057 62.004 52.3142 60.1125 52.4172C58.0584 52.5288 56.1883 53.271 54.3353 54.1204C53.4666 54.5151 52.645 54.9827 51.879 55.5533C51.16 56.0896 50.2443 56.716 49.9276 57.5954C49.6494 58.3677 48.4084 58.033 48.6909 57.2522H48.7037Z" fill="black"/>
<path d="M62.8096 54.5524C62.6897 53.9193 63.4226 53.248 64.4466 53.0531C65.4705 52.8582 66.3978 53.2135 66.5178 53.8467C66.6377 54.4798 65.9048 55.1511 64.8808 55.346C63.8568 55.5409 62.9295 55.1856 62.8096 54.5524Z" fill="white" stroke="black" stroke-miterlimit="10"/>
<path d="M53.6363 56.8046C52.5996 56.379 51.9066 55.6731 52.0884 55.228C52.2702 54.7829 53.2581 54.7671 54.2948 55.1927C55.3315 55.6183 56.0245 56.3242 55.8427 56.7693C55.6608 57.2144 54.673 57.2302 53.6363 56.8046Z" fill="white" stroke="black" stroke-miterlimit="10"/>
<path d="M54.1532 58.5457C53.4854 58.5083 52.9594 58.2017 52.9784 57.8611C52.9974 57.5204 53.5542 57.2746 54.222 57.312C54.8898 57.3495 55.4158 57.656 55.3968 57.9966C55.3778 58.3373 54.821 58.5831 54.1532 58.5457Z" fill="white" stroke="black" stroke-miterlimit="10"/>
<path d="M59.5772 44.2874C62.791 43.6224 66.1375 43.8498 69.2187 44.9824C69.9889 45.2655 69.6552 46.5097 68.8763 46.2222C66.0091 45.1669 62.9109 44.9094 59.9196 45.5272C59.1151 45.6945 58.7684 44.4547 59.5772 44.2874Z" fill="black"/>
<path d="M89.6573 46.8057C91.3776 44.0514 94.4587 42.4383 97.5613 41.4859C100.882 40.4648 104.524 40.0616 107.802 41.2113C111.08 42.3611 113.87 45.3342 114.041 48.8135C114.058 49.1825 114.058 49.5814 114.276 49.8775C114.426 50.0834 114.662 50.2035 114.888 50.3193C115.479 50.6197 116.104 50.9286 116.497 51.4648C116.891 52.0011 116.973 52.8334 116.489 53.2881C115.963 53.7772 115.128 53.5885 114.443 53.3825C104.306 50.3537 93.513 50.684 82.9387 51.0401C82.5963 50.2679 83.5378 49.5729 84.3166 49.2468C86.0027 48.5389 87.6888 47.8311 89.3748 47.1232L89.6616 46.81L89.6573 46.8057Z" fill="#FFDC00"/>
<path d="M89.1008 46.4796C91.5571 42.627 96.3543 40.7522 100.694 40.0959C105.264 39.4051 110.134 40.4133 113.022 44.3002C113.617 45.1025 114.084 46.0163 114.366 46.973C114.516 47.4706 114.606 47.9855 114.653 48.5003C114.674 48.7491 114.644 49.0323 114.709 49.2768C114.781 49.5514 114.965 49.6372 115.205 49.7616C116.138 50.2507 117.161 50.8213 117.405 51.9453C117.631 52.9878 117.075 54.0089 115.992 54.1976C114.91 54.3864 113.669 53.8115 112.624 53.5369C111.366 53.2066 110.095 52.9234 108.82 52.6832C106.188 52.1898 103.527 51.8809 100.852 51.6965C94.8865 51.2846 88.9039 51.4777 82.9342 51.6793C82.6389 51.6879 82.4078 51.4691 82.3137 51.2074C81.7531 49.6157 83.7002 48.8092 84.8214 48.3373C85.6987 47.9683 86.5717 47.6036 87.4489 47.2347C87.9025 47.0459 88.3519 46.8314 88.8098 46.6641C89.2677 46.4968 88.8397 46.7199 88.9895 46.5869C89.0665 46.5182 89.135 46.4324 89.2035 46.3552C89.7641 45.746 90.6713 46.6555 90.1107 47.2647C89.7427 47.6637 89.3661 47.8181 88.8568 48.0284C88.1122 48.3415 87.3676 48.6547 86.6187 48.9679C85.9126 49.2639 85.1937 49.5342 84.5004 49.8603C84.1453 50.0276 83.3792 50.3837 83.5504 50.8685L82.9299 50.3965C92.6569 50.0705 102.559 49.753 112.09 52.0783C112.672 52.2199 113.254 52.3743 113.836 52.5373C114.332 52.6789 114.85 52.8848 115.363 52.9406C115.774 52.9878 116.189 52.8934 116.176 52.4086C116.163 51.9238 115.753 51.5635 115.368 51.3189C114.982 51.0744 114.537 50.9114 114.165 50.6454C113.703 50.315 113.489 49.8517 113.429 49.294C113.326 48.3587 113.254 47.4921 112.885 46.6126C111.199 42.6099 106.762 40.9839 102.701 41.1813C100.214 41.3014 97.6681 41.9535 95.4 42.9788C93.3502 43.9012 91.4459 45.214 90.2177 47.136C89.7726 47.831 88.6643 47.1875 89.1093 46.4882L89.1008 46.4796Z" fill="black"/>
<path d="M86.7769 51.0529C85.0908 51.1902 85.0523 54.0046 84.941 55.6949C84.8897 56.4414 84.9282 57.2007 85.1593 57.9129C85.4845 58.9211 86.1863 59.7791 87.0122 60.4398C88.9123 61.9585 91.4371 62.4948 93.8635 62.4433C96.2899 62.3918 98.6735 61.8127 101.049 61.315C103.595 60.783 106.205 60.3283 108.525 59.1442C110.844 57.9601 112.885 55.8965 113.305 53.3181C113.305 53.3181 103.856 49.6415 86.7769 51.0529Z" fill="white"/>
<path d="M86.7769 51.6965C86.0408 51.7823 85.8654 52.975 85.7712 53.5284C85.6086 54.498 85.5273 55.5576 85.5701 56.5358C85.6856 59.2944 88.3217 60.9203 90.7481 61.4909C93.5639 62.1559 96.4696 61.6239 99.2512 61.0362C102.033 60.4484 104.917 60.0494 107.519 58.9083C109.967 57.8357 112.205 55.888 112.693 53.1423L113.142 53.936C111.807 53.4168 110.382 53.0908 108.987 52.7862C105.033 51.9282 100.984 51.5249 96.9489 51.4048C93.5597 51.3018 90.1661 51.4133 86.7854 51.6922C85.9638 51.7608 85.9681 50.4738 86.7854 50.4051C92.2587 49.959 97.7791 49.9418 103.24 50.5639C106.231 50.9028 109.231 51.4048 112.128 52.2542C112.581 52.3872 113.044 52.5245 113.484 52.6961C113.831 52.8291 113.998 53.1122 113.934 53.4898C113.454 56.2097 111.37 58.3763 109 59.6247C106.107 61.152 102.76 61.6111 99.5936 62.2803C96.4268 62.9496 93.1531 63.5116 89.9907 62.6235C87.1962 61.8427 84.5216 59.8178 84.3034 56.7203C84.2135 55.4418 84.3419 53.9874 84.6286 52.739C84.8982 51.5721 85.5187 50.5553 86.7854 50.4051C87.6028 50.3065 87.5985 51.5935 86.7854 51.6922L86.7769 51.6965Z" fill="black"/>
<path d="M87.8983 63.902C90.0337 65.8454 93.102 66.3216 95.9863 66.4031C99.842 66.5147 103.929 65.9956 106.98 63.636" fill="#FFB500"/>
<path d="M88.3517 63.4472C90.7867 65.6095 94.3642 65.824 97.4582 65.7725C100.552 65.721 104.014 65.0904 106.65 63.0826C107.309 62.5806 107.947 63.7004 107.296 64.1937C104.446 66.3646 100.788 67.021 97.2785 67.0639C93.7694 67.1068 90.1062 66.7335 87.4359 64.3611C86.8154 63.8119 87.7269 62.9024 88.3431 63.4515L88.3517 63.4472Z" fill="black"/>
<path d="M90.3205 67.8961C92.3617 68.8657 94.5314 69.6379 96.7823 69.7795C99.0333 69.9211 101.391 69.3762 103.137 67.939" fill="#FFB500"/>
<path d="M90.6456 67.3427C94.3259 69.0759 99.1744 70.2986 102.684 67.4885C103.321 66.978 104.237 67.8832 103.591 68.3981C99.5681 71.62 94.2745 70.4702 89.9952 68.4538C89.2463 68.102 89.901 66.9909 90.6414 67.3427H90.6456Z" fill="black"/>
<path d="M87.0552 60.0151C87.2991 59.2515 87.9325 58.6766 88.5615 58.1661C89.0922 57.7328 89.6442 57.3166 90.2305 56.9562C91.2105 56.3556 92.2803 55.918 93.3502 55.4804C94.1119 55.1715 94.8736 54.8584 95.6739 54.661C96.6496 54.4208 97.6595 54.3564 98.6651 54.335C100.026 54.3092 101.417 54.365 102.688 54.8369C104.746 55.6048 106.308 57.5183 106.616 59.6462C106.616 59.6462 100.189 62.0658 94.7923 62.1945C89.396 62.3189 87.0552 60.0151 87.0552 60.0151Z" fill="black"/>
<path d="M86.4346 59.8435C86.9867 58.3119 88.57 57.2179 89.9052 56.3985C91.3902 55.4847 93.119 54.794 94.7709 54.2491C96.4997 53.6828 98.4169 53.6013 100.218 53.7129C101.875 53.8158 103.449 54.2534 104.759 55.3002C106.068 56.347 106.967 57.84 107.228 59.4745C107.288 59.8435 107.134 60.1309 106.779 60.2682C104.335 61.1863 101.768 61.8727 99.2043 62.3404C95.6267 62.9968 91.7667 63.2113 88.3903 61.6239C87.7613 61.3279 87.098 60.9589 86.593 60.4656C86.0024 59.8864 86.9097 58.9769 87.5002 59.5561C87.5259 59.5775 87.5473 59.6032 87.573 59.6247C87.6029 59.6504 87.6329 59.6719 87.6585 59.6976C87.7955 59.8135 87.62 59.6719 87.7056 59.732C88.0223 59.9636 88.3604 60.1695 88.707 60.3497C89.9651 61.0018 91.3902 61.3493 92.7938 61.4823C96.4912 61.8341 100.278 60.9461 103.8 59.895C104.686 59.629 105.568 59.3501 106.432 59.0284L105.983 59.822C105.73 58.239 104.823 56.8189 103.462 55.9523C101.806 54.8969 99.7349 54.9055 97.8434 55.0085C95.7893 55.12 93.9193 55.8622 92.0663 56.7117C91.1976 57.1064 90.3759 57.574 89.6099 58.1446C88.891 58.6809 87.9752 59.3072 87.6585 60.1867C87.3804 60.9589 86.1394 60.6243 86.4218 59.8435H86.4346Z" fill="black"/>
<path d="M100.538 57.1434C100.418 56.5102 101.151 55.839 102.175 55.6441C103.199 55.4492 104.126 55.8044 104.246 56.4376C104.366 57.0708 103.633 57.742 102.609 57.9369C101.585 58.1318 100.658 57.7766 100.538 57.1434Z" fill="white" stroke="black" stroke-miterlimit="10"/>
<path d="M91.3697 59.3973C90.333 58.9717 89.64 58.2658 89.8218 57.8207C90.0036 57.3756 90.9914 57.3598 92.0282 57.7854C93.0649 58.2111 93.7579 58.9169 93.5761 59.362C93.3942 59.8071 92.4064 59.8229 91.3697 59.3973Z" fill="white" stroke="black" stroke-miterlimit="10"/>
<path d="M91.8866 61.1336C91.2188 61.0962 90.6928 60.7897 90.7118 60.449C90.7308 60.1084 91.2876 59.8626 91.9554 59.9C92.6232 59.9374 93.1491 60.2439 93.1302 60.5846C93.1112 60.9253 92.5544 61.1711 91.8866 61.1336Z" fill="white" stroke="black" stroke-miterlimit="10"/>
<path d="M97.3087 46.8786C100.522 46.2136 103.869 46.441 106.95 47.5736C107.72 47.8568 107.387 49.1009 106.608 48.8135C103.741 47.7581 100.642 47.5007 97.651 48.1185C96.8465 48.2858 96.4999 47.0459 97.3087 46.8786Z" fill="black"/>
<path d="M96.1319 84.4176L56.0684 82.9975C53.1884 82.8946 50.2356 82.7787 47.5653 81.822C46.2601 81.3544 44.9078 80.5092 44.788 79.3037C44.6296 77.7163 46.7522 76.6095 48.6009 76.691C50.4496 76.7768 52.1356 77.6134 53.9116 78.0724C55.8116 78.5615 57.8144 78.6216 59.7914 78.6387C72.0518 78.7503 84.5091 77.489 96.4485 79.9901C98.0533 80.3248 99.6752 80.7452 101.002 81.5989C102.328 82.4527 103.304 83.8255 103.146 85.2327C103.013 86.3825 102.153 87.3864 101.087 88.0814C98.5454 89.7502 95.0877 89.8575 91.8739 89.8618C84.6888 89.8704 77.5038 89.7073 70.3272 89.3684C66.4073 89.1839 62.4489 88.9437 58.6745 87.9784C57.3864 87.6481 56.0299 87.1719 55.3238 86.1851C54.6177 85.1984 55.5763 83.2893 56.89 83.0576" fill="#EF7800"/>
<path d="M96.1317 85.0611C83.4177 84.6106 70.7037 84.1601 57.9854 83.7097C55.0754 83.6067 52.1141 83.611 49.2554 82.9761C47.2998 82.5427 43.7479 81.4273 44.1758 78.7674C44.5439 76.4679 47.548 75.863 49.4395 76.1375C50.8559 76.3435 52.174 76.8969 53.5391 77.3045C54.977 77.7335 56.4576 77.9008 57.9554 77.9609C64.0578 78.2097 70.1901 77.8321 76.2925 77.785C82.3949 77.7378 88.4374 77.9265 94.4199 78.9519C97.0817 79.4066 100.193 79.8485 102.255 81.7619C103.103 82.547 103.74 83.611 103.805 84.7865C103.873 86.0478 103.15 87.2147 102.234 88.0213C100.296 89.7245 97.6252 90.2393 95.1303 90.4195C92.139 90.6383 89.1092 90.5182 86.118 90.4838C79.8444 90.4109 73.5494 90.2693 67.2887 89.8575C64.3146 89.6601 61.3233 89.3427 58.4304 88.5876C56.4919 88.0814 53.6803 86.8458 54.6603 84.3489C55.0155 83.448 55.7558 82.6543 56.7272 82.4484C57.5318 82.2768 57.8784 83.5166 57.0696 83.6882C56.325 83.847 55.6659 84.6835 55.7387 85.4644C55.8243 86.3782 57.245 86.8758 57.964 87.1118C60.5615 87.9569 63.3603 88.2615 66.0691 88.4803C71.8077 88.9394 77.5892 89.0552 83.3406 89.1582C86.2463 89.2097 89.1477 89.2354 92.0534 89.2268C94.467 89.2182 96.979 89.1839 99.2599 88.3087C100.334 87.8969 101.464 87.2362 102.097 86.2409C102.73 85.2456 102.589 84.2459 101.943 83.3407C100.454 81.2557 97.4069 80.8181 95.079 80.3805C83.9911 78.2955 72.6422 79.2994 61.4388 79.2994C58.6487 79.2994 55.7986 79.338 53.1026 78.5229C50.9544 77.8708 48.4081 76.5923 46.2642 77.9351C45.5624 78.377 45.143 79.1278 45.6822 79.8828C46.3412 80.8052 47.6207 81.2128 48.6563 81.5045C51.271 82.2467 54.0098 82.2896 56.7058 82.384C68.427 82.8002 80.1482 83.212 91.8651 83.6282L96.1274 83.7783C96.9533 83.8083 96.9533 85.0954 96.1274 85.0654L96.1317 85.0611Z" fill="black"/>
</g>
<defs>
<clipPath id="clip0_92_1478">
<rect width="159" height="208" fill="white" transform="matrix(-1 0 0 1 159 0)"/>
</clipPath>
</defs>
</svg>
