<svg width="102" height="152" viewBox="0 0 102 152" fill="none" xmlns="http://www.w3.org/2000/svg">
<g clip-path="url(#clip0_131_1060)">
<path d="M32.7803 20.059C32.9605 14.6715 32.5591 9.26488 31.5897 3.96476C31.3822 3.98114 31.2238 4.14498 31.0873 4.30063C29.1431 6.5288 28.0345 9.39868 26.0275 11.5722C23.843 8.38562 21.8442 5.07339 20.0447 1.65466C19.4249 2.52027 18.9989 3.50602 18.5811 4.48631C17.65 6.65441 16.7216 8.82252 15.7904 10.9906C14.3323 8.5713 12.9506 6.10556 11.6426 3.59886C11.5061 5.88438 11.5907 8.17809 11.6781 10.4691C11.8174 14.1909 11.7136 20.6543 11.8556 24.3788L32.783 20.0617L32.7803 20.059Z" fill="#FFDC00"/>
<path d="M33.1914 20.059C33.3689 14.6333 32.9593 9.19668 31.9872 3.85561C31.9462 3.62624 31.6841 3.53066 31.482 3.56889C31.0779 3.65081 30.8239 3.97302 30.5754 4.27339C30.327 4.57376 30.103 4.86866 29.8791 5.17722C29.3958 5.84895 28.9589 6.55072 28.5275 7.25522C27.6755 8.65056 26.8454 10.0705 25.7368 11.2801L26.3812 11.3621C24.1995 8.1727 22.2007 4.8632 20.3985 1.44448C20.2428 1.1523 19.8578 1.20691 19.6912 1.44448C18.741 2.7934 18.1757 4.39354 17.5286 5.90083C16.8323 7.52828 16.1332 9.15299 15.4369 10.7804H16.1442C14.6887 8.35838 13.3043 5.89537 11.9964 3.38867C11.797 3.00639 11.2564 3.21391 11.2318 3.5962C11.057 6.61079 11.2728 9.62539 11.3192 12.64C11.3601 15.2341 11.3492 17.8281 11.3683 20.4222C11.3792 21.7411 11.3929 23.0573 11.4421 24.3761C11.453 24.6547 11.6933 24.8267 11.9609 24.7721C14.331 24.2833 16.7012 23.7945 19.0714 23.3057C22.8178 22.533 26.5669 21.7602 30.3133 20.9847C31.1707 20.8072 32.0309 20.6297 32.8883 20.4523C33.4044 20.3458 33.1859 19.5566 32.6698 19.6631C30.2997 20.1519 27.9295 20.6407 25.5593 21.1294C21.8129 21.9022 18.0638 22.675 14.3174 23.4505C13.46 23.628 12.5998 23.8054 11.7424 23.9829L12.2612 24.3789C12.0783 19.3846 12.2203 14.3876 12.0455 9.39329C11.9773 7.46274 11.939 5.5322 12.051 3.60166L11.2864 3.80919C12.5944 6.31316 13.9788 8.7789 15.4342 11.2009C15.5762 11.4385 16.0158 11.4959 16.1414 11.2009C16.8377 9.57351 17.5368 7.94879 18.2331 6.32135C18.8802 4.81405 19.4455 3.21391 20.3957 1.86499H19.6885C21.4907 5.28372 23.4895 8.59322 25.6713 11.7826C25.8133 11.9901 26.1245 12.072 26.3157 11.8645C27.367 10.7149 28.1862 9.39328 28.9917 8.06894C29.3904 7.41086 29.7918 6.75278 30.2205 6.11382C30.4362 5.79434 30.6574 5.48032 30.8949 5.17449C31.0888 4.92601 31.3701 4.4263 31.695 4.3635L31.1898 4.07679C32.1483 9.34686 32.5388 14.7098 32.3667 20.0618C32.3503 20.5888 33.1695 20.5888 33.1859 20.0618L33.1914 20.059Z" fill="black"/>
<path d="M70.7596 134.302C59.1818 133.535 47.5713 133.109 35.958 133.06C32.4846 133.046 28.9895 133.065 25.5735 133.609C23.703 133.906 21.838 134.368 20.216 135.228C18.1708 136.312 16.6253 137.959 14.9132 139.411C13.4523 140.651 11.7702 141.874 11.2733 143.589C10.5988 145.91 12.4529 148.335 14.8831 149.482C17.3134 150.629 20.1832 150.787 22.9466 150.904C41.8151 151.696 60.7328 151.549 79.5822 150.465C81.8322 150.336 84.1178 150.186 86.2231 149.487C88.3284 148.788 90.2616 147.453 90.9962 145.61C91.8536 143.458 90.8979 140.995 89.1284 139.31C87.359 137.625 84.896 136.61 82.4084 135.87C78.4627 134.698 74.2794 134.125 70.1097 134.185" fill="black"/>
<path d="M70.6429 34.8536C63.333 25.0889 50.1933 22.0579 38.1104 20.3841C33.0697 19.685 27.9607 19.1034 22.8981 19.6359C17.8356 20.1683 12.7676 21.9023 9.00752 25.3319C4.28083 29.6408 2.12092 36.1069 1.14882 42.431C-0.983789 56.2752 1.71132 70.4962 6.46532 83.6714C12.8686 101.42 23.4033 118.186 38.8777 128.983C44.9096 133.194 51.5695 136.421 58.3223 139.346C62.238 141.042 66.3531 142.672 70.6156 142.478C74.9026 142.284 78.8757 140.266 82.6084 138.15C86.4613 135.963 90.2268 133.622 93.894 131.132C95.7699 129.86 97.6595 128.505 98.9265 126.624C100.518 124.259 100.953 121.305 101.029 118.454C101.215 111.455 99.4945 104.563 97.7851 97.7723C95.2784 87.811 92.7663 77.8334 89.3721 68.1397C85.1233 56.0049 79.359 44.1458 70.4708 34.8508" fill="#FFDC00"/>
<path d="M70.9985 34.646C64.8983 26.5579 54.9562 23.0518 45.3608 21.1622C42.835 20.6652 40.2928 20.2693 37.7424 19.9225C34.5012 19.4802 31.2463 19.0924 27.975 19.0269C22.2407 18.9149 16.2825 19.8652 11.3756 23.0081C6.83462 25.9162 3.95929 30.5446 2.31546 35.5962C0.515987 41.1175 -0.0437882 47.0812 -9.84571e-05 52.8619C0.0954729 65.0595 3.26025 77.1288 7.82856 88.3762C11.8562 98.2883 17.1836 107.728 24.0921 115.925C27.5354 120.01 31.3719 123.77 35.5852 127.058C40.2682 130.712 45.4072 133.707 50.7347 136.318C53.5008 137.672 56.3106 138.939 59.1449 140.14C61.9001 141.306 64.7345 142.371 67.7163 142.754C73.8493 143.54 79.305 140.553 84.4249 137.571C87.1801 135.968 89.8862 134.283 92.543 132.522C94.8668 130.982 97.3571 129.445 99.0337 127.165C100.71 124.884 101.246 122.042 101.396 119.289C101.565 116.155 101.297 113.004 100.83 109.904C99.8665 103.501 98.0753 97.2125 96.4669 90.9484C94.845 84.6243 93.1383 78.3194 91.1259 72.1072C87.5597 61.1001 82.9941 50.2214 76.0583 40.88C74.4173 38.6709 72.6478 36.5574 70.75 34.5641C70.3869 34.1818 69.808 34.7607 70.1712 35.1429C77.9124 43.2665 83.2753 53.3152 87.3003 63.7161C91.8003 75.3539 94.7985 87.5161 97.8131 99.6017C99.3313 105.694 100.746 111.9 100.617 118.219C100.56 121.045 100.181 124.022 98.5668 126.416C96.953 128.811 94.3726 130.335 92.0351 131.88C89.4738 133.573 86.8661 135.198 84.2147 136.746C81.5633 138.294 79.0101 139.78 76.1976 140.834C73.3632 141.896 70.3951 142.349 67.3859 141.885C64.3741 141.421 61.5124 140.28 58.7299 139.078C53.2878 136.73 47.9085 134.188 42.8459 131.088C38.1957 128.24 33.8868 124.884 29.9847 121.075C22.5029 113.768 16.5638 104.992 11.9627 95.6287C6.92746 85.3862 3.18652 74.2835 1.58093 62.9651C0.728975 56.9578 0.543293 50.8358 1.23414 44.8038C1.84033 39.5065 3.09368 34.0835 6.00452 29.5452C9.01911 24.8431 13.7977 21.9432 19.1743 20.6762C25.2744 19.2399 31.6231 19.9034 37.7561 20.7472C47.2886 22.0606 57.5257 24.0102 65.3161 30.0504C67.1811 31.4948 68.8632 33.1769 70.2831 35.061C70.5971 35.4761 71.3071 35.0692 70.9903 34.6487L70.9985 34.646Z" fill="black"/>
<path d="M47.0132 22.1643C49.6865 22.1643 50.8006 23.5078 52.8158 25.2636C66.5289 37.2018 75.0211 53.9459 82.2408 70.6354C86.8801 81.3613 91.1481 92.2946 93.8459 103.665C95.8092 111.939 96.9916 120.799 96.4154 129.281C96.795 125.327 95.9512 121.034 95.1757 117.14C94.1463 111.985 93.1196 106.83 92.0902 101.677C91.7953 100.197 91.4976 98.7061 90.9187 97.3135C90.1569 95.4731 88.9336 93.8675 87.8959 92.1663C85.321 87.953 83.8737 83.1689 82.0852 78.5651C77.7517 67.4051 71.3512 57.1872 64.9916 47.0429C62.5804 43.1955 60.1693 39.3508 57.7555 35.5034C55.8768 32.5079 53.9927 29.5042 51.8218 26.7135C50.148 24.5618 48.171 22.4538 45.5605 21.6701L47.0132 22.1671V22.1643Z" fill="#F3E253"/>
<path d="M47.0133 22.5739C48.7144 22.5903 49.9814 23.3085 51.232 24.4034C52.5919 25.594 53.949 26.7927 55.2488 28.0488C57.9384 30.6429 60.4287 33.4418 62.7334 36.3826C67.3918 42.3272 71.2884 48.8424 74.7426 55.5488C78.3306 62.5118 81.4872 69.7015 84.4663 76.9404C87.6857 84.7581 90.5965 92.7206 92.7346 100.907C94.8863 109.134 96.3008 117.635 96.1397 126.16C96.1206 127.2 96.0741 128.24 96.0059 129.281C95.9704 129.81 96.7786 129.8 96.8251 129.281C97.1882 125.297 96.4209 121.307 95.6454 117.416C94.8153 113.247 93.9825 109.08 93.1497 104.91C92.7483 102.9 92.4233 100.852 91.8772 98.8781C91.3611 97.0077 90.4436 95.3666 89.3923 93.7473C88.3411 92.1281 87.3362 90.4651 86.5034 88.7011C85.6705 86.9372 84.9414 85.064 84.2506 83.2099C82.8935 79.5618 81.5309 75.9328 79.898 72.3967C78.2651 68.8605 76.3673 65.2479 74.404 61.7773C70.3982 54.7023 65.9883 47.8594 61.6684 40.9728C59.4703 37.4667 57.324 33.9224 55.0249 30.4818C53.9408 28.8598 52.8131 27.2624 51.5761 25.7524C50.5112 24.4499 49.3206 23.2156 47.8952 22.3063C47.2017 21.864 46.4535 21.5172 45.6671 21.2714C45.1619 21.1131 44.9544 21.8913 45.4486 22.0606C45.9429 22.2299 46.4153 22.391 46.9013 22.5576C47.3873 22.7241 47.6167 21.9377 47.1197 21.7684C46.6228 21.5991 46.1531 21.438 45.6671 21.2714L45.4486 22.0606C48.8892 23.1364 51.1802 26.4023 53.1626 29.2121C55.5109 32.5407 57.6108 36.044 59.7734 39.4928C64.0468 46.3057 68.4076 53.0749 72.4516 60.027C76.3946 66.8016 79.898 73.7784 82.615 81.1346C83.9284 84.6953 85.2009 88.3052 87.0932 91.6147C88.0352 93.264 89.1957 94.7849 90.0723 96.4725C90.9488 98.16 91.3693 100.167 91.7543 102.095C92.5735 106.204 93.3954 110.314 94.2146 114.423C95.0037 118.377 95.9567 122.364 96.0851 126.411C96.1151 127.367 96.0905 128.325 96.0031 129.278H96.8223C97.393 120.674 96.238 112.015 94.261 103.651C92.2841 95.2874 89.4278 87.0846 86.2139 79.0839C83.2239 71.6403 80.0209 64.2567 76.4329 57.0807C72.8448 49.9046 69.1694 43.5805 64.5738 37.453C62.3101 34.4357 59.8717 31.5495 57.2285 28.8598C55.8823 27.489 54.4815 26.1811 53.037 24.9141C51.8956 23.9147 50.7952 22.7624 49.3643 22.1807C48.6134 21.8749 47.8161 21.7629 47.0105 21.7548C46.4835 21.7493 46.4835 22.5685 47.0105 22.5739H47.0133Z" fill="black"/>
<path d="M29.1864 19.5757C40.4857 27.3334 49.2346 37.1691 56.9513 48.4956C64.668 59.8222 70.8119 72.1427 76.4697 84.6271C83.6676 100.508 90.232 116.589 89.066 133.986C86.6876 111.297 76.7373 91.0358 66.8525 70.4771C64.2557 65.0786 61.6425 59.6584 58.2784 54.7023C55.3703 50.418 51.9324 46.5241 48.5055 42.6439C41.5889 34.8125 34.6886 27.3225 27.772 19.4911L29.1892 19.5757H29.1864Z" fill="#F3E253"/>
<path d="M28.9804 19.928C35.6404 24.5127 41.6259 29.9984 46.9342 36.0904C52.4691 42.4391 57.3078 49.383 61.644 56.5946C66.256 64.2676 70.2945 72.2683 74.071 80.3782C77.8474 88.4881 81.5255 96.6172 84.3326 105.085C87.0769 113.356 88.8982 121.979 88.7862 130.728C88.7726 131.815 88.7262 132.902 88.6552 133.988H89.4744C88.5951 125.687 86.6973 117.534 84.1114 109.604C81.5174 101.641 78.2707 93.9084 74.7946 86.2954C73.0388 82.4507 71.223 78.6334 69.3934 74.8214C67.5394 70.9576 65.718 67.0692 63.752 63.26C61.786 59.4508 59.5878 55.6853 57.0101 52.2092C54.416 48.7086 51.5271 45.4428 48.6435 42.1797C42.5898 35.3286 36.4131 28.5867 30.3321 21.7602C29.5729 20.9082 28.8166 20.0536 28.0602 19.1989L27.7707 19.8979L29.1879 19.9826C29.7149 20.0153 29.7122 19.1962 29.1879 19.1634L27.7707 19.0787C27.3939 19.0569 27.2628 19.5293 27.4813 19.7778C33.4859 26.5715 39.6079 33.2615 45.6426 40.0307C48.5589 43.3047 51.5025 46.5651 54.2549 49.9783C57.0074 53.3916 59.383 56.9468 61.4856 60.7479C63.5882 64.5489 65.3794 68.3526 67.2308 72.2C69.0822 76.0475 70.8707 79.7666 72.6429 83.573C76.1681 91.1395 79.5158 98.8016 82.2683 106.688C84.9989 114.505 87.1315 122.55 88.2674 130.761C88.4149 131.834 88.5432 132.91 88.6579 133.986C88.7125 134.504 89.4416 134.521 89.4771 133.986C90.0532 125.163 88.6279 116.37 86.0966 107.933C83.538 99.4106 79.9418 91.2406 76.2527 83.158C72.4927 74.9197 68.5115 66.7716 63.9759 58.9293C59.6888 51.5157 54.8994 44.3642 49.4327 37.7643C44.2691 31.5303 38.4502 25.8425 31.9349 21.0284C31.0994 20.4113 30.2529 19.8078 29.3955 19.2207C28.9613 18.9204 28.549 19.6303 28.9831 19.928H28.9804Z" fill="black"/>
<path d="M12.9342 22.8798C23.2968 31.8581 32.7202 42.9689 39.9891 54.5931C44.4181 61.6763 48.1945 69.1418 51.8836 76.6374C57.1619 87.3632 62.3036 98.2529 65.2718 109.833C66.6589 115.245 67.7758 121.165 71.8689 124.972C73.0649 126.083 74.4712 126.96 75.6181 128.123C78.5944 131.138 79.4355 135.599 80.1372 139.78C79.6048 136.017 75.6863 133.909 72.923 131.301C70.2852 128.811 68.5321 125.545 66.8255 122.342C64.4007 117.788 61.9677 113.222 60.0235 108.441C58.4534 104.582 57.2056 100.604 55.802 96.6828C48.6451 76.7138 37.3185 58.2494 22.7562 42.8242C21.5602 41.5572 20.3232 40.282 19.5641 38.7146C18.5265 36.5738 18.4828 34.1026 17.9093 31.7925C17.3359 29.4824 13.7015 24.1059 11.3613 23.669L12.9369 22.8798H12.9342Z" fill="#F3E253"/>
<path d="M12.6465 23.1692C19.4512 29.0755 25.6497 35.6754 31.1983 42.7695C36.9408 50.1122 41.8286 58.0227 46.1757 66.261C48.3957 70.4661 50.5037 74.7313 52.5899 79.0048C54.6761 83.2782 56.6749 87.4888 58.5345 91.814C60.4022 96.1639 62.1006 100.587 63.5069 105.109C64.7439 109.093 65.5166 113.214 66.8328 117.173C67.4363 118.984 68.179 120.769 69.2084 122.383C70.2379 123.997 71.6605 125.403 73.2306 126.629C74.9263 127.954 76.3681 129.341 77.362 131.274C78.2768 133.052 78.8011 135.007 79.2052 136.957C79.4073 137.929 79.5765 138.909 79.7404 139.886C79.8278 140.408 80.6115 140.184 80.5295 139.668C79.9233 135.774 76.1114 133.663 73.4491 131.23C69.8856 127.973 67.8103 123.361 65.5985 119.158C63.1465 114.503 60.8719 109.781 59.0751 104.831C57.3739 100.145 55.853 95.4021 53.9798 90.7764C50.4846 82.1477 46.2194 73.8384 41.2388 65.9743C36.2964 58.1702 30.6576 50.8003 24.4018 43.9983C22.8235 42.2808 20.9339 40.6397 19.91 38.5071C18.886 36.3745 18.9024 33.8814 18.2743 31.5986C17.8866 30.1951 17.0701 28.8735 16.2591 27.6802C15.3498 26.3449 14.3067 25.0233 13.0097 24.0485C12.5482 23.7017 12.0349 23.3959 11.4642 23.2757L11.5625 24.0239L13.138 23.2348C13.6104 22.9999 13.1954 22.2927 12.7257 22.5275L11.1502 23.3167C10.8416 23.4723 10.9099 23.9939 11.2485 24.0649C12.6056 24.3488 13.7115 25.7114 14.5416 26.7272C15.5601 27.9778 16.4721 29.3704 17.1302 30.845C17.9385 32.6472 17.9576 34.7197 18.4109 36.6229C18.957 38.9085 20.1912 40.6834 21.7722 42.3818C28.0827 49.1619 33.9153 56.2915 39.016 64.0355C44.0813 71.7222 48.4612 79.8594 52.082 88.3243C53.9935 92.7916 55.61 97.3545 57.1937 101.945C58.8785 106.83 60.8118 111.567 63.141 116.185C64.296 118.473 65.5002 120.734 66.7072 122.995C67.7994 125.043 68.919 127.088 70.3116 128.95C71.5813 130.649 73.0832 132.044 74.7188 133.379C76.1797 134.57 77.7416 135.774 78.7765 137.374C79.2734 138.144 79.6011 138.98 79.7404 139.886L80.5295 139.668C79.8851 135.831 79.1424 131.763 76.6357 128.65C75.2922 126.982 73.4136 125.919 71.8981 124.434C70.4836 123.047 69.4296 121.348 68.6186 119.549C66.9557 115.86 66.2621 111.81 65.189 107.93C63.9356 103.405 62.36 98.9737 60.5906 94.6266C57.0135 85.8258 52.7647 77.2763 48.4312 68.8278C44.0977 60.3793 39.4366 52.3895 33.8197 44.8639C28.2028 37.3384 22.362 30.8723 15.6912 24.7857C14.8774 24.043 14.0555 23.3112 13.2227 22.5903C12.8268 22.2463 12.2451 22.8224 12.6438 23.1692H12.6465Z" fill="black"/>
<path d="M72.0067 142.085C62.8537 134.45 53.6379 126.755 46.1069 117.517C40.1787 110.248 35.3783 102.128 29.6031 94.7358C24.3002 87.9503 18.058 81.5688 15.2428 73.4316C14.0031 69.8518 13.446 65.9661 11.409 62.7713C10.0382 60.6196 8.0722 58.9102 6.57582 56.8431C4.26845 53.6565 3.57488 49.6835 0.724121 46.972C1.71806 54.6969 4.06093 62.1433 8.41898 68.5984C9.54126 70.2614 10.7673 71.8642 11.6766 73.6528C12.9354 76.1349 13.5416 78.8874 14.4673 81.5115C16.0155 85.8914 18.4622 89.8972 21.089 93.7282C25.0047 99.4379 29.3573 104.831 33.7044 110.218C37.175 114.522 40.6648 118.842 44.717 122.602C47.808 125.469 51.2432 128.03 53.7608 131.413C54.9677 133.035 55.9999 134.881 57.712 135.957C59.6971 137.208 62.2639 137.202 64.3009 138.368C65.5488 139.081 66.5209 140.19 67.6814 141.036C68.8419 141.883 70.4421 142.658 71.7746 142.117L72.0067 142.085Z" fill="#F3E253"/>
<path d="M72.2954 141.795C66.0287 136.569 59.751 131.329 53.973 125.556C51.1086 122.695 48.3698 119.702 45.8386 116.537C43.3073 113.372 40.8252 109.842 38.4495 106.401C36.0875 102.977 33.7474 99.5362 31.2462 96.2131C28.9661 93.1821 26.5058 90.2958 24.1357 87.3386C21.7873 84.4086 19.5291 81.3777 17.7433 78.0654C16.8422 76.397 16.0749 74.6604 15.4796 72.8582C14.8843 71.0559 14.4447 69.1937 13.874 67.3778C13.3033 65.562 12.6234 63.8362 11.5803 62.2825C10.5372 60.7288 9.13641 59.3198 7.89672 57.8534C6.65702 56.3871 5.78322 54.8716 4.98862 53.1896C4.25681 51.644 3.58508 50.0575 2.6321 48.6294C2.1597 47.9249 1.6245 47.2669 1.01285 46.6743C0.783475 46.4531 0.264659 46.5924 0.31381 46.9638C1.34325 54.8825 3.80626 62.6047 8.35546 69.2237C9.52416 70.9249 10.7584 72.5933 11.624 74.4774C12.4896 76.3615 13.0548 78.5078 13.7102 80.5394C14.9908 84.4933 16.9542 88.1523 19.2042 91.6338C23.9117 98.9109 29.4576 105.634 34.9106 112.351C37.5976 115.66 40.3418 118.934 43.4028 121.908C46.2509 124.68 49.4757 127.066 52.1217 130.043C53.3942 131.471 54.3608 133.12 55.5896 134.581C56.1766 135.277 56.8484 135.913 57.6321 136.38C58.4157 136.847 59.2677 137.137 60.1306 137.38C60.9934 137.623 61.9218 137.83 62.7956 138.136C63.7268 138.461 64.546 138.947 65.3051 139.572C66.7195 140.741 68.0685 142.161 69.9225 142.59C70.3431 142.688 70.7772 142.726 71.2087 142.674C71.5199 142.636 71.8039 142.519 72.1152 142.475C72.634 142.404 72.4128 141.615 71.8968 141.686C71.5636 141.732 71.2605 141.866 70.9192 141.88C70.4523 141.902 69.9881 141.781 69.5512 141.618C68.6364 141.271 67.8309 140.67 67.0936 140.039C66.4001 139.447 65.7338 138.816 64.9747 138.303C64.2156 137.789 63.4182 137.464 62.5745 137.202C60.8078 136.653 58.8718 136.41 57.3836 135.22C55.9746 134.095 55.0817 132.481 54.0113 131.064C51.6657 127.962 48.5992 125.551 45.7293 122.965C42.641 120.182 39.8749 117.08 37.2235 113.888C34.5038 110.612 31.8414 107.286 29.2037 103.946C26.5659 100.607 23.8571 97.0432 21.3887 93.4415C19.0813 90.0719 16.8995 86.5631 15.3731 82.7593C14.6058 80.8506 14.0706 78.8655 13.4235 76.9131C12.7763 74.9607 11.9653 73.1503 10.854 71.4355C9.74261 69.7207 8.54933 68.1451 7.51716 66.4166C6.48499 64.6882 5.63304 62.9925 4.86847 61.1957C3.3284 57.5804 2.2662 53.7657 1.57808 49.9019C1.40332 48.9271 1.25314 47.9468 1.12753 46.9638L0.428496 47.2532C2.98435 49.7217 3.83084 53.2879 5.67127 56.2287C6.68979 57.8589 8.04144 59.2351 9.29479 60.6824C10.5481 62.1296 11.6486 63.7679 12.3831 65.6084C13.1176 67.4488 13.5545 69.2182 14.0734 71.045C14.5922 72.8718 15.1738 74.5894 15.9438 76.2851C17.4866 79.6874 19.5919 82.7948 21.8556 85.7521C24.1384 88.7312 26.5877 91.5765 28.9142 94.5201C31.4755 97.7613 33.8375 101.153 36.1831 104.552C38.5287 107.952 40.888 111.412 43.4001 114.727C45.9123 118.042 48.5118 121.078 51.3298 124.024C56.9521 129.906 63.1452 135.203 69.3791 140.419C70.1574 141.069 70.9329 141.719 71.7111 142.366C72.1125 142.702 72.6968 142.126 72.29 141.787L72.2954 141.795Z" fill="black"/>
<path d="M68.3227 47.1603C67.225 45.4073 65.259 44.3806 63.2793 43.7744C61.1603 43.1245 58.8366 42.8678 56.7449 43.5996C54.6533 44.3314 52.8729 46.2237 52.7637 48.4383C52.7528 48.6731 52.7528 48.927 52.6135 49.1154C52.5179 49.2465 52.3677 49.323 52.223 49.3967C51.8462 49.5878 51.4475 49.7844 51.1963 50.1258C50.9451 50.4671 50.8932 50.9968 51.2018 51.2863C51.5376 51.5976 52.0701 51.4774 52.507 51.3463C58.9758 49.4185 65.8624 49.6288 72.6098 49.8554C72.8282 49.3639 72.2275 48.9216 71.7305 48.714C70.6546 48.2635 69.5788 47.8129 68.5029 47.3624L68.32 47.1631L68.3227 47.1603Z" fill="#FFDC00"/>
<path d="M68.6772 46.9528C67.1098 44.5007 64.0488 43.3075 61.2799 42.8897C58.3637 42.4501 55.2562 43.0917 53.4131 45.5657C53.0335 46.0763 52.7359 46.6579 52.5556 47.2669C52.4601 47.5836 52.4027 47.9113 52.3727 48.239C52.359 48.3973 52.3782 48.5775 52.3372 48.7332C52.2908 48.9079 52.1734 48.9626 52.0204 49.0418C51.4252 49.353 50.7726 49.7162 50.6169 50.4316C50.4722 51.0952 50.8272 51.7451 51.518 51.8652C52.2089 51.9853 53.0007 51.6194 53.667 51.4447C54.4698 51.2344 55.2808 51.0542 56.0945 50.9013C57.7738 50.5873 59.4723 50.3907 61.1789 50.2733C64.9854 50.0111 68.8028 50.134 72.612 50.2623C72.8004 50.2678 72.9478 50.1285 73.0079 49.962C73.3656 48.9489 72.1232 48.4356 71.4078 48.1352C70.848 47.9004 70.291 47.6683 69.7312 47.4334C69.4417 47.3133 69.155 47.1767 68.8629 47.0702C68.5707 46.9638 68.8437 47.1057 68.7482 47.0211C68.699 46.9774 68.6553 46.9228 68.6116 46.8736C68.2539 46.4859 67.675 47.0648 68.0327 47.4525C68.2676 47.7065 68.5079 47.8048 68.8328 47.9386C69.3079 48.1379 69.7831 48.3373 70.2609 48.5366C70.7115 48.725 71.1702 48.897 71.6126 49.1046C71.8392 49.211 72.328 49.4377 72.2188 49.7462L72.6147 49.4459C66.408 49.2384 60.0894 49.0363 54.0083 50.5163C53.637 50.6064 53.2656 50.7047 52.8942 50.8085C52.5775 50.8986 52.2471 51.0296 51.9194 51.0651C51.6573 51.0952 51.3924 51.0351 51.4006 50.7265C51.4088 50.418 51.6709 50.1886 51.9167 50.033C52.1624 49.8773 52.4464 49.7736 52.684 49.6043C52.9789 49.394 53.1154 49.0991 53.1537 48.7441C53.2192 48.1488 53.2656 47.5973 53.5004 47.0375C54.5763 44.4898 57.4079 43.4549 59.9993 43.5805C61.5858 43.657 63.2105 44.072 64.6577 44.7247C65.9657 45.3117 67.1808 46.1473 67.9645 47.3706C68.2485 47.813 68.9557 47.4034 68.6717 46.9583L68.6772 46.9528Z" fill="black"/>
<path d="M70.1605 49.8637C71.2363 49.9511 71.2609 51.7423 71.3319 52.8182C71.3647 53.2933 71.3401 53.7767 71.1926 54.2299C70.9851 54.8716 70.5373 55.4177 70.0103 55.8383C68.7979 56.8049 67.1868 57.1462 65.6386 57.1135C64.0903 57.0807 62.5694 56.7121 61.0539 56.3953C59.4292 56.0567 57.7635 55.7673 56.2835 55.0136C54.8035 54.26 53.501 52.9465 53.2334 51.3054C53.2334 51.3054 59.2626 48.9653 70.1605 49.8637Z" fill="white"/>
<path d="M70.1603 50.2733C70.63 50.3279 70.7419 51.087 70.802 51.4393C70.9058 52.0564 70.9577 52.7308 70.9304 53.3534C70.8566 55.1092 69.1746 56.1441 67.6263 56.5073C65.8296 56.9305 63.9755 56.5919 62.2006 56.2178C60.4257 55.8437 58.5853 55.5898 56.9251 54.8634C55.3631 54.1808 53.935 52.9411 53.6237 51.1935L53.337 51.6987C54.189 51.3683 55.0983 51.1607 55.9885 50.9669C58.5115 50.4207 61.0947 50.1641 63.6697 50.0876C65.8323 50.0221 67.9977 50.0931 70.1549 50.2706C70.6791 50.3142 70.6764 49.4951 70.1549 49.4514C66.6624 49.1674 63.1399 49.1565 59.6557 49.5524C57.747 49.7681 55.8328 50.0876 53.9842 50.6283C53.6947 50.7129 53.3998 50.8003 53.1186 50.9095C52.8974 50.9942 52.7909 51.1744 52.8319 51.4147C53.1377 53.1459 54.4675 54.5248 55.9803 55.3194C57.8262 56.2915 59.9615 56.5837 61.9821 57.0097C63.9891 57.4329 66.0917 57.7934 68.1096 57.2281C69.8927 56.7312 71.5994 55.4423 71.7386 53.4708C71.796 52.6571 71.714 51.7314 71.5311 50.9368C71.3591 50.1941 70.9631 49.5469 70.1549 49.4514C69.6333 49.3886 69.636 50.2077 70.1549 50.2706L70.1603 50.2733Z" fill="black"/>
<path d="M69.4448 58.0419C68.0823 59.2788 66.1244 59.5819 64.284 59.6338C61.8237 59.7048 59.216 59.3744 57.269 57.8726" fill="#FFB500"/>
<path d="M69.1564 57.7524C67.6027 59.1287 65.3199 59.2652 63.3457 59.2324C61.3715 59.1997 59.1624 58.7983 57.4803 57.5203C57.0598 57.2008 56.653 57.9135 57.068 58.2276C58.8866 59.6092 61.2213 60.027 63.4604 60.0543C65.6995 60.0816 68.0369 59.8441 69.7408 58.3341C70.1367 57.9845 69.5551 57.4056 69.1619 57.7552L69.1564 57.7524Z" fill="black"/>
<path d="M67.8989 60.584C66.5964 61.2012 65.212 61.6927 63.7757 61.7828C62.3394 61.8729 60.8348 61.5261 59.7207 60.6114" fill="#FFB500"/>
<path d="M67.692 60.2317C65.3437 61.3349 62.2499 62.1131 60.0108 60.3246C59.6039 59.9996 59.0196 60.5758 59.4319 60.9035C61.9987 62.9542 65.3764 62.2223 68.107 60.939C68.5849 60.7151 68.1671 60.0078 67.6947 60.2317H67.692Z" fill="black"/>
<path d="M69.9821 55.568C69.8265 55.0819 69.4223 54.716 69.0209 54.3911C68.6823 54.1153 68.3301 53.8504 67.956 53.621C67.3307 53.2388 66.648 52.9602 65.9654 52.6817C65.4793 52.4851 64.9933 52.2858 64.4827 52.1602C63.8601 52.0073 63.2157 51.9663 62.574 51.9526C61.7056 51.9363 60.8182 51.9718 60.0072 52.2721C58.6938 52.7609 57.6971 53.9788 57.5005 55.3331C57.5005 55.3331 61.6019 56.8732 65.0452 56.9551C68.4885 57.0343 69.9821 55.568 69.9821 55.568Z" fill="black"/>
<path d="M70.3796 55.4587C70.0274 54.4838 69.017 53.7875 68.1651 53.266C67.2176 52.6844 66.1144 52.2447 65.0604 51.898C64.0064 51.5512 62.7339 51.4856 61.5843 51.5566C60.5276 51.6222 59.5227 51.9007 58.6871 52.567C57.8516 53.2332 57.2781 54.1835 57.1116 55.2238C57.0733 55.4587 57.1716 55.6416 57.3983 55.729C58.9575 56.3134 60.5958 56.7502 62.2315 57.0479C64.5143 57.4657 66.9773 57.6022 69.1317 56.5919C69.5331 56.4035 69.9564 56.1686 70.2786 55.8546C70.6554 55.486 70.0765 54.9071 69.6997 55.2757C69.6833 55.2894 69.6696 55.3058 69.6533 55.3194C69.6342 55.3358 69.615 55.3494 69.5987 55.3658C69.5113 55.4396 69.6232 55.3494 69.5686 55.3877C69.3666 55.5351 69.1508 55.6662 68.9297 55.7809C68.1269 56.1959 67.2176 56.4171 66.3219 56.5018C63.9627 56.7257 61.5461 56.1604 59.2988 55.4914C58.7336 55.3221 58.171 55.1446 57.6195 54.9399L57.9062 55.445C58.0673 54.4374 58.6462 53.5336 59.5145 52.982C60.5713 52.3103 61.8929 52.3157 63.0998 52.3813C64.4105 52.4523 65.6038 52.9247 66.7861 53.4653C67.3404 53.7165 67.8647 54.0142 68.3535 54.3773C68.8122 54.7187 69.3966 55.1173 69.5987 55.6771C69.7761 56.1686 70.568 55.9556 70.3878 55.4587H70.3796Z" fill="black"/>
<path d="M61.3802 53.738C61.4567 53.335 60.989 52.9077 60.3356 52.7837C59.6822 52.6596 59.0905 52.8857 59.014 53.2887C58.9375 53.6917 59.4052 54.119 60.0586 54.243C60.7119 54.3671 61.3036 54.141 61.3802 53.738Z" fill="white" stroke="black" stroke-width="0.273061" stroke-miterlimit="10"/>
<path d="M67.2307 55.175C67.8922 54.9041 68.3344 54.4548 68.2184 54.1715C68.1024 53.8882 67.4721 53.8782 66.8106 54.1491C66.1491 54.42 65.7068 54.8693 65.8229 55.1526C65.9389 55.4359 66.5692 55.4459 67.2307 55.175Z" fill="white" stroke="black" stroke-width="0.273061" stroke-miterlimit="10"/>
<path d="M66.8989 56.2823C67.3251 56.2585 67.6607 56.0634 67.6486 55.8466C67.6364 55.6298 67.2812 55.4733 66.8551 55.4971C66.4289 55.521 66.0933 55.7161 66.1054 55.9329C66.1176 56.1497 66.4728 56.3062 66.8989 56.2823Z" fill="white" stroke="black" stroke-width="0.273061" stroke-miterlimit="10"/>
<path d="M63.4399 47.2068C61.3893 46.7835 59.2539 46.9282 57.2879 47.6491C56.7964 47.8293 57.0094 48.6212 57.5063 48.4383C59.3358 47.7665 61.3128 47.6027 63.2215 47.9959C63.7348 48.1024 63.956 47.3133 63.4399 47.2068Z" fill="black"/>
<path d="M44.247 48.8097C43.1493 47.0566 41.1833 46.0299 39.2036 45.4237C37.0846 44.7738 34.7609 44.5172 32.6692 45.249C30.5776 45.9808 28.7972 47.8731 28.688 50.0876C28.6771 50.3224 28.6771 50.5764 28.5378 50.7648C28.4422 50.8959 28.2921 50.9723 28.1473 51.046C27.7705 51.2372 27.3718 51.4338 27.1206 51.7751C26.8694 52.1164 26.8175 52.6462 27.1261 52.9356C27.462 53.2469 27.9944 53.1268 28.4313 52.9957C34.9001 51.0679 41.7867 51.2781 48.5341 51.5048C48.7525 51.0133 48.1518 50.5709 47.6548 50.3634C46.579 49.9128 45.5031 49.4623 44.4272 49.0117L44.2443 48.8124L44.247 48.8097Z" fill="#FFDC00"/>
<path d="M44.603 48.6021C43.0356 46.15 39.9746 44.9568 37.2057 44.539C34.2894 44.0993 31.182 44.741 29.3388 47.215C28.9593 47.7256 28.6616 48.3072 28.4814 48.9161C28.3859 49.2329 28.3285 49.5606 28.2985 49.8882C28.2848 50.0466 28.3039 50.2268 28.263 50.3825C28.2166 50.5572 28.0991 50.6119 27.9462 50.691C27.351 51.0023 26.6983 51.3655 26.5427 52.0809C26.398 52.7445 26.753 53.3943 27.4438 53.5145C28.1346 53.6346 28.9265 53.2687 29.5928 53.094C30.3956 52.8837 31.2066 52.7035 32.0203 52.5506C33.6996 52.2366 35.3981 52.04 37.1047 51.9225C40.9112 51.6604 44.7286 51.7833 48.5378 51.9116C48.7262 51.9171 48.8736 51.7778 48.9337 51.6113C49.2914 50.5982 48.049 50.0848 47.3336 49.7845C46.7738 49.5496 46.2167 49.3175 45.657 49.0827C45.3675 48.9626 45.0808 48.826 44.7886 48.7195C44.4965 48.613 44.7695 48.755 44.674 48.6704C44.6248 48.6267 44.5811 48.5721 44.5374 48.5229C44.1797 48.1352 43.6008 48.7141 43.9585 49.1018C44.1934 49.3558 44.4337 49.4541 44.7586 49.5879C45.2337 49.7872 45.7089 49.9865 46.1867 50.1859C46.6373 50.3743 47.096 50.5463 47.5384 50.7538C47.765 50.8603 48.2538 51.087 48.1446 51.3955L48.5405 51.0952C42.3338 50.8876 36.0152 50.6856 29.9341 52.1656C29.5628 52.2557 29.1914 52.354 28.82 52.4577C28.5033 52.5479 28.1729 52.6789 27.8452 52.7144C27.5831 52.7445 27.3182 52.6844 27.3264 52.3758C27.3346 52.0673 27.5967 51.8379 27.8425 51.6823C28.0882 51.5266 28.3722 51.4228 28.6098 51.2535C28.9047 51.0433 29.0412 50.7484 29.0794 50.3934C29.145 49.7981 29.1914 49.2466 29.4262 48.6868C30.5021 46.1391 33.3337 45.1042 35.9251 45.2298C37.5116 45.3063 39.1363 45.7213 40.5835 46.3739C41.8915 46.961 43.1066 47.7966 43.8903 49.0199C44.1742 49.4623 44.8815 49.0527 44.5975 48.6076L44.603 48.6021Z" fill="black"/>
<path d="M46.0853 51.513C47.1611 51.6004 47.1857 53.3916 47.2567 54.4675C47.2895 54.9426 47.2649 55.4259 47.1174 55.8792C46.9099 56.5209 46.4621 57.067 45.9351 57.4876C44.7227 58.4542 43.1116 58.7955 41.5634 58.7627C40.0151 58.73 38.4942 58.3614 36.9787 58.0446C35.354 57.706 33.6883 57.4166 32.2083 56.6629C30.7283 55.9093 29.4258 54.5958 29.1582 52.9547C29.1582 52.9547 35.1874 50.6146 46.0853 51.513Z" fill="white"/>
<path d="M46.0846 51.9226C46.5543 51.9772 46.6663 52.7363 46.7263 53.0885C46.8301 53.7057 46.882 54.3801 46.8547 55.0027C46.7809 56.7585 45.0989 57.7934 43.5506 58.1566C41.7539 58.5798 39.8998 58.2412 38.1249 57.8671C36.35 57.493 34.5096 57.2391 32.8494 56.5127C31.2875 55.8301 29.8593 54.5904 29.5481 52.8428L29.2613 53.348C30.1133 53.0175 31.0226 52.81 31.9128 52.6161C34.4359 52.07 37.019 51.8134 39.594 51.7369C41.7566 51.6714 43.922 51.7424 46.0792 51.9198C46.6035 51.9635 46.6007 51.1443 46.0792 51.1007C42.5867 50.8167 39.0642 50.8058 35.58 51.2017C33.6713 51.4174 31.7571 51.7369 29.9085 52.2776C29.6191 52.3622 29.3241 52.4496 29.0429 52.5588C28.8217 52.6435 28.7152 52.8237 28.7562 53.064C29.062 54.7952 30.3918 56.1741 31.9046 56.9687C33.7505 57.9408 35.8858 58.233 37.9065 58.659C39.9135 59.0822 42.016 59.4427 44.0339 58.8774C45.817 58.3805 47.5237 57.0916 47.6629 55.1201C47.7203 54.3064 47.6384 53.3807 47.4554 52.5861C47.2834 51.8434 46.8874 51.1962 46.0792 51.1007C45.5576 51.0379 45.5604 51.857 46.0792 51.9198L46.0846 51.9226Z" fill="black"/>
<path d="M45.3696 59.6912C44.0071 60.9281 42.0492 61.2312 40.2088 61.2831C37.7485 61.3541 35.1408 61.0237 33.1938 59.5219" fill="#FFB500"/>
<path d="M45.0793 59.4017C43.5256 60.7779 41.2428 60.9145 39.2685 60.8817C37.2943 60.8489 35.0853 60.4475 33.4032 59.1696C32.9827 58.8501 32.5758 59.5628 32.9909 59.8768C34.8095 61.2585 37.1441 61.6763 39.3832 61.7036C41.6223 61.7309 43.9597 61.4934 45.6636 59.9833C46.0596 59.6338 45.478 59.0549 45.0848 59.4045L45.0793 59.4017Z" fill="black"/>
<path d="M43.8232 62.2333C42.5207 62.8505 41.1363 63.342 39.7 63.4321C38.2637 63.5222 36.7591 63.1754 35.645 62.2606" fill="#FFB500"/>
<path d="M43.6163 61.8811C41.268 62.9843 38.1742 63.7625 35.9351 61.9739C35.5282 61.649 34.9439 62.2251 35.3562 62.5528C37.923 64.6035 41.3008 63.8717 44.0314 62.5883C44.5092 62.3644 44.0914 61.6572 43.619 61.8811H43.6163Z" fill="black"/>
<path d="M45.9079 57.2173C45.7522 56.7312 45.3481 56.3653 44.9467 56.0404C44.6081 55.7646 44.2559 55.4997 43.8818 55.2703C43.2565 54.888 42.5738 54.6095 41.8912 54.331C41.4051 54.1344 40.9191 53.9351 40.4084 53.8095C39.7859 53.6565 39.1414 53.6156 38.4997 53.6019C37.6314 53.5855 36.744 53.621 35.933 53.9214C34.6195 54.4102 33.6229 55.628 33.4263 56.9824C33.4263 56.9824 37.5276 58.5225 40.9709 58.6044C44.4142 58.6836 45.9079 57.2173 45.9079 57.2173Z" fill="black"/>
<path d="M46.3029 57.108C45.9507 56.1331 44.9404 55.4368 44.0884 54.9153C43.1409 54.3337 42.0377 53.894 40.9837 53.5472C39.9297 53.2005 38.6572 53.1349 37.5076 53.2059C36.4509 53.2715 35.446 53.55 34.6105 54.2162C33.7749 54.8825 33.2015 55.8328 33.0349 56.8731C32.9967 57.108 33.095 57.2909 33.3216 57.3783C34.8808 57.9626 36.5192 58.3995 38.1548 58.6972C40.4376 59.115 42.9006 59.2515 45.0551 58.2412C45.4565 58.0528 45.8797 57.8179 46.2019 57.5039C46.5787 57.1353 45.9998 56.5564 45.623 56.925C45.6066 56.9387 45.593 56.955 45.5766 56.9687C45.5575 56.9851 45.5384 56.9987 45.522 57.0151C45.4346 57.0888 45.5466 56.9987 45.492 57.037C45.2899 57.1844 45.0742 57.3155 44.853 57.4302C44.0502 57.8452 43.1409 58.0664 42.2453 58.1511C39.886 58.375 37.4694 57.8097 35.2221 57.1407C34.6569 56.9714 34.0944 56.7939 33.5428 56.5891L33.8295 57.0943C33.9906 56.0867 34.5695 55.1829 35.4378 54.6313C36.4946 53.9596 37.8162 53.965 39.0231 54.0306C40.3338 54.1016 41.5271 54.574 42.7095 55.1146C43.2638 55.3658 43.788 55.6635 44.2768 56.0266C44.7356 56.368 45.3199 56.7666 45.522 57.3264C45.6995 57.8179 46.4914 57.6049 46.3111 57.108H46.3029Z" fill="black"/>
<path d="M37.3045 55.3871C37.381 54.9841 36.9133 54.5568 36.2599 54.4328C35.6066 54.3087 35.0149 54.5349 34.9383 54.9379C34.8618 55.3409 35.3295 55.7681 35.9829 55.8922C36.6363 56.0162 37.228 55.7901 37.3045 55.3871Z" fill="white" stroke="black" stroke-width="0.273061" stroke-miterlimit="10"/>
<path d="M43.1565 56.8253C43.818 56.5544 44.2602 56.1051 44.1442 55.8218C44.0282 55.5385 43.3978 55.5284 42.7363 55.7993C42.0748 56.0702 41.6326 56.5195 41.7486 56.8028C41.8647 57.0861 42.495 57.0962 43.1565 56.8253Z" fill="white" stroke="black" stroke-width="0.273061" stroke-miterlimit="10"/>
<path d="M42.8247 57.9296C43.2509 57.9057 43.5865 57.7106 43.5743 57.4938C43.5622 57.277 43.207 57.1205 42.7808 57.1444C42.3547 57.1682 42.0191 57.3633 42.0312 57.5801C42.0433 57.7969 42.3986 57.9534 42.8247 57.9296Z" fill="white" stroke="black" stroke-width="0.273061" stroke-miterlimit="10"/>
<path d="M39.3657 48.8561C37.315 48.4328 35.1797 48.5775 33.2137 49.2984C32.7221 49.4786 32.9351 50.2705 33.4321 50.0876C35.2616 49.4158 37.2386 49.252 39.1473 49.6452C39.6606 49.7517 39.8818 48.9626 39.3657 48.8561Z" fill="black"/>
<path d="M40.1151 72.749L65.6791 71.8451C67.5168 71.7796 69.4009 71.7059 71.1048 71.0969C71.9377 70.7993 72.8006 70.2614 72.877 69.4941C72.978 68.4837 71.6237 67.7792 70.444 67.8311C69.2644 67.8857 68.1885 68.4182 67.0553 68.7104C65.843 69.0217 64.565 69.0599 63.3035 69.0708C55.4803 69.1418 47.5315 68.339 39.9131 69.931C38.8891 70.1439 37.8542 70.4115 37.0077 70.9549C36.1612 71.4983 35.5386 72.3721 35.6397 73.2678C35.7243 73.9996 36.2732 74.6385 36.9531 75.0809C38.5751 76.1431 40.7814 76.2114 42.8321 76.2141C47.4168 76.2196 52.0015 76.1158 56.5807 75.9001C59.082 75.7827 61.6078 75.6297 64.0162 75.0154C64.8381 74.8051 65.7037 74.502 66.1542 73.874C66.6048 73.2459 65.9931 72.0308 65.1548 71.8833" fill="#EF7800"/>
<path d="M40.1157 73.1585C48.2283 72.8718 56.3409 72.5851 64.4563 72.2984C66.3131 72.2328 68.2027 72.2356 70.0268 71.8314C71.2747 71.5556 73.5411 70.8457 73.268 69.1527C73.0332 67.6891 71.1163 67.3041 69.9093 67.4788C69.0055 67.6099 68.1645 67.9621 67.2934 68.2216C66.3759 68.4946 65.4311 68.6011 64.4754 68.6393C60.5816 68.7977 56.6686 68.5574 52.7748 68.5274C48.8809 68.4974 45.0253 68.6175 41.2079 69.2701C39.5095 69.5596 37.5243 69.8408 36.2081 71.0587C35.6675 71.5584 35.2606 72.2356 35.2197 72.9837C35.176 73.7865 35.6374 74.5293 36.2218 75.0426C37.4588 76.1267 39.1627 76.4544 40.7546 76.569C42.6633 76.7083 44.5966 76.6318 46.5053 76.61C50.5084 76.5636 54.5251 76.4735 58.52 76.2113C60.4177 76.0857 62.3264 75.8837 64.1723 75.4031C65.4093 75.0809 67.2033 74.2944 66.578 72.7052C66.3514 72.1318 65.879 71.6266 65.2591 71.4956C64.7458 71.3863 64.5246 72.1755 65.0407 72.2847C65.5158 72.3857 65.9363 72.9182 65.8899 73.4152C65.8353 73.9968 64.9287 74.3136 64.47 74.4637C62.8125 75.0017 61.0267 75.1955 59.2982 75.3348C55.6364 75.627 51.9474 75.7007 48.2774 75.7662C46.4234 75.799 44.572 75.8154 42.7179 75.8099C41.1779 75.8045 39.575 75.7826 38.1196 75.2256C37.4342 74.9634 36.7133 74.5429 36.3092 73.9094C35.905 73.2759 35.9952 72.6397 36.4075 72.0635C37.3577 70.7365 39.3019 70.4579 40.7874 70.1794C47.8624 68.8523 55.104 69.4913 62.2527 69.4913C64.0331 69.4913 65.8517 69.5159 67.5719 68.997C68.9427 68.582 70.5674 67.7683 71.9355 68.623C72.3833 68.9042 72.6509 69.3821 72.3068 69.8627C71.8863 70.4497 71.0699 70.7091 70.409 70.8948C68.7406 71.3672 66.9931 71.3945 65.2728 71.4546C57.7936 71.7195 50.3145 71.9816 42.8381 72.2465L40.1184 72.342C39.5914 72.3612 39.5914 73.1803 40.1184 73.1612L40.1157 73.1585Z" fill="black"/>
<path d="M76.0143 83.6905C69.9387 84.769 64.6413 88.6875 60.7284 93.3514C58.847 95.5932 57.225 98.0316 55.9007 100.601C54.1148 104.072 52.8642 107.897 53.1837 111.682C53.353 113.692 53.9619 115.628 54.6801 117.504C55.2398 118.962 55.9034 120.436 57.0967 121.477C59.2102 123.317 62.4514 123.364 65.3622 123.03C68.4342 122.678 71.4788 122.012 74.4251 121.045C76.9236 120.229 79.3703 119.188 81.5438 117.728C85.2902 115.215 88.0754 111.565 90.1644 107.687C91.6635 104.907 92.8458 101.958 93.3837 98.9054C93.736 96.9012 93.7988 94.815 93.1298 92.9254C92.428 90.9457 90.9672 89.3155 89.3861 87.8956C87.6385 86.3255 85.6698 84.9302 83.4116 84.1082C81.1533 83.2863 79.3047 83.0433 76.8909 83.5102L76.0116 83.6905H76.0143Z" fill="#FF4C34"/>
<path d="M75.9061 83.2945C72.0395 83.9935 68.4815 85.8231 65.4041 88.2315C62.1629 90.7682 59.4378 93.9603 57.2451 97.4309C54.8995 101.142 52.9252 105.399 52.7396 109.85C52.644 112.116 53.1273 114.333 53.8673 116.466C54.5227 118.35 55.2626 120.414 56.8082 121.763C58.2417 123.014 60.1395 123.478 61.9991 123.576C64.088 123.686 66.2015 123.38 68.2522 123.014C70.5404 122.607 72.8014 122.028 75.0022 121.28C77.072 120.576 79.1063 119.715 80.9768 118.574C84.4556 116.452 87.2108 113.356 89.3489 109.918C91.6262 106.256 93.4666 102.111 93.9581 97.7941C94.2039 95.6314 93.9882 93.4278 92.9342 91.4945C91.9648 89.7142 90.4739 88.2506 88.9311 86.9617C85.7554 84.3076 81.7496 82.4016 77.5253 82.9914C76.9792 83.0679 76.4413 83.1853 75.9033 83.2972C75.3654 83.4092 75.6057 84.1929 76.1218 84.0864C77.6236 83.7778 79.1173 83.5566 80.6519 83.7915C82.6206 84.0946 84.513 84.8837 86.1896 85.9487C87.8661 87.0136 89.4062 88.3216 90.7169 89.7961C92.0276 91.2706 92.9915 93.0564 93.1854 95.0744C93.3902 97.2015 92.9778 99.3614 92.3771 101.396C91.7764 103.43 90.8944 105.462 89.8731 107.37C88.0627 110.748 85.7581 113.91 82.7599 116.329C79.4613 118.989 75.3627 120.494 71.2968 121.526C69.1751 122.064 67.007 122.468 64.8252 122.678C63.0121 122.853 61.1089 122.88 59.3613 122.29C58.5339 122.012 57.7612 121.572 57.1358 120.961C56.4395 120.278 55.948 119.423 55.5466 118.544C54.6756 116.635 53.982 114.549 53.6789 112.471C53.0536 108.198 54.5718 103.927 56.5679 100.211C58.4957 96.6226 60.986 93.2995 63.976 90.5252C66.7066 87.9912 69.9124 85.8913 73.4758 84.7472C74.3414 84.4687 75.2234 84.2502 76.1191 84.0891C76.6379 83.9963 76.4167 83.2071 75.9006 83.3L75.9061 83.2945Z" fill="black"/>
<path d="M86.7298 88.267C85.7167 86.9699 84.103 86.3419 82.5083 86.1644C80.616 85.9541 78.6718 86.3637 76.815 86.6859C74.9581 87.0081 73.2706 87.415 71.6514 88.2451C70.1768 89.0015 68.8634 90.061 67.6974 91.2324C66.5315 92.4038 65.513 93.6899 64.5299 95.0061C63.495 96.3932 62.5229 97.8268 61.6519 99.3232C59.9425 102.259 58.6018 105.464 58.083 108.834C57.5642 112.203 57.8481 115.854 60.1801 118.503C61.1576 119.612 62.4765 120.483 63.9292 120.808C65.715 121.206 67.5227 120.767 69.1747 120.07C70.9141 119.339 72.5443 118.38 74.139 117.375C75.6135 116.444 77.2082 115.548 78.4451 114.303C79.0677 113.678 79.5811 112.952 80.119 112.253C80.6569 111.554 81.2112 110.977 81.8338 110.401C82.4564 109.825 83.0844 109.274 83.6115 108.615C84.1385 107.957 84.5262 107.217 84.8921 106.458C85.258 105.699 85.6103 104.954 86.1291 104.304C86.6124 103.698 87.1831 103.165 87.7401 102.625C88.887 101.513 89.9628 100.336 90.3997 98.758C90.8366 97.1797 90.6592 95.3529 90.0939 93.7773C89.5287 92.2018 88.5484 90.6835 87.5545 89.2527C87.3032 88.8923 87.0274 88.581 86.7325 88.2588C86.2001 87.6717 85.3317 88.5427 85.8642 89.1271C86.6588 89.9982 87.3169 91.0085 87.9422 92.0762C88.7341 93.4305 89.343 94.9351 89.4113 96.5189C89.4795 98.1026 89.029 99.3997 88.0432 100.544C87.0575 101.688 85.9215 102.554 85.0314 103.722C84.0565 105.003 83.6661 106.639 82.6312 107.878C82.1287 108.482 81.5389 109 80.9628 109.53C80.3866 110.06 79.8022 110.672 79.2971 111.319C78.7919 111.966 78.355 112.591 77.8198 113.176C77.2846 113.76 76.6129 114.292 75.9275 114.754C74.5021 115.721 73.0385 116.649 71.5421 117.506C70.0594 118.356 68.4948 119.18 66.8182 119.56C65.3409 119.896 63.8637 119.724 62.5666 118.929C59.907 117.302 58.9977 114.12 59.0824 111.166C59.1752 107.985 60.1937 104.844 61.5945 102.013C63.0199 99.1321 64.8549 96.426 66.8974 93.9494C68.9399 91.4727 71.2145 89.4302 74.2564 88.5127C75.9357 88.0075 77.6997 87.7427 79.4309 87.4969C81.0174 87.2703 82.7595 87.1692 84.2504 87.8683C84.8866 88.1659 85.4218 88.5755 85.8533 89.1298C86.0581 89.392 86.5086 89.3428 86.7216 89.1298C86.981 88.8704 86.9264 88.5236 86.7216 88.2615L86.7298 88.267Z" fill="white"/>
<path d="M72.8452 94.4546C72.3865 99.2632 71.8294 104.061 71.1714 108.848C71.1413 109.069 71.226 109.285 71.4581 109.353C71.6492 109.407 71.9305 109.285 71.9632 109.066C72.6322 104.208 73.2002 99.3369 73.6671 94.4546C73.7163 93.9303 72.8971 93.933 72.8479 94.4546H72.8452Z" fill="white"/>
<path d="M11.751 2.29371C11.3059 2.41932 11.284 2.96817 11.4561 3.31496C11.6281 3.66174 12.0595 3.81466 12.4118 3.62352C12.7886 3.41872 12.8732 2.93813 12.6794 2.57769C12.5019 2.24729 12.1305 2.09984 11.7728 2.07799C11.4151 2.05615 11.0765 2.18721 10.8772 2.48212C10.6778 2.77703 10.727 3.21119 10.9209 3.48699C11.0355 3.64809 11.1885 3.78189 11.3878 3.83104C11.609 3.88292 11.8329 3.82285 12.0049 3.6754C12.1769 3.52794 12.2397 3.3013 12.1961 3.08832C12.1524 2.87533 11.9694 2.70057 11.7646 2.62138C11.4151 2.48485 10.9482 2.7033 10.7898 3.03643C10.6724 3.28219 10.7161 3.55798 10.9127 3.75185C11.0355 3.87473 11.2048 3.98396 11.3741 4.03038C11.6035 4.09045 11.8411 4.03038 12.0131 3.86927C12.1387 3.75185 12.2097 3.57983 12.2507 3.41599C12.3326 3.08832 12.349 2.74426 12.2889 2.41112C12.2288 2.07799 12.0404 1.80493 11.7319 1.68478C11.3851 1.54825 10.9727 1.75578 10.8116 2.07799C10.6341 2.43024 10.7106 2.81799 10.9072 3.14566C11.0001 3.29857 11.1147 3.44056 11.2649 3.5416C11.4479 3.66447 11.71 3.69724 11.9066 3.57983C12.2179 3.39414 12.3107 2.95725 12.1141 2.65415C11.8902 2.31282 11.396 2.24729 11.0601 2.46028C10.8499 2.59408 10.7188 2.80979 10.7516 3.06374C10.7816 3.29584 10.9564 3.46241 11.1666 3.54433C11.3059 3.59621 11.4779 3.59894 11.6226 3.55525C11.811 3.49518 11.9558 3.36684 12.0677 3.20573C12.1524 3.08559 12.2015 2.94632 12.2534 2.80979C12.3299 2.61046 12.1688 2.35105 11.9667 2.30463C11.7319 2.25002 11.5462 2.37563 11.4615 2.59134C11.4506 2.62138 11.3878 2.7388 11.4479 2.62684C11.4315 2.65688 11.4178 2.69238 11.4015 2.72241C11.3905 2.7388 11.3796 2.75518 11.3714 2.77157C11.3386 2.82891 11.3851 2.74699 11.3933 2.74426C11.3823 2.74699 11.3605 2.77703 11.3523 2.78522C11.325 2.81799 11.4369 2.72788 11.3632 2.77703C11.3195 2.80706 11.3305 2.76337 11.4015 2.76337C11.396 2.76337 11.3714 2.76883 11.366 2.7743C11.4369 2.7388 11.4615 2.76883 11.4096 2.7661C11.3578 2.76337 11.3769 2.74699 11.4533 2.7743C11.4424 2.77157 11.426 2.76883 11.4178 2.7661C11.3496 2.75245 11.4998 2.80706 11.4588 2.78249C11.4178 2.75791 11.5325 2.86168 11.4943 2.80979L11.5353 2.86714C11.5134 2.83164 11.5189 2.84802 11.5516 2.91902C11.5626 2.96271 11.5598 3.01186 11.5516 3.05282L11.5298 3.11016C11.4888 3.15658 11.4806 3.17023 11.5025 3.14839C11.538 3.11289 11.4124 3.19481 11.4834 3.16204C11.497 3.15658 11.5134 3.14839 11.5243 3.1402C11.4424 3.18935 11.4643 3.16477 11.5025 3.15385C11.5626 3.13747 11.5243 3.17297 11.4724 3.15385C11.4806 3.15658 11.5107 3.15385 11.5189 3.15385C11.5981 3.15385 11.426 3.13201 11.497 3.15385C11.568 3.1757 11.4288 3.11016 11.4697 3.1402C11.4943 3.15931 11.5325 3.19208 11.4479 3.12108C11.4697 3.1402 11.4806 3.18116 11.4178 3.08012C11.4561 3.13747 11.3878 2.99001 11.4015 3.03917C11.426 3.12108 11.3933 2.92721 11.4015 3.02551C11.4069 3.08285 11.4014 2.9709 11.4096 2.96817C11.4096 2.97909 11.4042 2.99001 11.4015 3.00094C11.4342 2.93267 11.4397 2.91356 11.426 2.94086C11.4015 2.98182 11.5052 2.86441 11.4561 2.90537C11.4561 2.90537 11.5489 2.84256 11.4998 2.86987L11.6499 2.82891C11.6172 2.82891 11.6199 2.82891 11.6581 2.83164H11.6909C11.6499 2.82345 11.6609 2.82891 11.7237 2.85348C11.7237 2.85075 11.6827 2.82891 11.6827 2.82891C11.751 2.85348 11.7346 2.87533 11.71 2.84802C11.7045 2.84256 11.6636 2.79341 11.6581 2.79341C11.6745 2.79341 11.7155 2.87533 11.6636 2.79887C11.6417 2.7661 11.6199 2.73061 11.5981 2.69511C11.5871 2.67599 11.5762 2.65415 11.5653 2.63503C11.5489 2.60773 11.5544 2.57496 11.5735 2.65688C11.5626 2.61319 11.5462 2.5695 11.5325 2.52854C11.5216 2.49304 11.5407 2.47939 11.5325 2.55858C11.5325 2.534 11.5325 2.50123 11.5298 2.47939C11.5298 2.40566 11.5298 2.50397 11.5243 2.51216C11.5271 2.50943 11.5434 2.45208 11.5407 2.44662C11.5407 2.45481 11.4943 2.53946 11.5271 2.48212C11.5352 2.46847 11.5434 2.45481 11.5516 2.44389C11.5899 2.37563 11.4834 2.5067 11.5434 2.45755C11.5544 2.44935 11.568 2.4357 11.5762 2.42751C11.5216 2.48758 11.5161 2.4712 11.5462 2.45481C11.6117 2.41386 11.4588 2.48212 11.5271 2.46301C11.6062 2.44116 11.4206 2.46847 11.5025 2.46574C11.5516 2.46574 11.4998 2.49031 11.4588 2.46028C11.4588 2.46028 11.4916 2.4712 11.497 2.4712L11.4342 2.44662C11.4342 2.44662 11.4561 2.46028 11.467 2.46574C11.467 2.47393 11.3851 2.38655 11.4288 2.43843C11.4342 2.44389 11.4479 2.46301 11.4561 2.46847C11.3905 2.42478 11.4096 2.4002 11.4342 2.44389C11.4451 2.46574 11.4588 2.48758 11.4697 2.5067C11.4861 2.534 11.4779 2.56404 11.4533 2.46847C11.4561 2.48212 11.4643 2.49577 11.467 2.50943C11.4779 2.54492 11.4861 2.57769 11.4943 2.61319C11.4943 2.62684 11.497 2.64323 11.5025 2.65415C11.4697 2.53946 11.4943 2.58861 11.497 2.62957C11.5025 2.68419 11.5052 2.73607 11.5052 2.79068C11.5052 2.83437 11.5052 2.87806 11.5052 2.92175C11.5052 2.95452 11.5107 3.02278 11.4943 3.05282L11.5025 3.00094C11.5025 3.01459 11.497 3.03097 11.497 3.04463C11.4943 3.0692 11.4888 3.09378 11.4834 3.11562C11.4752 3.16204 11.4643 3.20573 11.4506 3.25215C11.4451 3.27127 11.4397 3.28765 11.4342 3.30676C11.4178 3.35865 11.4834 3.21392 11.4451 3.28219C11.4451 3.28219 11.4233 3.31496 11.4233 3.32042C11.4233 3.29584 11.4834 3.24123 11.4397 3.29584C11.4069 3.33407 11.5271 3.23577 11.4615 3.274C11.4998 3.25215 11.5298 3.24396 11.5762 3.24123C11.4943 3.24669 11.6472 3.26581 11.5981 3.24396C11.6336 3.26854 11.5134 3.20573 11.5981 3.24396C11.5899 3.2385 11.5025 3.17843 11.497 3.18116C11.5107 3.17296 11.5707 3.24396 11.5134 3.19208C11.4861 3.1675 11.467 3.12928 11.5216 3.21392C11.5025 3.18389 11.5079 3.1675 11.5353 3.24942C11.5544 3.3095 11.5353 3.34772 11.5243 3.40507L11.5134 3.43237C11.5353 3.39687 11.5271 3.40507 11.4888 3.45695C11.497 3.45422 11.538 3.4078 11.5407 3.40507C11.538 3.44056 11.4697 3.45149 11.5189 3.42418C11.538 3.41326 11.5571 3.40234 11.5762 3.39414C11.6254 3.36684 11.4806 3.42964 11.5626 3.40507C11.5899 3.39688 11.6308 3.40507 11.5271 3.40507C11.6117 3.39961 11.4561 3.38049 11.5052 3.39687C11.5353 3.4078 11.5789 3.42964 11.4806 3.38322C11.5052 3.39414 11.5325 3.42964 11.4506 3.35865C11.5079 3.41053 11.4015 3.28219 11.4397 3.34499C11.4096 3.29311 11.4015 3.24396 11.4124 3.18662L11.4178 3.15385C11.4069 3.19481 11.4151 3.17843 11.4397 3.11016C11.426 3.13747 11.396 3.15658 11.4697 3.07466C11.4206 3.12928 11.5407 3.02824 11.497 3.05282C11.4533 3.07739 11.6035 3.02005 11.5298 3.03917C11.4834 3.05009 11.5325 3.02278 11.5789 3.03643C11.5762 3.03643 11.5462 3.03643 11.538 3.03643C11.6144 3.05009 11.6308 3.05009 11.5844 3.03643C11.6417 3.06374 11.6581 3.0692 11.6308 3.05555C11.5735 3.01459 11.639 3.04736 11.6472 3.07466C11.6472 3.0692 11.6144 3.04463 11.6144 3.0419C11.5571 2.98728 11.6527 3.10743 11.6281 3.06101C11.6199 3.04463 11.609 3.02551 11.5981 3.00913C11.5789 2.97909 11.5926 2.95725 11.6117 3.0419C11.609 3.02551 11.6008 3.01186 11.5953 2.99548C11.5899 2.97909 11.5871 2.9354 11.5789 2.92448L11.5871 2.98455C11.5871 2.96817 11.5871 2.95179 11.5871 2.9354C11.5871 2.91902 11.5899 2.90263 11.5871 2.88625C11.5926 2.9709 11.5735 2.95998 11.5871 2.92448C11.6117 2.84256 11.5325 3.00367 11.5817 2.93267C11.5899 2.92175 11.6008 2.90263 11.6062 2.89171C11.5762 2.95452 11.5598 2.95179 11.5871 2.92448C11.6417 2.86714 11.5025 2.9709 11.5735 2.9354C11.5871 2.92994 11.6008 2.92175 11.6117 2.91356C11.68 2.87533 11.5216 2.94086 11.5981 2.92175C11.6117 2.91902 11.6281 2.91356 11.6417 2.91083C11.6554 2.9081 11.6718 2.90537 11.6854 2.90263C11.6172 2.91083 11.6008 2.91356 11.6336 2.91083C11.6745 2.91083 11.7182 2.90537 11.7592 2.9081C11.7755 2.9081 11.7947 2.9081 11.811 2.91083C11.8984 2.91356 11.7291 2.89171 11.8056 2.91083C11.8274 2.91629 11.8493 2.91902 11.8684 2.92448C11.882 2.92721 11.893 2.93267 11.9066 2.9354C11.9476 2.95179 11.9394 2.94632 11.882 2.92175C11.882 2.92175 11.9312 2.94632 11.9285 2.94632C11.9394 2.95179 11.9503 2.95998 11.9612 2.96544C11.9885 2.98182 11.9776 2.97363 11.9285 2.93813C11.9367 2.94905 11.953 2.95998 11.964 2.9709C11.9749 2.98182 11.9858 2.99274 11.9967 3.0064C11.9612 2.95725 11.9503 2.94632 11.9667 2.9709C11.9721 2.98182 11.9858 3.01732 11.9967 3.02278L11.9721 2.96817C11.9776 2.98182 11.9803 2.99821 11.9858 3.01186C12.0076 3.08012 11.9803 2.9709 11.9803 2.9709C11.9803 2.98728 11.9803 3.00094 11.9803 3.01732L11.9885 2.95452C11.9803 3.02824 12.0295 2.88898 12.0022 2.92994C11.9503 3.01186 12.0623 2.87533 12.0076 2.92994C11.9776 2.95998 11.9858 2.92994 12.0404 2.9081C12.0104 2.91902 11.9476 2.94359 12.0595 2.9081C11.9858 2.93267 12.1469 2.9081 12.0923 2.9081C12.0459 2.9081 12.2015 2.9354 12.1196 2.9081C12.0732 2.89444 12.2124 2.96271 12.1578 2.92175L12.2097 2.96271C12.2097 2.96271 12.1906 2.94632 12.1824 2.9354C12.1333 2.89171 12.2152 2.97363 12.2097 2.97363C12.1961 2.9709 12.1906 2.93267 12.1797 2.92175C12.2316 2.98182 12.207 3.00094 12.1933 2.95179C12.1906 2.9354 12.1715 2.89717 12.1769 2.88079C12.1769 2.87806 12.1824 2.99548 12.1851 2.92721C12.1851 2.9081 12.1851 2.88625 12.1851 2.86441C12.1851 2.78795 12.1688 2.95452 12.1824 2.90537C12.1906 2.87533 12.1824 2.89171 12.1578 2.95725C12.1169 3.02278 12.0568 3.06647 11.9831 3.09105C12.1906 3.0337 12.338 2.79887 12.2698 2.58588C12.2015 2.3729 11.9858 2.2391 11.7646 2.29917L11.751 2.29371Z" fill="black"/>
<path d="M19.2504 0.292133C19.0019 0.649843 19.1766 1.13589 19.3951 1.46083C19.6381 1.82401 19.9849 2.07249 20.4273 2.10799C20.845 2.14076 21.241 1.88681 21.413 1.51272C21.5195 1.28607 21.5823 1.03486 21.5195 0.786373C21.4649 0.573386 21.3174 0.406818 21.1427 0.283941C20.8669 0.0873369 20.4737 0.0108798 20.1433 -0.00277328C19.7146 -0.0191569 19.3077 0.163794 19.0783 0.532426C18.8708 0.865561 18.7971 1.38165 19.0292 1.72024C19.3268 2.15714 19.9412 2.14622 20.2989 1.79124C20.5174 1.57279 20.6266 1.24512 20.4655 0.958402C20.2771 0.625267 19.7637 0.589769 19.5644 0.933826C19.3651 1.27788 19.6163 1.70386 20.0204 1.68747C20.2853 1.67655 20.5365 1.54275 20.7276 1.36799C20.8805 1.22873 20.8942 0.925634 20.7276 0.789104C20.5228 0.619806 20.2552 0.567924 20.0204 0.718108C19.7665 0.879214 19.7064 1.21508 19.8593 1.4663C20.0313 1.74482 20.4218 1.7967 20.6594 1.57006C20.7577 1.47449 20.8232 1.33796 20.8259 1.1987C20.8287 1.04851 20.774 0.936557 20.6812 0.824602C20.5447 0.658035 20.2416 0.671688 20.1023 0.824602C19.9412 0.999361 19.9549 1.226 20.1023 1.40349C19.9767 1.25058 19.974 1.04305 20.1487 0.939287C20.3098 0.843716 20.5338 0.920173 20.5829 1.09493C20.6239 1.23692 20.5338 1.40076 20.3918 1.43899C20.2962 1.46356 20.2225 1.42807 20.1487 1.37072V0.791834L20.1269 0.810949C20.0914 0.840985 20.0969 0.835524 20.1405 0.802757C20.1351 0.81641 20.0914 0.832794 20.0777 0.840985L20.0641 0.849177C20.0231 0.868292 20.0286 0.868292 20.0805 0.843716C20.0614 0.8601 20.0177 0.86283 19.9958 0.871022C19.9303 0.895598 20.0013 0.871022 20.0204 0.871022H19.9931C20.3317 1.10859 20.3863 1.30519 20.1597 1.46083C20.004 1.55367 19.8101 1.49633 19.7446 1.34615C19.731 1.32157 19.7255 1.29154 19.7255 1.26423C19.7255 1.22873 19.731 1.19323 19.7528 1.1632C19.7501 1.15774 19.7091 1.2615 19.7391 1.19323C19.761 1.14135 19.731 1.1987 19.7173 1.21508L19.6982 1.23419C19.6654 1.2615 19.6709 1.25877 19.7173 1.22054C19.7228 1.22054 19.6709 1.24785 19.6709 1.24785L19.72 1.22873C19.7037 1.23419 19.6873 1.23965 19.6682 1.24512C19.589 1.27515 19.731 1.25058 19.6818 1.24512C19.5944 1.23419 19.6927 1.2615 19.6955 1.25058C19.6763 1.24785 19.66 1.24239 19.6436 1.23419C19.6955 1.25604 19.7064 1.2615 19.6818 1.24512C19.6354 1.22054 19.7473 1.31611 19.6927 1.25058L19.7228 1.28881C19.7009 1.25058 19.7037 1.25877 19.7282 1.31338C19.7282 1.30519 19.7173 1.27242 19.7118 1.2615C19.6818 1.17685 19.7091 1.34888 19.7118 1.25877C19.7118 1.23419 19.7118 1.21235 19.7118 1.18777V1.17412C19.7173 1.1277 19.7146 1.13589 19.7064 1.1987C19.6927 1.16593 19.7364 1.06763 19.7473 1.03213C19.7719 0.939287 19.7037 1.10859 19.7473 1.02394C19.7555 1.00755 19.7637 0.991169 19.7746 0.974785C19.7828 0.961132 19.8047 0.911981 19.8211 0.903789L19.791 0.942018C19.791 0.942018 19.8101 0.920173 19.8183 0.911981C19.8265 0.901059 19.8566 0.865561 19.8702 0.865561L19.832 0.895598C19.8484 0.884675 19.8648 0.873753 19.8811 0.865561C19.8921 0.8601 19.9276 0.846447 19.933 0.838255C19.8784 0.8601 19.8729 0.86283 19.9139 0.849177C19.933 0.843716 19.9494 0.838255 19.9685 0.832794C19.9685 0.832794 20.0231 0.819141 20.0231 0.821871L19.9713 0.827332C19.9904 0.827332 20.0095 0.824602 20.0286 0.821871C20.0777 0.819141 20.1269 0.821871 20.176 0.821871C20.1979 0.821871 20.2443 0.821871 20.2662 0.830063C20.2607 0.827332 20.1679 0.813679 20.247 0.830063C20.3044 0.840985 20.3645 0.851908 20.4218 0.865561C20.4655 0.876483 20.5092 0.887406 20.5529 0.903789C20.572 0.909251 20.5938 0.917443 20.6129 0.925634C20.6976 0.955671 20.5283 0.881945 20.6075 0.925634C20.643 0.944749 20.6785 0.966593 20.714 0.985708C20.7822 1.02667 20.6676 0.933826 20.6976 0.972055C20.7085 0.985708 20.7386 1.02121 20.7549 1.0294C20.6976 0.999361 20.7112 0.961132 20.7358 1.01301C20.7604 1.0649 20.7085 0.909251 20.7276 0.988438C20.7304 1.00755 20.7522 1.08674 20.7331 0.9939C20.7467 1.05124 20.7386 1.01848 20.7386 0.988438C20.7358 1.04578 20.7085 1.10039 20.6921 1.15501C20.6757 1.20962 20.7413 1.06763 20.6921 1.14681C20.6757 1.17412 20.6594 1.20143 20.643 1.22873C20.6157 1.27788 20.7112 1.16047 20.6484 1.22054C20.643 1.226 20.5966 1.28061 20.5911 1.27788C20.5829 1.27515 20.6676 1.23146 20.6075 1.26423L20.5829 1.27788C20.5419 1.297 20.5501 1.297 20.6048 1.27242C20.602 1.28061 20.5501 1.29154 20.5392 1.29427C20.4546 1.31611 20.5529 1.29427 20.5529 1.29427C20.5529 1.297 20.4764 1.297 20.471 1.297H20.4436C20.3972 1.29154 20.4054 1.29427 20.4682 1.29973C20.4655 1.30519 20.3918 1.28334 20.3863 1.28061C20.3727 1.27788 20.359 1.27242 20.3453 1.26696C20.3153 1.25604 20.3262 1.2615 20.3781 1.28334C20.3262 1.28607 20.2771 1.19596 20.2307 1.1987L20.2689 1.22873C20.2552 1.21781 20.2389 1.20416 20.2252 1.1905C20.2034 1.17139 20.1842 1.14954 20.1651 1.13043C20.1487 1.11132 20.1187 1.08674 20.1078 1.0649C20.1515 1.15228 20.1187 1.07855 20.1023 1.05397C20.0696 1.00482 20.0395 0.955671 20.0122 0.903789C19.9986 0.879214 19.9876 0.851908 19.974 0.824602C19.9358 0.748145 19.9931 0.895598 19.974 0.81641C19.9658 0.789104 19.9576 0.761798 19.9494 0.734492C19.9248 0.655304 19.9494 0.821871 19.9494 0.718108C19.9494 0.685341 19.9631 0.627998 19.9439 0.734492C19.9576 0.693532 19.9521 0.698994 19.9303 0.756336C19.9385 0.739953 19.9494 0.723569 19.9603 0.709916C20.0832 0.532426 19.9986 0.248443 19.8129 0.150141C19.6026 0.0381859 19.3842 0.109182 19.2531 0.297594L19.2504 0.292133Z" fill="black"/>
<path d="M31.4157 1.99606C31.0744 1.96056 30.8313 2.27731 30.7467 2.56948C30.673 2.82616 30.6511 3.12107 30.7248 3.38048C30.8805 3.92933 31.5058 4.30342 32.041 4.00852C32.2704 3.88018 32.4233 3.63715 32.4888 3.38867C32.5598 3.12107 32.5653 2.80159 32.4014 2.56675C32.2294 2.321 31.9591 2.19812 31.6833 2.10255C31.4348 2.0179 31.1672 1.96875 30.9051 1.96329C30.6429 1.95783 30.378 2.0179 30.1896 2.20358C29.9575 2.43022 29.933 2.77974 30.0285 3.07192C30.1787 3.53066 30.4955 3.93206 30.9078 4.18601C31.1344 4.32527 31.4129 4.42084 31.6805 4.39353C31.9782 4.3635 32.2649 4.21604 32.4178 3.94844C32.7346 3.3914 32.2922 2.74151 31.7133 2.63229C31.3966 2.57222 31.0334 2.5886 30.7385 2.72786C30.3917 2.8917 30.1924 3.3204 30.3917 3.67265C30.4927 3.85014 30.6893 3.98667 30.8996 3.97848C31.1098 3.97029 31.3037 3.86106 31.3993 3.67538C31.5194 3.44328 31.4594 3.12926 31.2136 3.00365C31.0143 2.90262 30.7385 2.91354 30.5856 3.09649C30.4763 3.22483 30.4327 3.38048 30.5009 3.54431C30.5637 3.6945 30.7112 3.79553 30.875 3.79553C31.3556 3.80099 31.7652 3.48424 31.9236 3.03915C31.9864 2.86439 31.8799 2.67052 31.7352 2.57768C31.6669 2.53399 31.6014 2.48484 31.5222 2.46299C31.3938 2.42749 31.2655 2.46299 31.1563 2.52853C30.9842 2.63502 30.8887 2.82343 30.8777 3.02004C30.8559 3.37228 31.1372 3.64261 31.4703 3.68904C31.7788 3.72999 32.0819 3.57162 32.2731 3.33406C32.4042 3.17295 32.4915 2.97088 32.4342 2.76063C32.3687 2.52579 32.112 2.43568 31.8963 2.39199C31.6041 2.33192 31.1836 2.30462 30.9542 2.53399C30.7248 2.76336 30.7521 3.09649 30.7958 3.3914C30.8149 3.51155 30.8504 3.62077 30.9051 3.72999C30.9378 3.79553 30.987 3.86106 31.0389 3.91295C31.1426 4.01671 31.2737 4.0604 31.4184 4.06313C31.7352 4.06859 32.0301 3.86926 32.1693 3.59073C32.3086 3.31221 32.3605 2.93539 32.2485 2.63775C32.1174 2.2855 31.7297 2.00152 31.342 2.14351C31.1399 2.21724 30.9842 2.42476 31.0552 2.64867C31.118 2.84528 31.3447 3.01184 31.5604 2.93539C31.5741 2.92993 31.5904 2.92446 31.6041 2.92173C31.5331 2.92993 31.5194 2.93266 31.5631 2.93266L31.5003 2.92446C31.5413 2.93812 31.5304 2.93266 31.4676 2.90808C31.4812 2.91627 31.4949 2.92173 31.5085 2.93266L31.4648 2.89716C31.4648 2.89716 31.4894 2.919 31.4976 2.92993C31.4594 2.87804 31.4512 2.86985 31.4757 2.90808C31.5167 2.97088 31.4594 2.82889 31.4757 2.90808C31.4812 2.92446 31.4839 2.94085 31.4894 2.95996L31.4839 2.90262C31.4839 2.90262 31.4894 2.99546 31.4894 3.00911C31.4894 3.03642 31.4867 3.06373 31.4839 3.0883C31.5058 2.99819 31.4785 3.18114 31.4839 3.0883C31.4758 3.12107 31.4703 3.1511 31.4594 3.18387C31.4293 3.28217 31.4949 3.13199 31.4539 3.20026C31.4484 3.21118 31.4403 3.22483 31.4321 3.23575C31.4157 3.26033 31.4239 3.25214 31.4566 3.20845C31.4566 3.20845 31.3665 3.30129 31.4266 3.24395C31.4539 3.2221 31.4566 3.2221 31.4266 3.24121C31.3884 3.26033 31.3993 3.2576 31.4566 3.23302C31.4375 3.23575 31.402 3.24668 31.3856 3.25214C31.4539 3.24395 31.4676 3.24121 31.4211 3.24121C31.4894 3.25214 31.5003 3.25487 31.4566 3.24395L31.6369 3.35044C31.6068 3.31767 31.6123 3.32859 31.6532 3.37775C31.6423 3.36409 31.6341 3.35044 31.6259 3.33679L31.615 3.31494C31.5959 3.27671 31.6014 3.2849 31.6287 3.34498C31.6341 3.33406 31.6123 3.28764 31.6068 3.27398C31.6041 3.2576 31.5986 3.24121 31.5959 3.22483C31.5877 3.18114 31.5904 3.19206 31.5986 3.2576C31.6068 3.21391 31.5877 3.1511 31.5877 3.10468C31.5877 3.07192 31.5877 3.04188 31.5877 3.00911C31.585 2.93539 31.5604 3.09922 31.5877 3.0255C31.5659 3.08284 31.5304 3.13199 31.4757 3.16203C31.3829 3.21391 31.4375 3.18114 31.4785 3.17022C31.5058 3.16476 31.4949 3.16749 31.4403 3.17568C31.4594 3.17568 31.4785 3.17295 31.5003 3.17022C31.5304 3.17022 31.5604 3.17022 31.5877 3.17022C31.5986 3.17022 31.7215 3.17841 31.6505 3.17022C31.5795 3.16203 31.6997 3.18114 31.7133 3.18387C31.7434 3.18933 31.7707 3.19753 31.798 3.20845C31.8198 3.21664 31.9427 3.26579 31.8389 3.21937L31.6369 2.86439C31.645 2.92993 31.6532 2.82889 31.6587 2.80978C31.6724 2.77701 31.6724 2.77701 31.6532 2.80978L31.6833 2.77155C31.6669 2.77701 31.5959 2.84801 31.5877 2.86712C31.6341 2.83435 31.6423 2.82616 31.6177 2.84255C31.6068 2.85074 31.5959 2.85893 31.585 2.86439C31.5713 2.87258 31.5495 2.87804 31.5386 2.88897C31.5932 2.86712 31.6041 2.86166 31.5768 2.87258C31.5631 2.87804 31.5522 2.88077 31.5386 2.8835C31.5495 2.87531 31.645 2.86439 31.5659 2.87531C31.5249 2.88077 31.6696 2.89716 31.5932 2.87804C31.5249 2.86166 31.656 2.91354 31.6177 2.88897C31.5795 2.86439 31.6915 2.96269 31.6396 2.90535L31.6751 2.95177C31.6997 3.0173 31.7051 3.03642 31.6969 3.00638C31.6887 2.96269 31.7051 3.1238 31.7024 3.04734C31.6997 2.98181 31.686 3.13472 31.6997 3.0883C31.7106 3.05826 31.6997 3.07465 31.6778 3.14291L31.6341 3.19479L31.6478 3.18114C31.615 3.21391 31.5768 3.23575 31.5331 3.24941L31.2163 3.20845C31.2546 3.23302 31.2928 3.2576 31.331 3.28217L31.1426 2.8207C31.1262 2.86166 31.1317 2.85074 31.1563 2.79066C31.1481 2.80432 31.1426 2.8207 31.1344 2.83435C31.1262 2.84801 31.118 2.86166 31.1098 2.87531C31.0853 2.91081 31.0907 2.90262 31.129 2.85074C31.1126 2.86439 31.0962 2.88897 31.0798 2.90262C31.0689 2.91354 31.0552 2.92446 31.0443 2.93539C31.0962 2.89716 31.1044 2.88897 31.0689 2.91627C31.0416 2.93266 31.0143 2.94904 30.9842 2.96542C30.9187 3.00092 31.0716 2.94085 30.9924 2.95996C30.9679 2.96542 30.9214 2.97088 30.8996 2.98181C30.9679 2.97361 30.9815 2.97088 30.9351 2.97635C30.9187 2.97635 30.9023 2.97635 30.8859 2.97635L31.1754 3.67538C31.1208 3.74092 31.0034 3.76276 30.9269 3.75184C30.8586 3.74365 30.7412 3.68357 30.7112 3.61531L30.6566 3.40778C30.6484 3.22483 30.8559 3.11561 31.0088 3.17841C31.0498 3.19479 31.0716 3.22483 31.1044 3.25214L31.1235 3.27671C31.1071 3.24668 31.1071 3.25214 31.1235 3.2849C31.1317 3.31767 31.1426 3.34225 31.1426 3.37775C31.1426 3.29856 31.118 3.47605 31.1426 3.39413C31.1426 3.40232 31.0989 3.48424 31.1344 3.4269C31.1344 3.4269 31.0771 3.48697 31.1098 3.46239C31.189 3.40505 31.0443 3.51155 31.1262 3.45147C31.1617 3.4269 31.1017 3.46786 31.0962 3.46239C31.0962 3.46239 31.1453 3.44601 31.1508 3.44601C31.1699 3.44055 31.189 3.43782 31.2082 3.43236C31.2218 3.42963 31.3065 3.41324 31.2409 3.4269C31.1754 3.44055 31.2846 3.42417 31.301 3.42144C31.3392 3.4187 31.3774 3.41597 31.4157 3.41597C31.4457 3.41597 31.5031 3.43236 31.5304 3.42144C31.5194 3.42417 31.4321 3.40232 31.5058 3.42144C31.5249 3.4269 31.544 3.42963 31.5604 3.43509C31.5768 3.44055 31.5959 3.44601 31.615 3.45147C31.6969 3.47332 31.5932 3.44601 31.5959 3.44328C31.6068 3.43509 31.6696 3.4897 31.6833 3.49516C31.6833 3.49516 31.6205 3.44055 31.6478 3.47059C31.6587 3.48151 31.6724 3.49243 31.6833 3.50608C31.6942 3.51974 31.7297 3.5607 31.6915 3.51155C31.6505 3.45693 31.6969 3.52247 31.7024 3.53066C31.7106 3.54431 31.716 3.56343 31.7242 3.57435C31.7242 3.57435 31.6969 3.49516 31.7051 3.53339C31.7051 3.54977 31.7133 3.56616 31.7188 3.57981C31.7352 3.62896 31.7188 3.4897 31.7133 3.54158C31.7133 3.54977 31.7133 3.56889 31.7133 3.57708C31.6915 3.49516 31.7352 3.50335 31.716 3.53885C31.686 3.60166 31.7324 3.51155 31.7324 3.50881C31.7215 3.52247 31.7106 3.54431 31.7051 3.5607C31.6833 3.60439 31.7625 3.50062 31.727 3.53339C31.716 3.54431 31.7024 3.55524 31.6942 3.56616C31.6669 3.59619 31.727 3.54158 31.7297 3.53885C31.7188 3.54158 31.6997 3.55797 31.6887 3.56616C31.6887 3.56616 31.6478 3.58254 31.645 3.588C31.6505 3.57708 31.7406 3.55797 31.6751 3.57435C31.6587 3.57708 31.6423 3.58254 31.6287 3.588C31.5713 3.60439 31.6505 3.57981 31.6669 3.58527C31.6532 3.57981 31.5577 3.59892 31.5522 3.58527C31.5522 3.58254 31.6587 3.60985 31.5768 3.58527C31.5577 3.57981 31.5386 3.57708 31.5222 3.57162C31.5058 3.56616 31.4867 3.5607 31.4676 3.55524C31.4539 3.5525 31.4157 3.53066 31.4621 3.55524C31.514 3.58254 31.4594 3.55524 31.4457 3.54704C31.4239 3.53612 31.402 3.5252 31.3829 3.51428C31.3501 3.49516 31.3174 3.47605 31.2873 3.4542C31.2764 3.44601 31.2655 3.44055 31.2546 3.43236L31.2436 3.42417C31.2163 3.40232 31.2163 3.40232 31.2436 3.42417L31.2655 3.44055C31.2655 3.44055 31.2464 3.42417 31.2355 3.41597C31.2245 3.40778 31.2163 3.39959 31.2054 3.3914C31.1754 3.36682 31.1481 3.33952 31.1208 3.30948C31.0962 3.2849 31.0716 3.26033 31.0498 3.23302C31.0416 3.2221 31.0334 3.21391 31.0252 3.20299C30.9788 3.1511 31.0361 3.21664 31.0416 3.22483C31.0034 3.16203 30.9569 3.10468 30.9187 3.03915C30.9023 3.01184 30.8887 2.98454 30.875 2.95723C30.8668 2.94085 30.8614 2.92446 30.8532 2.91081C30.8259 2.8562 30.8723 2.92719 30.8641 2.93539C30.875 2.92446 30.7767 2.73605 30.804 2.72513C30.8095 2.72513 30.8095 2.83435 30.8122 2.75244C30.8122 2.68963 30.8177 2.77701 30.804 2.78247C30.804 2.78247 30.8149 2.72513 30.8177 2.73059C30.8177 2.73059 30.7849 2.80978 30.804 2.76882C30.8286 2.71967 30.7494 2.83435 30.7822 2.79613C30.7931 2.78247 30.8341 2.7497 30.7822 2.79339C30.7358 2.83162 30.7631 2.80978 30.7767 2.80159C30.8395 2.76063 30.6866 2.82616 30.7603 2.80705C30.7849 2.79886 30.8122 2.79339 30.8368 2.78793C30.8887 2.77428 30.7439 2.79613 30.7986 2.79339C30.8095 2.79339 30.8231 2.79339 30.8341 2.79339C30.9078 2.79066 30.9842 2.79339 31.058 2.80159C31.0744 2.80159 31.1399 2.81251 31.0798 2.80159C31.0225 2.79066 31.0771 2.80159 31.0853 2.80159C31.1262 2.80705 31.1672 2.81524 31.2054 2.82343C31.2846 2.83982 31.3638 2.86166 31.443 2.88624C31.4812 2.89989 31.5194 2.91354 31.5577 2.92719C31.5659 2.92993 31.6123 2.94358 31.615 2.94904C31.615 2.94904 31.5467 2.919 31.585 2.93812C31.615 2.9545 31.6478 2.96815 31.6778 2.98454C31.6887 2.99 31.6997 2.99819 31.7106 3.00365C31.7215 3.00911 31.7324 3.0173 31.7434 3.0255C31.7679 3.04188 31.757 3.03369 31.7106 3.00092C31.7106 3.00092 31.798 3.09103 31.7461 3.03096C31.7051 2.98454 31.7379 3.02823 31.7461 3.04188C31.7734 3.08284 31.7297 2.97088 31.7352 3.02004C31.7352 3.02823 31.7406 3.0528 31.7434 3.06099C31.7133 3.00365 31.7379 2.99273 31.7352 3.03642C31.7352 3.05553 31.7352 3.07465 31.7352 3.09376C31.7352 3.11015 31.727 3.19479 31.7352 3.11834C31.7434 3.04188 31.7297 3.14018 31.7242 3.1593C31.716 3.19206 31.7051 3.2221 31.6969 3.25214C31.6833 3.29856 31.6751 3.24941 31.7106 3.2221C31.7051 3.22756 31.6915 3.26033 31.6887 3.26306C31.6805 3.27671 31.6724 3.29037 31.6642 3.30402C31.6369 3.35044 31.6751 3.2849 31.686 3.27671C31.6778 3.28217 31.6614 3.30129 31.656 3.30948C31.6096 3.36409 31.7106 3.27944 31.6778 3.29583C31.6642 3.30402 31.6505 3.31221 31.6369 3.3204C31.5959 3.34498 31.727 3.29037 31.6587 3.30948C31.615 3.3204 31.6423 3.29583 31.6997 3.30948C31.686 3.30675 31.656 3.30948 31.6423 3.30948C31.6068 3.31767 31.6887 3.31767 31.6942 3.31767C31.6751 3.30948 31.6478 3.30675 31.6287 3.30129C31.615 3.29856 31.5768 3.27944 31.6341 3.30675C31.6997 3.33406 31.6341 3.30675 31.6205 3.29583C31.6205 3.29583 31.585 3.27125 31.5795 3.27125C31.5959 3.27125 31.656 3.33679 31.5986 3.2849C31.5877 3.27398 31.5768 3.26306 31.5659 3.25214C31.514 3.19752 31.5795 3.25214 31.5768 3.27125C31.5768 3.26579 31.5085 3.14564 31.5386 3.20845C31.5631 3.2576 31.5413 3.21664 31.5386 3.20572C31.5304 3.17841 31.5249 3.1511 31.5167 3.1238C31.514 3.11288 31.5085 3.06372 31.5167 3.1238C31.5249 3.19206 31.5167 3.10741 31.5167 3.09376C31.5167 3.05007 31.5167 3.00638 31.5167 2.96542C31.5167 2.94904 31.5249 2.88624 31.5167 2.94904C31.5085 3.0173 31.5222 2.92446 31.5222 2.919C31.5304 2.87804 31.5413 2.83708 31.5522 2.79613C31.5549 2.7852 31.5604 2.77428 31.5631 2.76336C31.5386 2.8207 31.5304 2.83435 31.544 2.80705C31.5495 2.79613 31.5549 2.7852 31.5604 2.77428C31.5659 2.76336 31.5741 2.75517 31.5795 2.74424C31.6014 2.70328 31.5167 2.81251 31.5659 2.76609C31.4976 2.82889 31.5058 2.80978 31.5331 2.79339L31.473 2.8207C31.3993 2.82616 31.3829 2.83162 31.4266 2.83435C31.6396 2.8562 31.8444 2.62956 31.8362 2.42476C31.8253 2.18447 31.656 2.03975 31.4266 2.01517L31.4157 1.99606Z" fill="black"/>
<path d="M12.6241 12.2823C12.6432 13.8006 12.6623 15.3188 12.6814 16.8397C12.6869 17.3667 13.506 17.3667 13.5006 16.8397C13.4815 15.3215 13.4623 13.8033 13.4432 12.2823C13.4378 11.7553 12.6186 11.7553 12.6241 12.2823Z" fill="black"/>
<path d="M13.074 19.7915C13.601 19.7915 13.601 18.9724 13.074 18.9724C12.547 18.9724 12.547 19.7915 13.074 19.7915Z" fill="black"/>
<path d="M21.1064 11.4249C20.6995 13.107 20.35 14.7153 20.3199 16.4547C20.3172 16.6622 20.3199 16.8807 20.4128 17.0664C20.5247 17.293 20.7459 17.4268 20.9589 17.5469C21.3084 17.7463 21.6716 17.9347 22.0593 18.0193C22.4471 18.104 22.8731 18.0767 23.2144 17.8582C23.6076 17.607 23.8397 17.1292 23.9025 16.6458C23.9653 16.1625 23.8779 15.671 23.7578 15.2013C23.34 13.6012 22.4853 12.1294 21.3248 11.0153L21.1091 11.4249H21.1064Z" fill="#00C2F8"/>
<path d="M20.7099 11.3157C20.404 12.5881 20.1228 13.8688 19.9863 15.1713C19.9262 15.7611 19.7896 16.5011 19.9753 17.0773C20.161 17.6534 20.7372 17.921 21.2287 18.1504C22.28 18.6419 23.5606 18.5818 24.0986 17.4022C24.5928 16.3154 24.1996 15.0157 23.7736 13.9698C23.2794 12.7493 22.5503 11.6434 21.6082 10.7231C21.428 10.5457 21.0894 10.5675 20.9638 10.8051L20.7481 11.2146C20.5023 11.6816 21.2096 12.0966 21.4553 11.627L21.671 11.2174L21.0266 11.2993C21.8786 12.1294 22.5585 13.1315 23.0036 14.2374C23.2302 14.8054 23.4405 15.4225 23.4951 16.0342C23.5442 16.5694 23.4487 17.2848 22.9053 17.5524C22.3318 17.8364 21.6547 17.4732 21.1577 17.1865C20.871 17.0227 20.7317 16.8943 20.7208 16.553C20.7099 16.2117 20.7399 15.8785 20.7645 15.5481C20.871 14.1883 21.1741 12.853 21.4935 11.5287C21.6164 11.0153 20.8273 10.7969 20.7044 11.3102L20.7099 11.3157Z" fill="black"/>
</g>
<defs>
<clipPath id="clip0_131_1060">
<rect width="101.456" height="151.407" fill="white"/>
</clipPath>
</defs>
</svg>
