<svg width="102" height="133" viewBox="0 0 102 133" fill="none" xmlns="http://www.w3.org/2000/svg">
<g clip-path="url(#clip0_131_1013)">
<path d="M70.7577 115.284C59.1799 114.516 47.5693 114.09 35.956 114.041C32.4827 114.028 28.9875 114.047 25.5715 114.59C23.701 114.888 21.836 115.349 20.2141 116.209C18.1688 117.293 16.6233 118.94 14.9112 120.393C13.4503 121.632 11.7683 122.856 11.2713 124.57C10.5968 126.891 12.4509 129.316 14.8812 130.463C17.3114 131.61 20.1813 131.768 22.9447 131.886C41.8132 132.678 60.7309 132.53 79.5803 131.446C81.8303 131.318 84.1158 131.168 86.2211 130.469C88.3264 129.77 90.2597 128.434 90.9942 126.591C91.8516 124.439 90.8959 121.976 89.1265 120.292C87.3571 118.607 84.8941 117.591 82.4065 116.851C78.4607 115.68 74.2774 115.106 70.1078 115.166" fill="#00C2F8"/>
<path d="M70.6443 15.8348C63.3345 6.0701 50.1975 3.03912 38.1146 1.36525C33.0739 0.666218 27.9649 0.0845981 22.9023 0.617067C17.8398 1.14954 12.7718 2.88347 9.01171 6.31312C4.28229 10.622 2.12238 17.0881 1.15028 23.4095C-0.982325 37.2537 1.71279 51.4747 6.46678 64.6499C12.8701 82.3989 23.4048 99.1648 38.8791 109.962C44.9111 114.172 51.571 117.4 58.3238 120.324C62.2395 122.02 66.3545 123.65 70.617 123.456C74.9041 123.262 78.8771 121.245 82.6099 119.128C86.4628 116.941 90.2283 114.601 93.8955 112.111C95.7714 110.838 97.661 109.484 98.928 107.602C100.52 105.238 100.954 102.283 101.031 99.4324C101.216 92.4339 99.496 85.5418 97.7866 78.7508C95.2799 68.7895 92.7677 58.8118 89.3736 49.1182C85.1248 36.9833 79.3604 25.1243 70.4723 15.8293" fill="#FFDC00"/>
<path d="M70.9956 15.6268C64.8954 7.53874 54.9533 4.03263 45.3579 2.14305C42.8321 1.64608 40.2899 1.25014 37.7395 0.903355C34.4982 0.460996 31.2434 0.0732492 27.9694 0.0077145C22.2351 -0.104241 16.2769 0.846012 11.37 3.98894C6.83169 6.89978 3.95636 11.5282 2.3098 16.5771C0.513058 22.0984 -0.0467178 28.062 -0.00302802 33.8427C0.0925434 46.0404 3.25732 58.1096 7.82563 69.357C11.8533 79.2691 17.1807 88.7089 24.0892 96.9062C27.5325 100.991 31.369 104.751 35.5823 108.039C40.2653 111.692 45.4043 114.688 50.7317 117.298C53.4978 118.653 56.3076 119.92 59.142 121.121C61.8972 122.287 64.7316 123.352 67.7134 123.734C73.8464 124.521 79.3021 121.534 84.422 118.552C87.1772 116.949 89.8832 115.264 92.5401 113.503C94.8639 111.963 97.3542 110.425 99.0308 108.145C100.696 105.882 101.243 103.023 101.393 100.27C101.562 97.1355 101.294 93.9844 100.828 90.8852C99.8636 84.4819 98.0723 78.1933 96.464 71.9293C94.842 65.6052 93.1354 59.3002 91.1229 53.0881C87.5568 42.081 82.9912 31.2022 76.0554 21.8608C74.4143 19.6517 72.6449 17.5382 70.7471 15.5449C70.3839 15.1626 69.8051 15.7415 70.1682 16.1238C77.9095 24.2473 83.2724 34.296 87.2973 44.6969C91.7974 56.3348 94.7956 68.4969 97.8102 80.5826C99.3284 86.6746 100.743 92.8812 100.615 99.1999C100.557 102.026 100.178 105.002 98.5638 107.397C96.9664 109.767 94.3696 111.316 92.0322 112.861C89.4709 114.554 86.8632 116.179 84.2118 117.727C81.5603 119.275 79.0072 120.761 76.1947 121.815C73.3603 122.877 70.3921 123.33 67.383 122.866C64.3711 122.402 61.5094 121.26 58.727 120.059C53.2849 117.711 47.9055 115.168 42.843 112.069C38.1928 109.221 33.8839 105.865 29.9818 102.056C22.4999 94.749 16.5609 85.9728 11.9598 76.6095C6.92999 66.367 3.18906 55.2644 1.58346 43.946C0.731506 37.9386 0.545825 31.8166 1.23667 25.7847C1.84287 20.4873 3.09622 15.0643 6.00705 10.526C8.91788 5.98775 13.8029 2.92128 19.1795 1.65427C25.2797 0.217971 31.6284 0.88151 37.7613 1.72527C47.2939 3.03869 57.5309 4.98835 65.3214 11.0285C67.1864 12.473 68.8685 14.155 70.2884 16.0391C70.6024 16.4542 71.3123 16.0473 70.9956 15.6268Z" fill="black"/>
<path d="M47.0127 3.14573C49.686 3.14573 50.8001 4.48919 52.8153 6.24497C66.5284 18.1832 75.0206 34.9273 82.2404 51.6168C86.8797 62.3426 91.1476 73.276 93.8454 84.6463C95.8088 92.92 96.9911 101.781 96.415 110.262C96.7945 106.308 95.9507 102.016 95.1753 98.1218C94.1458 92.9664 93.1191 87.811 92.0897 82.6584C91.7948 81.1784 91.4971 79.6875 90.9182 78.2949C90.1564 76.4544 88.9331 74.8488 87.8955 73.1477C85.3205 68.9343 83.8733 64.1503 82.0847 59.5465C77.7512 48.3865 71.3507 38.1685 64.9911 28.0243C62.58 24.1769 60.1688 20.3322 57.755 16.4848C55.8763 13.4893 53.9922 10.4856 51.8213 7.69493C50.1475 5.54321 48.1705 3.43517 45.5601 2.65149L47.0127 3.14846V3.14573Z" fill="#F3E253"/>
<path d="M47.0128 3.5552C48.7139 3.57159 49.9809 4.28974 51.2316 5.38471C52.5914 6.57526 53.9485 7.774 55.2483 9.03008C57.9379 11.6242 60.4283 14.423 62.7329 17.3639C67.3913 23.3084 71.2879 29.8237 74.7421 36.5301C78.3301 43.4931 81.4867 50.6828 84.4658 57.9217C87.6852 65.7394 90.596 73.7019 92.7341 81.8882C94.8858 90.1156 96.3003 98.616 96.1392 107.141C96.1201 108.181 96.0737 109.222 96.0054 110.262C95.9699 110.792 96.7782 110.781 96.8246 110.262C97.1877 106.278 96.4204 102.289 95.6449 98.3975C94.8148 94.2279 93.982 90.061 93.1492 85.8913C92.7478 83.8816 92.4228 81.8336 91.8767 79.8594C91.3606 77.9889 90.4431 76.3478 89.3918 74.7286C88.3406 73.1093 87.3357 71.4464 86.5029 69.6824C85.67 67.9184 84.941 66.0452 84.2501 64.1912C82.893 60.5431 81.5304 56.9141 79.8975 53.3779C78.2646 49.8418 76.3668 46.2292 74.4035 42.7586C70.3977 35.6836 65.9878 28.8407 61.668 21.9541C59.4698 18.448 57.3236 14.9036 55.0244 11.4631C53.9403 9.84107 52.8126 8.24366 51.5756 6.73363C50.5107 5.43113 49.3201 4.1969 47.8948 3.2876C47.2012 2.84524 46.453 2.49846 45.6666 2.2527C45.1614 2.09433 44.9539 2.87255 45.4481 3.04185L46.9008 3.53882C47.4005 3.71085 47.6162 2.91897 47.1193 2.74967L45.6666 2.2527L45.4481 3.04185C48.8887 4.11771 51.1797 7.38352 53.1621 10.1933C55.5104 13.5219 57.6103 17.0253 59.7729 20.4741C64.0463 27.2869 68.4071 34.0561 72.4511 41.0083C76.3941 47.7829 79.8975 54.7596 82.6145 62.1159C83.9279 65.6766 85.2004 69.2865 87.0927 72.596C88.0347 74.2453 89.1952 75.7662 90.0718 77.4537C90.9865 79.215 91.3688 81.1482 91.7538 83.076C92.573 87.1856 93.3949 91.2952 94.2141 95.4048C95.0033 99.3587 95.9562 103.345 96.0846 107.392C96.1146 108.348 96.09 109.306 96.0027 110.259H96.8218C97.3925 101.655 96.2375 92.9964 94.2605 84.6325C92.2754 76.2331 89.4274 68.0659 86.2134 60.0652C83.2234 52.6216 80.0204 45.238 76.4324 38.0619C73.0109 31.2218 69.1689 24.5618 64.5733 18.4343C62.3097 15.417 59.8712 12.5307 57.228 9.84107C55.8818 8.4703 54.481 7.16234 53.0365 5.89534C51.8951 4.89593 50.7947 3.74361 49.3638 3.16199C48.6129 2.85617 47.8156 2.74421 47.01 2.73602C46.483 2.73056 46.483 3.54974 47.01 3.5552H47.0128Z" fill="black"/>
<path d="M29.1877 0.554314C40.487 8.31198 49.2358 18.1476 56.9526 29.4742C64.6693 40.8008 70.8131 53.1213 76.471 65.6057C83.6688 81.4869 90.2332 97.5675 89.0673 114.964C86.6889 92.2755 76.7386 72.0144 66.8537 51.4556C64.2569 46.0572 61.6437 40.637 58.2796 35.6809C55.3715 31.3966 51.9337 27.5027 48.5068 23.6225C41.5874 15.7911 34.6899 8.30106 27.7705 0.469666L29.1877 0.554314Z" fill="#F3E253"/>
<path d="M28.9799 0.909278C35.6399 5.49397 41.6254 10.9798 46.9337 17.0718C52.4686 23.4204 57.3073 30.3644 61.6435 37.5759C66.2555 45.2489 70.2941 53.2496 74.0705 61.3595C77.8333 69.4367 81.5251 77.5985 84.3321 86.0661C87.0764 94.3371 88.8977 102.96 88.7858 111.709C88.7721 112.796 88.7257 113.883 88.6547 114.97H89.4739C88.5946 106.669 86.6968 98.515 84.1109 90.5853C81.5251 82.6556 78.2702 74.8897 74.7941 67.2768C73.0383 63.4321 71.2225 59.6147 69.393 55.8027C67.5389 51.9389 65.7176 48.0505 63.7515 44.2413C61.7691 40.3994 59.5873 36.6666 57.0096 33.1906C54.4156 29.6899 51.5266 26.4241 48.643 23.161C42.5893 16.3099 36.4126 9.56804 30.3316 2.74152C29.5725 1.88957 28.8161 1.03489 28.0597 0.180205L27.7703 0.879241L29.1874 0.96389C29.7144 0.996658 29.7117 0.177475 29.1874 0.144707L27.7703 0.0600583C27.3934 0.0382134 27.2624 0.510609 27.4808 0.759095C33.4854 7.55285 39.6074 14.2429 45.6421 21.012C48.5584 24.286 51.502 27.5464 54.2544 30.9596C57.0069 34.3729 59.3825 37.9282 61.4851 41.7292C63.5877 45.5302 65.379 49.3339 67.2303 53.1814C69.0817 57.0288 70.8702 60.7479 72.6424 64.5544C76.1676 72.1209 79.5153 79.783 82.2678 87.669C84.9984 95.4867 87.131 103.531 88.2669 111.742C88.4144 112.815 88.5427 113.891 88.6574 114.967C88.712 115.486 89.4411 115.502 89.4766 114.967C90.0528 106.144 88.6274 97.3517 86.0961 88.9141C83.5375 80.3919 79.9413 72.2219 76.2523 64.1393C72.5632 56.0567 68.511 47.7529 63.9754 39.9106C59.6884 32.497 54.8989 25.3455 49.4322 18.7456C44.2686 12.5116 38.4497 6.82378 31.9344 2.00971C31.0989 1.3926 30.2524 0.789131 29.395 0.20205C28.9608 -0.0983172 28.5485 0.611642 28.9826 0.909278H28.9799Z" fill="black"/>
<path d="M12.9342 3.86115C23.2968 12.8394 32.7202 23.9502 39.9891 35.5745C44.4181 42.6577 48.1945 50.1231 51.8836 57.6187C57.1619 68.3445 62.3036 79.2342 65.2718 90.8147C66.6589 96.2268 67.7758 102.147 71.8689 105.953C73.0649 107.065 74.4712 107.941 75.6181 109.104C78.5944 112.119 79.4355 116.581 80.1372 120.761C79.6048 116.999 75.6863 114.891 72.923 112.283C70.2852 109.792 68.5321 106.527 66.8255 103.324C64.4007 98.769 61.9677 94.2034 60.0235 89.4221C58.4534 85.5637 57.2056 81.5852 55.802 77.6641C48.6451 57.6951 37.3185 39.2307 22.7562 23.8055C21.5602 22.5385 20.3232 21.2633 19.5641 19.696C18.5265 17.5552 18.4828 15.084 17.9093 12.7739C17.3359 10.4638 13.7015 5.08719 11.3613 4.65029L12.9369 3.86115H12.9342Z" fill="#F3E253"/>
<path d="M12.6446 4.15048C19.4493 10.0568 25.6478 16.6567 31.1964 23.7508C36.9388 31.0934 41.8266 39.004 46.1738 47.2423C48.3937 51.4474 50.5018 55.7126 52.588 59.986C54.6523 64.2157 56.673 68.47 58.5325 72.7953C60.4002 77.1452 62.0987 81.5688 63.505 86.0907C64.7419 90.0746 65.5147 94.1951 66.8308 98.1545C67.4343 99.9649 68.177 101.751 69.2065 103.365C70.2823 105.055 71.6586 106.385 73.2287 107.611C74.9244 108.935 76.3661 110.322 77.3601 112.255C78.2748 114.033 78.7991 115.988 79.2032 117.938C79.4053 118.91 79.5746 119.89 79.7384 120.868C79.8258 121.389 80.6095 121.165 80.5276 120.649C79.9214 116.755 76.1095 114.645 73.4471 112.212C69.8837 108.954 67.8084 104.342 65.5966 100.14C63.1445 95.484 60.8699 90.7627 59.0732 85.8121C57.372 81.1264 55.851 76.3833 53.9778 71.7577C50.4827 63.129 46.2174 54.8197 41.2368 46.9555C36.2944 39.1515 30.6557 31.7815 24.3999 24.9796C22.8216 23.262 20.932 21.6209 19.908 19.4883C18.8649 17.3202 18.9004 14.8627 18.2724 12.5799C17.8846 11.1763 17.0682 9.85473 16.2572 8.66145C15.3479 7.32618 14.3048 6.00457 13.0078 5.02974C12.5463 4.68295 12.0329 4.37712 11.4622 4.25698L11.5605 5.00516L13.1361 4.21602C13.6085 3.98118 13.1934 3.27396 12.7238 3.50879L11.1482 4.29794C10.8396 4.45358 10.9079 4.97513 11.2465 5.04612C12.6036 5.33011 13.7095 6.69268 14.5396 7.70847C15.5581 8.95909 16.4702 10.3517 17.1282 11.8262C17.9365 13.6284 17.9556 15.701 18.4089 17.6042C18.955 19.8897 20.1893 21.6646 21.7703 23.3631C28.0807 30.1432 33.9133 37.2728 39.0141 45.0168C44.1149 52.7608 48.4593 60.8407 52.0801 69.3056C53.9915 73.7729 55.608 78.3357 57.1918 82.9259C58.8766 87.8109 60.8098 92.5486 63.139 97.166C64.2941 99.4543 65.4983 101.715 66.7052 103.976C67.7975 106.024 68.917 108.069 70.3096 109.932C71.5794 111.63 73.0812 113.025 74.7168 114.361C76.1777 115.551 77.7396 116.755 78.7745 118.356C79.2715 119.126 79.5992 119.961 79.7384 120.868L80.5276 120.649C79.8832 116.813 79.1404 112.744 76.6337 109.631C75.2903 107.963 73.4116 106.901 71.8961 105.415C70.4817 104.028 69.4276 102.33 68.6166 100.53C66.9537 96.8411 66.2601 92.7916 65.187 88.9114C63.9337 84.3868 62.3581 79.955 60.5887 75.6078C57.0116 66.8071 52.7627 58.2575 48.4292 49.809C44.1476 41.4616 39.4346 33.3708 33.8177 25.8452C28.2009 18.3196 22.3601 11.8535 15.6919 5.767C14.8782 5.02428 14.0563 4.29247 13.2235 3.57159C12.8275 3.22754 12.2459 3.8037 12.6446 4.15048Z" fill="black"/>
<path d="M72.0062 123.066C62.8532 115.431 53.6374 107.736 46.1064 98.4986C40.1782 91.2298 35.3778 83.1089 29.6026 75.7172C24.2997 68.9316 18.0576 62.5501 15.2423 54.4129C14.0026 50.8331 13.4455 46.9474 11.4085 43.7526C10.0377 41.6009 8.07171 39.8915 6.57533 37.8245C4.26797 34.6378 3.57439 30.6648 0.723633 27.9533C1.71758 35.6782 4.06044 43.1246 8.41849 49.5797C9.54078 51.2427 10.7668 52.8456 11.6761 54.6341C12.9349 57.1162 13.5411 59.8687 14.4668 62.4928C16.0151 66.8727 18.4617 70.8785 21.0885 74.7096C25.0042 80.4193 29.3568 85.8122 33.704 91.1997C37.1746 95.5032 40.6643 99.823 44.7165 103.583C47.8076 106.45 51.2427 109.011 53.7603 112.395C54.9672 114.017 55.9994 115.863 57.7115 116.938C59.6966 118.189 62.2634 118.184 64.3004 119.35C65.5483 120.062 66.5204 121.171 67.6809 122.017C68.8415 122.864 70.4416 123.639 71.7741 123.099L72.0062 123.066Z" fill="#F3E253"/>
<path d="M72.2969 122.776C66.0302 117.55 59.7525 112.31 53.9745 106.537C51.1101 103.676 48.3713 100.683 45.84 97.5183C43.2268 94.2525 40.8266 90.8228 38.451 87.3822C36.089 83.9581 33.7489 80.5175 31.2476 77.1943C28.9676 74.1634 26.5073 71.2771 24.1371 68.3198C21.7888 65.3899 19.5306 62.3589 17.7448 59.0467C16.8437 57.3783 16.0764 55.6416 15.4811 53.8394C14.8858 52.0317 14.4462 50.1749 13.8755 48.3591C13.3048 46.5432 12.6249 44.8175 11.5818 43.2638C10.5387 41.71 9.13788 40.301 7.89818 38.8347C6.65848 37.3684 5.78469 35.8529 4.99008 34.1708C4.25828 32.6253 3.58655 31.0388 2.63356 29.6107C2.16117 28.9062 1.62597 28.2481 1.01431 27.6556C0.78494 27.4344 0.266124 27.5737 0.315275 27.945C1.34472 35.8638 3.80773 43.586 8.35692 50.205C9.52562 51.9061 10.7599 53.5745 11.6255 55.4587C12.4911 57.3428 13.0563 59.489 13.7117 61.5206C14.9923 65.4745 16.9556 69.1336 19.2056 72.6151C23.9132 79.8922 29.4591 86.6149 34.9121 93.3322C37.599 96.6417 40.3433 99.9157 43.4043 102.889C46.2523 105.661 49.4772 108.048 52.1232 111.024C53.3956 112.452 54.3623 114.101 55.591 115.562C56.1781 116.258 56.8498 116.895 57.6335 117.362C58.4172 117.829 59.2692 118.118 60.132 118.361C60.9949 118.604 61.9233 118.812 62.7971 119.117C63.7282 119.442 64.5474 119.928 65.3065 120.554C66.721 121.722 68.0699 123.142 69.924 123.571C70.3445 123.669 70.7787 123.708 71.2101 123.656C71.5214 123.617 71.8054 123.5 72.1167 123.456C72.6355 123.385 72.4143 122.596 71.8982 122.667C71.5651 122.714 71.262 122.847 70.9207 122.861C70.4537 122.883 69.9895 122.763 69.5526 122.599C68.6379 122.252 67.8324 121.651 67.0951 121.021C66.4015 120.428 65.7352 119.797 64.9761 119.284C64.217 118.771 63.4197 118.446 62.5759 118.184C60.8092 117.635 58.8732 117.392 57.385 116.201C55.976 115.076 55.0831 113.462 54.0127 112.045C51.6671 108.943 48.6007 106.532 45.7308 103.946C42.6425 101.164 39.8764 98.0617 37.2249 94.8696C34.5053 91.5928 31.8429 88.267 29.2051 84.9274C26.4991 81.5005 23.8586 78.0244 21.3901 74.4228C19.0828 71.0532 16.901 67.5443 15.3746 63.7406C14.6073 61.8319 14.0721 59.8468 13.4249 57.8944C12.7778 55.942 11.9668 54.1316 10.8554 52.4168C9.76046 50.7292 8.5508 49.1264 7.51863 47.3979C6.48645 45.6694 5.6345 43.9737 4.86993 42.177C3.32987 38.5616 2.26766 34.747 1.57955 30.8832C1.40479 29.9083 1.2546 28.928 1.129 27.945L0.429961 28.2345C2.98581 30.7029 3.8323 34.2691 5.67273 37.21C6.69125 38.8402 8.0429 40.2164 9.29625 41.6636C10.5496 43.1108 11.65 44.7492 12.3846 46.5896C13.0891 48.3536 13.556 50.1995 14.0748 52.0263C14.5936 53.8531 15.1753 55.5706 15.9453 57.2663C17.4881 60.6687 19.5934 63.7761 21.8571 66.7334C24.1399 69.7125 26.5892 72.5578 28.9157 75.5014C31.477 78.7426 33.839 82.134 36.1846 85.5336C38.5466 88.9578 40.8894 92.3929 43.4016 95.7079C45.8646 98.96 48.5133 102.059 51.3313 105.006C56.9536 110.887 63.1466 116.185 69.3806 121.4C70.1588 122.05 70.9343 122.7 71.7125 123.347C72.1139 123.683 72.6983 123.107 72.2914 122.768L72.2969 122.776Z" fill="black"/>
<path d="M68.3222 28.1417C67.2245 26.3887 65.2585 25.3619 63.2788 24.7558C61.1598 24.1059 58.8361 23.8492 56.7444 24.581C54.6528 25.3128 52.8724 27.2051 52.7632 29.4196C52.7523 29.6545 52.7523 29.9084 52.613 30.0968C52.5174 30.2279 52.3673 30.3044 52.2225 30.3781C51.8457 30.5692 51.447 30.7658 51.1958 31.1072C50.9446 31.4485 50.8927 31.9782 51.2013 32.2677C51.5372 32.579 52.0696 32.4588 52.5065 32.3277C58.9753 30.3999 65.8619 30.6102 72.6093 30.8368C72.8277 30.3453 72.227 29.903 71.73 29.6954C70.6542 29.2449 69.5783 28.7943 68.5024 28.3438L68.3195 28.1444L68.3222 28.1417Z" fill="#FFDC00"/>
<path d="M68.6772 27.9342C67.1098 25.4821 64.0488 24.2888 61.2799 23.871C58.3637 23.4314 55.2562 24.0731 53.4131 26.547C53.0335 27.0576 52.7359 27.6393 52.5556 28.2482C52.4601 28.5649 52.4027 28.8926 52.3727 29.2203C52.359 29.3787 52.3782 29.5589 52.3372 29.7145C52.2908 29.8893 52.1734 29.9439 52.0204 30.0231C51.4252 30.3344 50.7726 30.6975 50.6169 31.413C50.4722 32.0765 50.8272 32.7264 51.518 32.8465C52.2089 32.9667 53.0007 32.6008 53.667 32.426C54.4698 32.2158 55.2808 32.0355 56.0945 31.8826C57.7738 31.5686 59.4723 31.372 61.1789 31.2546C64.9854 30.9924 68.8028 31.1153 72.612 31.2437C72.8004 31.2491 72.9478 31.1099 73.0079 30.9433C73.3656 29.9302 72.1232 29.4169 71.4078 29.1165C70.848 28.8817 70.291 28.6496 69.7312 28.4147C69.4417 28.2946 69.155 28.1581 68.8629 28.0516C68.5707 27.9451 68.8437 28.0871 68.7482 28.0024C68.699 27.9587 68.6553 27.9041 68.6116 27.855C68.2539 27.4672 67.675 28.0461 68.0327 28.4339C68.2676 28.6878 68.5079 28.7861 68.8328 28.9199C69.3079 29.1192 69.7831 29.3186 70.2609 29.5179C70.7115 29.7063 71.1702 29.8784 71.6126 30.0859C71.8392 30.1924 72.328 30.419 72.2188 30.7276L72.6147 30.4272C66.408 30.2197 60.0894 30.0176 54.0083 31.4976C53.637 31.5877 53.2656 31.686 52.8942 31.7898C52.5775 31.8799 52.2471 32.011 51.9194 32.0465C51.6573 32.0765 51.3924 32.0164 51.4006 31.7079C51.4088 31.3993 51.6709 31.1699 51.9167 31.0143C52.1624 30.8586 52.4464 30.7549 52.684 30.5856C52.9789 30.3753 53.1154 30.0804 53.1537 29.7254C53.2192 29.1302 53.2656 28.5786 53.5004 28.0188C54.5763 25.4711 57.4079 24.4362 59.9993 24.5619C61.5858 24.6383 63.2105 25.0534 64.6577 25.706C65.9657 26.2931 67.1808 27.1286 67.9645 28.3519C68.2485 28.7943 68.9557 28.3847 68.6717 27.9396L68.6772 27.9342Z" fill="black"/>
<path d="M70.1605 30.8449C71.2363 30.9323 71.2609 32.7236 71.3319 33.7995C71.3647 34.2746 71.3401 34.7579 71.1926 35.2112C70.9851 35.8529 70.5373 36.399 70.0103 36.8195C68.7979 37.7862 67.1868 38.1275 65.6386 38.0947C64.0903 38.0619 62.5694 37.6933 61.0539 37.3766C59.4292 37.038 57.7635 36.7485 56.2835 35.9949C54.8035 35.2412 53.501 33.9278 53.2334 32.2867C53.2334 32.2867 59.2626 29.9466 70.1605 30.8449Z" fill="white"/>
<path d="M70.1598 31.2546C70.6295 31.3092 70.7415 32.0683 70.8015 32.4206C70.9053 33.0377 70.9572 33.7122 70.9299 34.3347C70.8561 36.0905 69.1741 37.1254 67.6258 37.4886C65.8291 37.9118 63.975 37.5732 62.2001 37.1991C60.4252 36.8251 58.5848 36.5711 56.9246 35.8448C55.3627 35.1621 53.9345 33.9224 53.6233 32.1748L53.3365 32.68C54.1885 32.3496 55.0978 32.1421 55.988 31.9482C58.511 31.4021 61.0942 31.1454 63.6692 31.0689C65.8318 31.0034 67.9972 31.0744 70.1544 31.2519C70.6787 31.2956 70.6759 30.4764 70.1544 30.4327C66.6619 30.1487 63.1394 30.1378 59.6552 30.5337C57.7465 30.7494 55.8323 31.0689 53.9837 31.6096C53.6943 31.6942 53.3993 31.7816 53.1181 31.8908C52.8969 31.9755 52.7904 32.1557 52.8314 32.396C53.1372 34.1272 54.467 35.5062 55.9798 36.3008C57.8257 37.2729 59.961 37.565 61.9817 37.991C64.0023 38.417 66.0912 38.7747 68.1091 38.2095C69.8922 37.7125 71.5989 36.4237 71.7381 34.4522C71.7955 33.6384 71.7136 32.7128 71.5306 31.9181C71.3586 31.1754 70.9626 30.5283 70.1544 30.4327C69.6328 30.3699 69.6356 31.1891 70.1544 31.2519L70.1598 31.2546Z" fill="black"/>
<path d="M69.4448 39.0232C68.0823 40.2601 66.1244 40.5632 64.284 40.6151C61.8237 40.6861 59.216 40.3557 57.269 38.8539" fill="#FFB500"/>
<path d="M69.1545 38.731C67.6008 40.1072 65.318 40.2438 63.3437 40.211C61.3695 40.1782 59.1604 39.7768 57.4784 38.4989C57.0579 38.1794 56.651 38.8921 57.0661 39.2061C58.8847 40.5878 61.2193 41.0056 63.4584 41.0329C65.6975 41.0602 68.0349 40.8227 69.7388 39.3126C70.1348 38.9631 69.5532 38.3842 69.1599 38.7337L69.1545 38.731Z" fill="black"/>
<path d="M67.8999 41.5654C66.5974 42.1825 65.2129 42.674 63.7766 42.7641C62.3403 42.8542 60.8358 42.5074 59.7217 41.5927" fill="#FFB500"/>
<path d="M67.692 41.2104C65.3437 42.3136 62.2499 43.0918 60.0108 41.3033C59.6039 40.9783 59.0196 41.5545 59.4319 41.8822C61.9987 43.9329 65.3764 43.201 68.107 41.9177C68.5849 41.6937 68.1671 40.9865 67.6947 41.2104H67.692Z" fill="black"/>
<path d="M69.9831 36.5492C69.8274 36.0631 69.4233 35.6972 69.0219 35.3723C68.6833 35.0965 68.3311 34.8316 67.957 34.6022C67.3317 34.22 66.649 33.9414 65.9664 33.6629C65.4803 33.4663 64.9943 33.267 64.4836 33.1414C63.8611 32.9885 63.2166 32.9475 62.5749 32.9338C61.7066 32.9175 60.8192 32.953 60.0082 33.2533C58.6947 33.7421 57.6981 34.96 57.5015 36.3143C57.5015 36.3143 61.6028 37.8544 65.0461 37.9363C68.4894 38.0155 69.9831 36.5492 69.9831 36.5492Z" fill="black"/>
<path d="M70.3781 36.44C70.0259 35.4652 69.0156 34.7689 68.1636 34.2473C67.2161 33.6657 66.1129 33.2261 65.0589 32.8793C64.0049 32.5325 62.7324 32.467 61.5828 32.538C60.5261 32.6035 59.5212 32.882 58.6857 33.5483C57.8501 34.2145 57.2767 35.1648 57.1101 36.2052C57.0719 36.44 57.1702 36.6229 57.3968 36.7103C58.956 37.2947 60.5944 37.7316 62.23 38.0292C64.5128 38.447 66.9758 38.5835 69.1303 37.5732C69.5317 37.3848 69.9549 37.1499 70.2771 36.8359C70.6539 36.4673 70.075 35.8884 69.6982 36.257C69.6818 36.2707 69.6682 36.2871 69.6518 36.3007C69.6327 36.3171 69.6136 36.3308 69.5972 36.3472C69.5098 36.4209 69.6218 36.3308 69.5672 36.369C69.3651 36.5164 69.1494 36.6475 68.9282 36.7622C68.1254 37.1773 67.2161 37.3984 66.3205 37.4831C63.9612 37.707 61.5446 37.1418 59.2973 36.4728C58.7321 36.3035 58.1696 36.126 57.618 35.9212L57.9047 36.4263C58.0658 35.4187 58.6447 34.5149 59.513 33.9633C60.5698 33.2916 61.8914 33.2971 63.0983 33.3626C64.409 33.4336 65.6023 33.906 66.7847 34.4466C67.339 34.6979 67.8633 34.9955 68.352 35.3587C68.8108 35.7 69.3951 36.0987 69.5972 36.6584C69.7747 37.15 70.5666 36.937 70.3863 36.44H70.3781Z" fill="black"/>
<path d="M61.3767 34.7216C61.4533 34.3186 60.9856 33.8914 60.3322 33.7673C59.6788 33.6433 59.0871 33.8694 59.0106 34.2724C58.9341 34.6754 59.4017 35.1026 60.0551 35.2267C60.7085 35.3507 61.3002 35.1246 61.3767 34.7216Z" fill="white" stroke="black" stroke-width="0.273061" stroke-miterlimit="10"/>
<path d="M67.2317 36.1551C67.8932 35.8842 68.3354 35.4349 68.2194 35.1516C68.1033 34.8683 67.473 34.8582 66.8115 35.1291C66.15 35.4 65.7078 35.8493 65.8238 36.1326C65.9399 36.4159 66.5702 36.426 67.2317 36.1551Z" fill="white" stroke="black" stroke-width="0.273061" stroke-miterlimit="10"/>
<path d="M66.9014 37.2632C67.3275 37.2394 67.6631 37.0443 67.651 36.8275C67.6389 36.6107 67.2836 36.4542 66.8575 36.478C66.4314 36.5019 66.0958 36.6969 66.1079 36.9138C66.12 37.1306 66.4753 37.2871 66.9014 37.2632Z" fill="white" stroke="black" stroke-width="0.273061" stroke-miterlimit="10"/>
<path d="M63.4409 28.1881C61.3902 27.7648 59.2549 27.9096 57.2889 28.6305C56.7973 28.8107 57.0103 29.6025 57.5073 29.4196C59.3368 28.7479 61.3138 28.584 63.2225 28.9772C63.7358 29.0837 63.957 28.2946 63.4409 28.1881Z" fill="black"/>
<path d="M44.247 29.791C43.1493 28.0379 41.1833 27.0112 39.2036 26.405C37.0846 25.7552 34.7609 25.4985 32.6692 26.2303C30.5776 26.9621 28.7972 28.8544 28.688 31.0689C28.6771 31.3038 28.6771 31.5577 28.5378 31.7461C28.4422 31.8772 28.2921 31.9536 28.1473 32.0274C27.7705 32.2185 27.3718 32.4151 27.1206 32.7564C26.8694 33.0978 26.8175 33.6275 27.1261 33.917C27.462 34.2282 27.9944 34.1081 28.4313 33.977C34.9001 32.0492 41.7867 32.2595 48.5341 32.4861C48.7525 31.9946 48.1518 31.5522 47.6548 31.3447C46.579 30.8942 45.5031 30.4436 44.4272 29.9931L44.2443 29.7937L44.247 29.791Z" fill="#FFDC00"/>
<path d="M44.6015 29.5834C43.0341 27.1314 39.9731 25.9381 37.2043 25.5203C34.288 25.0807 31.1805 25.7224 29.3374 28.1963C28.9578 28.7069 28.6602 29.2885 28.48 29.8975C28.3844 30.2142 28.327 30.5419 28.297 30.8696C28.2834 31.0279 28.3025 31.2082 28.2615 31.3638C28.2151 31.5386 28.0977 31.5932 27.9448 31.6724C27.3495 31.9837 26.6969 32.3468 26.5412 33.0622C26.3965 33.7258 26.7515 34.3757 27.4423 34.4958C28.1332 34.616 28.9251 34.2501 29.5913 34.0753C30.3941 33.865 31.2051 33.6848 32.0188 33.5319C33.6982 33.2179 35.3966 33.0213 37.1032 32.9039C40.9097 32.6417 44.7271 32.7646 48.5363 32.8929C48.7247 32.8984 48.8722 32.7591 48.9322 32.5926C49.2899 31.5795 48.0475 31.0662 47.3321 30.7658C46.7723 30.531 46.2153 30.2989 45.6555 30.064C45.3661 29.9439 45.0793 29.8074 44.7872 29.7009C44.495 29.5944 44.7681 29.7364 44.6725 29.6517C44.6233 29.608 44.5796 29.5534 44.536 29.5043C44.1782 29.1165 43.5994 29.6954 43.9571 30.0832C44.1919 30.3371 44.4322 30.4354 44.7571 30.5692C45.2323 30.7685 45.7074 30.9679 46.1852 31.1672C46.6358 31.3556 47.0945 31.5276 47.5369 31.7352C47.7635 31.8417 48.2523 32.0683 48.1431 32.3769L48.539 32.0765C42.3324 31.869 36.0137 31.6669 29.9326 33.1469C29.5613 33.237 29.1899 33.3353 28.8186 33.4391C28.5018 33.5292 28.1714 33.6603 27.8437 33.6957C27.5816 33.7258 27.3167 33.6657 27.3249 33.3572C27.3331 33.0486 27.5952 32.8192 27.841 32.6636C28.0868 32.5079 28.3707 32.4042 28.6083 32.2349C28.9032 32.0246 29.0397 31.7297 29.078 31.3747C29.1435 30.7795 29.1899 30.2279 29.4248 29.6681C30.5006 27.1204 33.3323 26.0855 35.9236 26.2111C37.5101 26.2876 39.1348 26.7027 40.582 27.3553C41.89 27.9424 43.1051 28.7779 43.8888 30.0012C44.1728 30.4436 44.88 30.034 44.596 29.5889L44.6015 29.5834Z" fill="black"/>
<path d="M46.0848 32.4942C47.1606 32.5816 47.1852 34.3729 47.2562 35.4488C47.289 35.9239 47.2644 36.4072 47.1169 36.8605C46.9094 37.5022 46.4616 38.0483 45.9346 38.4688C44.7222 39.4355 43.1111 39.7768 41.5629 39.744C40.0146 39.7112 38.4937 39.3426 36.9782 39.0259C35.3535 38.6873 33.6878 38.3978 32.2078 37.6442C30.7278 36.8905 29.4253 35.5771 29.1577 33.936C29.1577 33.936 35.1869 31.5959 46.0848 32.4942Z" fill="white"/>
<path d="M46.0846 32.9038C46.5543 32.9584 46.6663 33.7176 46.7263 34.0698C46.8301 34.6869 46.882 35.3614 46.8547 35.984C46.7809 37.7397 45.0989 38.7747 43.5506 39.1378C41.7539 39.5611 39.8998 39.2225 38.1249 38.8484C36.35 38.4743 34.5096 38.2203 32.8494 37.494C31.2875 36.8113 29.8593 35.5716 29.5481 33.8241L29.2613 34.3292C30.1133 33.9988 31.0226 33.7913 31.9128 33.5974C34.4359 33.0513 37.019 32.7946 39.594 32.7182C41.7566 32.6526 43.922 32.7236 46.0792 32.9011C46.6035 32.9448 46.6007 32.1256 46.0792 32.0819C42.5867 31.7979 39.0642 31.787 35.58 32.183C33.6713 32.3987 31.7571 32.7182 29.9085 33.2588C29.6191 33.3435 29.3241 33.4308 29.0429 33.5401C28.8217 33.6247 28.7152 33.8049 28.7562 34.0452C29.062 35.7764 30.3918 37.1554 31.9046 37.95C33.7505 38.9221 35.8858 39.2143 37.9065 39.6403C39.9271 40.0662 42.016 40.4239 44.0339 39.8587C45.817 39.3617 47.5237 38.0729 47.6629 36.1014C47.7203 35.2877 47.6384 34.362 47.4554 33.5674C47.2834 32.8246 46.8874 32.1775 46.0792 32.0819C45.5576 32.0191 45.5604 32.8383 46.0792 32.9011L46.0846 32.9038Z" fill="black"/>
<path d="M45.3692 40.6725C44.0066 41.9094 42.0487 42.2125 40.2083 42.2644C37.748 42.3354 35.1403 42.005 33.1934 40.5032" fill="#FFB500"/>
<path d="M45.0803 40.383C43.5265 41.7592 41.2438 41.8957 39.2695 41.863C37.2953 41.8302 35.0862 41.4288 33.4042 40.1509C32.9837 39.8314 32.5768 40.5441 32.9919 40.8581C34.8104 42.2398 37.1451 42.6576 39.3842 42.6849C41.6233 42.7122 43.9607 42.4746 45.6646 40.9646C46.0606 40.6151 45.4789 40.0362 45.0857 40.3857L45.0803 40.383Z" fill="black"/>
<path d="M43.8232 43.2147C42.5207 43.8318 41.1363 44.3233 39.7 44.4134C38.2637 44.5035 36.7591 44.1567 35.645 43.242" fill="#FFB500"/>
<path d="M43.6163 42.8624C41.268 43.9656 38.1742 44.7438 35.9351 42.9552C35.5282 42.6303 34.9439 43.2065 35.3562 43.5341C37.923 45.5848 41.3008 44.853 44.0314 43.5696C44.5092 43.3457 44.0914 42.6385 43.619 42.8624H43.6163Z" fill="black"/>
<path d="M45.9064 38.1985C45.7508 37.7125 45.3467 37.3466 44.9453 37.0216C44.6067 36.7458 44.2544 36.481 43.8803 36.2516C43.255 35.8693 42.5724 35.5908 41.8897 35.3123C41.4036 35.1157 40.9176 34.9163 40.407 34.7907C39.7844 34.6378 39.14 34.5968 38.4983 34.5832C37.6299 34.5668 36.7425 34.6023 35.9315 34.9027C34.6181 35.3915 33.6214 36.6093 33.4248 37.9637C33.4248 37.9637 37.5262 39.5038 40.9695 39.5857C44.4128 39.6649 45.9064 38.1985 45.9064 38.1985Z" fill="black"/>
<path d="M46.3025 38.0892C45.9502 37.1144 44.9399 36.4181 44.0879 35.8965C43.1404 35.3149 42.0372 34.8753 40.9832 34.5285C39.9292 34.1817 38.6567 34.1162 37.5072 34.1872C36.4504 34.2527 35.4455 34.5312 34.61 35.1975C33.7744 35.8638 33.201 36.814 33.0344 37.8544C32.9962 38.0892 33.0945 38.2722 33.3211 38.3596C34.8803 38.9439 36.5187 39.3808 38.1543 39.6784C40.4371 40.0962 42.9001 40.2328 45.0546 39.2224C45.456 39.034 45.8792 38.7992 46.2014 38.4852C46.5782 38.1165 45.9994 37.5376 45.6225 37.9063C45.6062 37.9199 45.5925 37.9363 45.5761 37.95C45.557 37.9663 45.5379 37.98 45.5215 37.9964C45.4341 38.0701 45.5461 37.98 45.4915 38.0182C45.2894 38.1657 45.0737 38.2968 44.8525 38.4114C44.0497 38.8265 43.1404 39.0477 42.2448 39.1323C39.8855 39.3562 37.4689 38.791 35.2216 38.122C34.6564 37.9527 34.0939 37.7752 33.5423 37.5704L33.829 38.0756C33.9901 37.068 34.569 36.1641 35.4374 35.6126C36.4941 34.9408 37.8157 34.9463 39.0226 35.0118C40.3333 35.0828 41.5266 35.5552 42.709 36.0959C43.2633 36.3471 43.7876 36.6447 44.2763 37.0079C44.7351 37.3492 45.3194 37.7479 45.5215 38.3077C45.699 38.7992 46.4909 38.5862 46.3106 38.0892H46.3025Z" fill="black"/>
<path d="M37.304 36.3707C37.3805 35.9677 36.9128 35.5404 36.2595 35.4164C35.6061 35.2923 35.0144 35.5184 34.9379 35.9214C34.8613 36.3244 35.329 36.7517 35.9824 36.8757C36.6358 36.9998 37.2275 36.7737 37.304 36.3707Z" fill="white" stroke="black" stroke-width="0.273061" stroke-miterlimit="10"/>
<path d="M43.155 37.8053C43.8165 37.5344 44.2587 37.0852 44.1427 36.8019C44.0267 36.5185 43.3964 36.5085 42.7349 36.7794C42.0734 37.0503 41.6312 37.4996 41.7472 37.7829C41.8632 38.0662 42.4935 38.0762 43.155 37.8053Z" fill="white" stroke="black" stroke-width="0.273061" stroke-miterlimit="10"/>
<path d="M42.8242 38.9105C43.2504 38.8866 43.586 38.6915 43.5739 38.4747C43.5617 38.2579 43.2065 38.1014 42.7803 38.1253C42.3542 38.1491 42.0186 38.3442 42.0307 38.561C42.0429 38.7778 42.3981 38.9343 42.8242 38.9105Z" fill="white" stroke="black" stroke-width="0.273061" stroke-miterlimit="10"/>
<path d="M39.3643 29.8374C37.3136 29.4141 35.1782 29.5589 33.2122 30.2797C32.7207 30.46 32.9337 31.2518 33.4306 31.0689C35.2602 30.3972 37.2371 30.2333 39.1458 30.6265C39.6592 30.733 39.8803 29.9439 39.3643 29.8374Z" fill="black"/>
<path d="M40.1146 53.7303L65.6786 52.8264C67.5163 52.7609 69.4004 52.6872 71.1043 52.0783C71.9372 51.7806 72.8001 51.2427 72.8765 50.4754C72.9776 49.4651 71.6232 48.7606 70.4435 48.8124C69.2639 48.8671 68.1881 49.3995 67.0549 49.6917C65.8425 50.003 64.5645 50.0412 63.303 50.0521C55.4798 50.1231 47.531 49.3203 39.9126 50.9123C38.8886 51.1253 37.8537 51.3929 37.0072 51.9363C36.1607 52.4797 35.5381 53.3534 35.6392 54.2491C35.7238 54.9809 36.2727 55.6199 36.9526 56.0622C38.5746 57.1244 40.7809 57.1927 42.8316 57.1954C47.4163 57.2009 52.001 57.0971 56.5802 56.8814C59.0815 56.764 61.6073 56.6111 64.0157 55.9967C64.8376 55.7864 65.7032 55.4833 66.1538 54.8553C66.6043 54.2272 65.9926 53.0121 65.1543 52.8647" fill="#EF7800"/>
<path d="M40.1157 54.1399C48.2283 53.8532 56.3409 53.5665 64.4563 53.2797C66.3131 53.2142 68.2027 53.2169 70.0268 52.8128C71.2747 52.537 73.5411 51.8271 73.268 50.1341C73.0332 48.6705 71.1163 48.2855 69.9093 48.4602C69.0055 48.5913 68.1645 48.9435 67.2934 49.2029C66.3759 49.476 65.4311 49.5825 64.4754 49.6207C60.5816 49.7791 56.6686 49.5388 52.7748 49.5088C48.8809 49.4787 45.0253 49.5989 41.2079 50.2515C39.5095 50.5409 37.5243 50.8222 36.2081 52.04C35.6675 52.5397 35.2606 53.2169 35.2197 53.9651C35.176 54.7679 35.6374 55.5107 36.2218 56.024C37.4588 57.1081 39.1627 57.4357 40.7546 57.5504C42.6633 57.6897 44.5966 57.6132 46.5053 57.5914C50.5084 57.545 54.5251 57.4548 58.52 57.1927C60.4177 57.0671 62.3264 56.865 64.1723 56.3844C65.4093 56.0622 67.2033 55.2758 66.578 53.6866C66.3514 53.1132 65.879 52.608 65.2591 52.4769C64.7458 52.3677 64.5246 53.1569 65.0407 53.2661C65.5158 53.3671 65.9363 53.8996 65.8899 54.3966C65.8353 54.9782 64.9287 55.2949 64.47 55.4451C62.8125 55.983 61.0267 56.1769 59.2982 56.3162C55.6364 56.6084 51.9474 56.6821 48.2774 56.7476C46.4234 56.7804 44.572 56.7968 42.7179 56.7913C41.1779 56.7858 39.575 56.764 38.1196 56.207C37.4342 55.9448 36.7133 55.5243 36.3092 54.8908C35.905 54.2573 35.9952 53.6211 36.4075 53.0449C37.3577 51.7178 39.3019 51.4393 40.7874 51.1608C47.8624 49.8337 55.104 50.4727 62.2527 50.4727C64.0331 50.4727 65.8517 50.4973 67.5719 49.9784C68.9427 49.5634 70.5674 48.7497 71.9355 49.6043C72.3833 49.8856 72.6509 50.3634 72.3068 50.844C71.8863 51.4311 71.0699 51.6905 70.409 51.8762C68.7406 52.3486 66.9931 52.3759 65.2728 52.436C57.7936 52.7009 50.3145 52.963 42.8381 53.2279L40.1184 53.3234C39.5914 53.3425 39.5914 54.1617 40.1184 54.1426L40.1157 54.1399Z" fill="black"/>
<path d="M37.5632 39.217L33.3881 39.2116C32.2112 39.2116 31.1299 39.1215 30.0431 39.6184C29.1365 40.0308 29.1638 41.5544 30.0431 41.975C31.8153 42.8269 34.0025 42.7313 35.9303 42.8788C37.9728 43.0344 40.0453 43.313 42.0742 42.9389C43.3849 42.6986 43.3712 40.5578 42.0742 40.3066C38.2895 39.5748 34.4612 39.3235 30.6138 39.613C28.8744 39.7441 28.8389 42.2781 30.6138 42.3436C33.0713 42.4364 35.4934 42.2617 37.9209 41.8712C39.6521 41.5927 38.9176 38.9631 37.1946 39.2389C35.0128 39.5884 32.8201 39.6949 30.6138 39.613V42.3436C34.2155 42.0733 37.8008 42.2535 41.3478 42.9389V40.3066C39.7723 40.596 38.0492 40.3066 36.4682 40.1891C34.9746 40.0799 32.7846 40.2738 31.4221 39.6184V41.975C32.173 41.6336 33.6038 41.9422 34.4312 41.9449L37.5632 41.9504C39.319 41.9531 39.3217 39.2225 37.5632 39.2198V39.217Z" fill="#00C2F8"/>
<path d="M67.59 40.2273H71.1125C72.8683 40.2273 72.8737 37.4967 71.1125 37.4967C68.9062 37.4967 66.6971 37.4967 64.4908 37.4967C62.7268 37.4967 62.7377 40.1618 64.4908 40.2273C66.7981 40.3147 69.1028 40.4239 71.4101 40.555C73.1659 40.6533 73.1577 37.9254 71.4101 37.8244C69.6625 37.7233 67.7948 37.6824 65.9844 37.7124C64.174 37.7425 64.2232 40.4731 65.9844 40.443C67.7457 40.413 69.6025 40.4485 71.4101 40.555V37.8244C69.1055 37.696 66.7981 37.5868 64.4908 37.4967V40.2273C66.6971 40.2273 68.9062 40.2273 71.1125 40.2273V37.4967H67.59C65.8342 37.4967 65.8288 40.2273 67.59 40.2273Z" fill="#00C2F8"/>
<path d="M31.8633 41.7866C32.475 62.37 23.352 82.0495 25.0559 102.682C25.3017 105.647 25.9461 108.651 25.6375 111.636C25.4846 113.102 25.0532 114.522 24.8948 115.988C24.8238 116.635 24.8293 117.266 24.8729 117.913C24.8921 118.225 24.9494 118.552 24.9412 118.866C24.933 119.18 24.7419 119.65 24.8156 119.664L24.0893 122.296C26.2273 122.605 28.2835 122.572 30.4052 122.148C31.6694 121.897 31.7459 119.696 30.4052 119.516C27.538 119.128 24.6927 119.041 21.8119 119.344C20.3237 119.5 19.906 121.534 21.4488 122.026C23.6278 122.719 25.8095 122.818 28.0568 122.424C29.3593 122.198 29.3593 120.019 28.0568 119.792C26.7489 119.563 25.5392 119.565 24.234 119.808C22.926 120.054 22.9369 122.187 24.234 122.441C26.2874 122.845 28.3354 122.962 30.4188 122.722C31.8142 122.561 32.4258 120.374 30.782 120.04C28.7832 119.634 26.7844 119.486 24.7501 119.647C23.0107 119.784 22.9943 122.517 24.7501 122.378C26.5059 122.239 28.2917 122.315 30.0556 122.673L30.4188 119.991C28.5838 120.202 26.7762 120.163 24.9603 119.806V122.438C25.7631 122.288 26.525 122.28 27.3305 122.422V119.789C25.572 120.095 23.8681 119.929 22.1751 119.391L21.8119 122.072C24.4306 121.796 27.0684 121.794 29.6788 122.148V119.516C28.0732 119.836 26.4376 119.898 24.8156 119.664C23.1172 119.418 22.3389 121.976 24.0893 122.296C26.5523 122.747 27.7619 120.578 27.6445 118.391C27.4943 115.562 28.4282 112.916 28.4419 110.093C28.4555 107.283 27.8985 104.498 27.7155 101.699C27.5326 98.9274 27.5462 96.1476 27.7046 93.3761C28.3381 82.1942 31.2762 71.3236 33.0921 60.3111C34.1024 54.1863 34.7823 48.0015 34.5967 41.7866C34.5448 40.0336 31.8142 40.0254 31.866 41.7866H31.8633Z" fill="#00C2F8"/>
<path d="M65.499 40.0088C64.7644 62.1514 61.2228 84.1628 54.9342 105.407C53.1757 111.349 50.68 117.22 49.6614 123.347C49.3747 125.067 52.007 125.805 52.2937 124.073C53.2167 118.528 55.4176 113.233 57.045 107.87C58.6752 102.502 60.1306 97.0813 61.4113 91.6201C63.9398 80.8315 65.7802 69.879 66.938 58.8582C67.5961 52.5915 68.0221 46.3056 68.2296 40.0088C68.2869 38.2503 65.5563 38.2531 65.499 40.0088Z" fill="#00C2F8"/>
<path d="M47.7002 127.205L51.2336 127.214C52.9921 127.216 52.9894 124.521 51.2336 124.483C48.0633 124.415 44.8931 124.461 41.7256 124.625C39.9398 124.718 40.0026 127.17 41.7256 127.356C45.4174 127.757 49.09 127.599 52.7436 126.96C54.3437 126.678 53.8249 124.382 52.3804 124.278C50.4117 124.136 48.4456 124.095 46.4714 124.158C44.9586 124.205 44.5845 126.43 46.1082 126.84C47.6537 127.255 49.2184 127.511 50.8158 127.637C52.5852 127.776 52.5333 125.092 50.8158 124.906C49.5078 124.764 48.1999 124.622 46.8892 124.478C45.1443 124.286 45.158 127.02 46.8892 127.208C48.1971 127.35 49.5051 127.492 50.8158 127.637V124.906C49.4614 124.8 48.148 124.56 46.8346 124.207L46.4714 126.889C48.4456 126.829 50.4117 126.867 52.3804 127.009L52.0173 124.327C48.6095 124.923 45.1607 124.999 41.7229 124.625V127.356C44.8904 127.192 48.0579 127.143 51.2308 127.214V124.483L47.6974 124.475C45.9389 124.472 45.9389 127.203 47.6974 127.205H47.7002Z" fill="#00C2F8"/>
</g>
<defs>
<clipPath id="clip0_131_1013">
<rect width="101.456" height="132.388" fill="white"/>
</clipPath>
</defs>
</svg>
