<svg width="6" height="6" viewBox="0 0 6 6" fill="none" xmlns="http://www.w3.org/2000/svg">
<path d="M2.52447 0.463524C2.67415 0.00286913 3.32585 0.00286996 3.47553 0.463525L3.7858 1.41844C3.85274 1.62445 4.04471 1.76393 4.26133 1.76393H5.26539C5.74975 1.76393 5.95113 2.38374 5.55928 2.66844L4.74698 3.25861C4.57173 3.38593 4.4984 3.61162 4.56534 3.81763L4.87561 4.77254C5.02529 5.2332 4.49805 5.61626 4.10619 5.33156L3.29389 4.74139C3.11865 4.61407 2.88135 4.61407 2.70611 4.74139L1.89381 5.33156C1.50195 5.61626 0.974711 5.2332 1.12439 4.77254L1.43466 3.81763C1.5016 3.61162 1.42827 3.38593 1.25302 3.25861L0.440722 2.66844C0.0488656 2.38374 0.250254 1.76393 0.734616 1.76393H1.73867C1.95529 1.76393 2.14726 1.62445 2.2142 1.41844L2.52447 0.463524Z" fill="#FF0000"/>
</svg>
