<svg width="61" height="44" viewBox="0 0 61 44" fill="none" xmlns="http://www.w3.org/2000/svg">
<ellipse cx="30.4999" cy="22" rx="27.5" ry="15" transform="rotate(-15 30.4999 22)" fill="#FF4C34"/>
<path d="M55.6139 15.2708C56.5428 18.7375 54.7462 22.7057 50.8218 26.3458C46.9162 29.9685 40.9997 33.1628 33.9939 35.0401C26.988 36.9173 20.267 37.1091 15.0733 35.9246C9.85466 34.7344 6.31462 32.1961 5.38573 28.7294C4.45683 25.2627 6.25342 21.2944 10.1778 17.6543C14.0834 14.0316 19.9999 10.8373 27.0057 8.96007C34.0116 7.08285 40.7326 6.89102 45.9263 8.07554C51.1449 9.26575 54.685 11.8041 55.6139 15.2708Z" stroke="white"/>
<path d="M30.1045 16.1085V28.2514" stroke="white" stroke-width="2.14286" stroke-linecap="round"/>
<path d="M36.1763 22.1799L24.0334 22.1799" stroke="white" stroke-width="2.14286" stroke-linecap="round"/>
</svg>
