<svg width="81" height="30" viewBox="0 0 81 30" fill="none" xmlns="http://www.w3.org/2000/svg">
<ellipse cx="40.5" cy="15" rx="40.5" ry="15" fill="#FF4C34"/>
<path d="M79.5 15C79.5 16.7272 78.5137 18.4414 76.5748 20.0662C74.6384 21.6888 71.8067 23.1725 68.2637 24.4282C61.1821 26.9382 51.3662 28.5 40.5 28.5C29.6338 28.5 19.8179 26.9382 12.7363 24.4282C9.19329 23.1725 6.36157 21.6888 4.42525 20.0662C2.48629 18.4414 1.5 16.7272 1.5 15C1.5 13.2728 2.48629 11.5586 4.42525 9.9338C6.36157 8.31123 9.19329 6.82754 12.7363 5.57178C19.8179 3.06184 29.6338 1.5 40.5 1.5C51.3662 1.5 61.1821 3.06184 68.2637 5.57178C71.8067 6.82754 74.6384 8.31123 76.5748 9.9338C78.5137 11.5586 79.5 13.2728 79.5 15Z" stroke="white"/>
<path d="M27.3193 9.05664V9.22852C26.7679 12.6159 26.1699 14.9398 25.5254 16.2002C25.5254 16.3649 25.4072 17.0202 25.1709 18.166H24.8164C22.5462 15.0938 21.3538 13.0671 21.2393 12.0859H20.8848V12.4512C20.2832 14.4993 19.7461 16.7051 19.2734 19.0684H18.7363C18.7363 18.7031 17.902 16.3757 16.2334 12.0859C15.8753 11.1406 15.6963 10.5462 15.6963 10.3027C15.818 10.0736 15.8789 9.89453 15.8789 9.76562H16.416C16.416 11.0762 16.8923 12.6266 17.8447 14.417C18.4391 15.8278 18.7363 16.8411 18.7363 17.457C18.9297 17.457 19.2269 16.3828 19.6279 14.2344C19.9144 14.2344 20.2116 13.042 20.5195 10.6572H21.0566C21.2643 10.7503 21.9196 12.0609 23.0225 14.5889C23.932 15.9066 24.4691 16.5654 24.6338 16.5654H24.8164C26.127 11.8317 26.7822 9.32878 26.7822 9.05664H27.3193ZM29.543 10.8506H29.7148C29.9512 10.8864 30.0693 11.0046 30.0693 11.2051V11.7422C30.0693 11.9212 29.833 12.1003 29.3604 12.2793C29.1312 12.1576 28.9521 12.0967 28.8232 12.0967V11.5596C28.8232 11.3734 29.0632 11.137 29.543 10.8506ZM30.0693 13.8906H30.4346C30.6709 13.9264 30.7891 14.0446 30.7891 14.2451C30.9108 17.2744 30.9717 19.3011 30.9717 20.3252H30.6064C30.3701 20.3252 30.252 20.2035 30.252 19.96V18.3594C30.252 17.4928 30.1338 16.1823 29.8975 14.4277C30.012 14.1914 30.0693 14.0124 30.0693 13.8906ZM36.0527 13.5254C37.9935 13.5254 39.125 15.4912 39.4473 19.4229V20.6797C39.4473 20.916 39.3291 21.0342 39.0928 21.0342H38.7275V19.251C38.7275 16.8304 38.015 15.1618 36.5898 14.2451H36.0527C34.7279 14.2451 33.7754 15.4948 33.1953 17.9941V19.4229C33.4316 20.2751 33.5498 20.7513 33.5498 20.8516L33.1953 21.0342H33.0127C32.6546 21.0342 32.4756 20.0817 32.4756 18.1768V17.9941C33.2633 15.015 34.4557 13.5254 36.0527 13.5254ZM44.5391 13.5254C46.4798 13.5254 47.6113 15.4912 47.9336 19.4229V20.6797C47.9336 20.916 47.8154 21.0342 47.5791 21.0342H47.2139V19.251C47.2139 16.8304 46.5013 15.1618 45.0762 14.2451H44.5391C43.2142 14.2451 42.2617 15.4948 41.6816 17.9941V19.4229C41.918 20.2751 42.0361 20.7513 42.0361 20.8516L41.6816 21.0342H41.499C41.141 21.0342 40.9619 20.0817 40.9619 18.1768V17.9941C41.7497 15.015 42.9421 13.5254 44.5391 13.5254ZM51.5967 12.2686H52.4883C53.8991 12.2686 54.7943 13.4609 55.1738 15.8457L54.8086 16.5654C53.498 16.3219 52.0085 16.2002 50.3398 16.2002L50.168 16.5654V17.2744C50.168 18.0693 50.7015 18.8428 51.7686 19.5947C52.4131 19.7165 52.9502 19.7773 53.3799 19.7773C53.7666 19.7773 54.4827 19.4193 55.5283 18.7031H55.7109C55.9473 18.7389 56.0654 18.8607 56.0654 19.0684C55.113 20.0208 53.9206 20.4971 52.4883 20.4971C50.9056 20.4971 49.8923 19.362 49.4482 17.0918V16.9199C49.4482 14.6569 50.1644 13.1064 51.5967 12.2686ZM50.3398 15.4912H50.5225C52.1338 15.6058 53.3262 15.6631 54.0996 15.6631V14.7715C54.0996 14.0124 53.5016 13.3571 52.3057 12.8057C51.4248 12.8057 50.7695 13.7008 50.3398 15.4912ZM57.9238 12.8164C58.1673 12.8522 58.2891 12.9704 58.2891 13.1709V14.9541L58.4609 15.8564H58.8154C59.4456 14.1878 60.459 13.3535 61.8555 13.3535H62.0381C63.4632 13.7116 64.4766 14.306 65.0781 15.1367C65.0781 15.373 64.96 15.4912 64.7236 15.4912H64.541C63.4811 14.5531 62.5859 14.0768 61.8555 14.0625C60.4447 14.0625 59.4922 15.194 58.998 17.457V18.5312L59.1807 20.6797L58.8154 20.8516C58.5863 20.737 58.4108 20.6797 58.2891 20.6797V18.8857L57.5693 13.708H57.752L57.5693 13.3535V13.1709C57.6051 12.9346 57.7233 12.8164 57.9238 12.8164Z" fill="white"/>
</svg>
